STARTFONT 2.1
COMMENT
COMMENT Converted from OpenType font "Q:\font stuff\winfont\Astronomic Mono.ttf" by "otf2bdf 3.0".
COMMENT
FONT -FreeType-Astronomic Mono-Medium-R-Normal--36-360-72-72-P-236-ISO10646-1
SIZE 36 72 72
FONTBOUNDINGBOX 27 33 0 0
STARTPROPERTIES 19
FOUNDRY "FreeType"
FAMILY_NAME "Astronomic Mono"
WEIGHT_NAME "Medium"
SLANT "R"
SETWIDTH_NAME "Normal"
ADD_STYLE_NAME ""
PIXEL_SIZE 24
POINT_SIZE 360
RESOLUTION_X 72
RESOLUTION_Y 72
SPACING "P"
AVERAGE_WIDTH 236
CHARSET_REGISTRY "ISO10646"
CHARSET_ENCODING "1"
FONT_ASCENT 27
FONT_DESCENT 0
COPYRIGHT "Copyright (c) 2007 by Victor Carbajo. All rights reserved. www.carbajo.net"
_OTF_FONTFILE "Q:\font stuff\winfont\Astronomic Mono.ttf"
_OTF_PSNAME "AstronomicMono"
ENDPROPERTIES
CHARS 475
STARTCHAR 0020
ENCODING 32
SWIDTH 750 0
DWIDTH 27 0
BBX 0 0 0 0
BITMAP
ENDCHAR
STARTCHAR 0021
ENCODING 33
SWIDTH 750 0
DWIDTH 27 0
BBX 6 24 11 0
BITMAP
FC
FC
FC
FC
FC
FC
FC
FC
FC
FC
FC
FC
FC
FC
FC
00
00
00
FC
FC
FC
FC
FC
FC
ENDCHAR
STARTCHAR 0022
ENCODING 34
SWIDTH 750 0
DWIDTH 27 0
BBX 15 9 6 15
BITMAP
FC7E
FC7E
FC7E
FC7E
FC7E
FC7E
FC7E
FC7E
FC7E
ENDCHAR
STARTCHAR 0023
ENCODING 35
SWIDTH 750 0
DWIDTH 27 0
BBX 25 24 1 0
BITMAP
07E3F000
07E3F000
07E3F000
07E3F000
FFFFFF80
FFFFFF80
FFFFFF80
FFFFFF80
FFFFFF80
FFFFFF80
07E3F000
07E3F000
07E3F000
FFFFFF80
FFFFFF80
FFFFFF80
FFFFFF80
FFFFFF80
FFFFFF80
07E3F000
07E3F000
07E3F000
07E3F000
07E3F000
ENDCHAR
STARTCHAR 0024
ENCODING 36
SWIDTH 777 0
DWIDTH 28 0
BBX 24 24 2 0
BITMAP
07FFFF
1FFFFF
3FFFFF
7FFFFF
7FFFFF
FFFFFF
FC7E00
FC7E00
FC7E00
FFFFE0
7FFFF8
7FFFFC
3FFFFE
1FFFFE
07FFFF
007E3F
007E3F
007E3F
FFFFFF
FFFFFE
FFFFFE
FFFFFC
FFFFF8
FFFFE0
ENDCHAR
STARTCHAR 0025
ENCODING 37
SWIDTH 777 0
DWIDTH 28 0
BBX 24 24 2 0
BITMAP
FF001F
FF003F
FF007F
FF00FF
FF01FF
FF03FE
FF07FC
FF0FF8
001FF0
003FE0
007FC0
00FF80
01FF00
03FE00
07FC00
0FF800
1FF0FF
3FE0FF
7FC0FF
FF80FF
FF00FF
FE00FF
FC00FF
F800FF
ENDCHAR
STARTCHAR 0026
ENCODING 38
SWIDTH 777 0
DWIDTH 28 0
BBX 24 24 2 0
BITMAP
07C03F
1FF03F
3FF83F
7FFC3F
7FFC3F
FFFE3F
FC7E3F
FC7E3F
FC7E3F
FFFE3F
FFFC3F
FFFC3F
FFF83F
FFF03F
FFC03F
FC003F
FC003F
FC003F
FFFFFF
7FFFFE
7FFFFE
3FFFFC
1FFFF8
07FFE0
ENDCHAR
STARTCHAR 0027
ENCODING 39
SWIDTH 750 0
DWIDTH 27 0
BBX 6 9 11 15
BITMAP
FC
FC
FC
FC
FC
FC
FC
FC
FC
ENDCHAR
STARTCHAR 0028
ENCODING 40
SWIDTH 750 0
DWIDTH 27 0
BBX 12 24 8 0
BITMAP
07F0
1FF0
3FF0
7FF0
7FF0
FFF0
FC00
FC00
FC00
FC00
FC00
FC00
FC00
FC00
FC00
FC00
FC00
FC00
FFF0
7FF0
7FF0
3FF0
1FF0
07F0
ENDCHAR
STARTCHAR 0029
ENCODING 41
SWIDTH 750 0
DWIDTH 27 0
BBX 12 24 8 0
BITMAP
FE00
FF80
FFC0
FFE0
FFE0
FFF0
03F0
03F0
03F0
03F0
03F0
03F0
03F0
03F0
03F0
03F0
03F0
03F0
FFF0
FFE0
FFE0
FFC0
FF80
FE00
ENDCHAR
STARTCHAR 002A
ENCODING 42
SWIDTH 750 0
DWIDTH 27 0
BBX 24 24 2 0
BITMAP
F87E1F
FC7E3F
FE7E7F
FF7EFF
FFFFFF
7FFFFE
3FFFFC
1FFFF8
0FFFF0
FFFFFF
FFFFFF
FFFFFF
FFFFFF
FFFFFF
FFFFFF
0FFFF0
1FFFF8
3FFFFC
7FFFFE
FFFFFF
FF7EFF
FE7E7F
FC7E3F
F87E1F
ENDCHAR
STARTCHAR 002B
ENCODING 43
SWIDTH 750 0
DWIDTH 27 0
BBX 24 24 2 0
BITMAP
007E00
007E00
007E00
007E00
007E00
007E00
007E00
007E00
007E00
FFFFFF
FFFFFF
FFFFFF
FFFFFF
FFFFFF
FFFFFF
007E00
007E00
007E00
007E00
007E00
007E00
007E00
007E00
007E00
ENDCHAR
STARTCHAR 002C
ENCODING 44
SWIDTH 750 0
DWIDTH 27 0
BBX 11 12 7 0
BITMAP
07E0
07E0
07E0
07E0
07E0
07E0
FFE0
FFC0
FFC0
FF80
FF00
FC00
ENDCHAR
STARTCHAR 002D
ENCODING 45
SWIDTH 750 0
DWIDTH 27 0
BBX 24 6 2 9
BITMAP
FFFFFF
FFFFFF
FFFFFF
FFFFFF
FFFFFF
FFFFFF
ENDCHAR
STARTCHAR 002E
ENCODING 46
SWIDTH 750 0
DWIDTH 27 0
BBX 8 8 7 0
BITMAP
FF
FF
FF
FF
FF
FF
FF
FF
ENDCHAR
STARTCHAR 002F
ENCODING 47
SWIDTH 750 0
DWIDTH 27 0
BBX 24 24 2 0
BITMAP
00001F
00003F
00007F
0000FF
0001FF
0003FE
0007FC
000FF8
001FF0
003FE0
007FC0
00FF80
01FF00
03FE00
07FC00
0FF800
1FF000
3FE000
7FC000
FF8000
FF0000
FE0000
FC0000
F80000
ENDCHAR
STARTCHAR 0030
ENCODING 48
SWIDTH 777 0
DWIDTH 28 0
BBX 24 24 2 0
BITMAP
07FFE0
1FFFF8
3FFFFC
7FFFFE
7FFFFE
FFFFFF
FC003F
FC003F
FC003F
FC7E3F
FC7E3F
FC7E3F
FC7E3F
FC7E3F
FC7E3F
FC003F
FC003F
FC003F
FFFFFF
7FFFFE
7FFFFE
3FFFFC
1FFFF8
07FFE0
ENDCHAR
STARTCHAR 0031
ENCODING 49
SWIDTH 750 0
DWIDTH 27 0
BBX 24 24 2 0
BITMAP
FFC000
FFF000
FFF800
FFFC00
FFFC00
FFFE00
007E00
007E00
007E00
007E00
007E00
007E00
007E00
007E00
007E00
007E00
007E00
007E00
FFFFFF
FFFFFF
FFFFFF
FFFFFF
FFFFFF
FFFFFF
ENDCHAR
STARTCHAR 0032
ENCODING 50
SWIDTH 777 0
DWIDTH 28 0
BBX 24 24 2 0
BITMAP
FFFFE0
FFFFF8
FFFFFC
FFFFFE
FFFFFE
FFFFFF
00003F
00003F
00003F
07FFFF
1FFFFE
3FFFFE
7FFFFC
7FFFF8
FFFFE0
FC0000
FC0000
FC0000
FFFFFF
7FFFFF
7FFFFF
3FFFFF
1FFFFF
07FFFF
ENDCHAR
STARTCHAR 0033
ENCODING 51
SWIDTH 777 0
DWIDTH 28 0
BBX 24 24 2 0
BITMAP
FFFFE0
FFFFF8
FFFFFC
FFFFFE
FFFFFE
FFFFFF
00003F
00003F
00003F
FFFFFF
FFFFFF
FFFFFF
FFFFFF
FFFFFF
FFFFFF
00003F
00003F
00003F
FFFFFF
FFFFFE
FFFFFE
FFFFFC
FFFFF8
FFFFE0
ENDCHAR
STARTCHAR 0034
ENCODING 52
SWIDTH 777 0
DWIDTH 28 0
BBX 24 24 2 0
BITMAP
FC003F
FC003F
FC003F
FC003F
FC003F
FC003F
FC003F
FC003F
FC003F
FFFFFF
7FFFFF
7FFFFF
3FFFFF
1FFFFF
07FFFF
00003F
00003F
00003F
00003F
00003F
00003F
00003F
00003F
00003F
ENDCHAR
STARTCHAR 0035
ENCODING 53
SWIDTH 777 0
DWIDTH 28 0
BBX 24 24 2 0
BITMAP
07FFFF
1FFFFF
3FFFFF
7FFFFF
7FFFFF
FFFFFF
FC0000
FC0000
FC0000
FFFFE0
7FFFF8
7FFFFC
3FFFFE
1FFFFE
07FFFF
00003F
00003F
00003F
FFFFFF
FFFFFE
FFFFFE
FFFFFC
FFFFF8
FFFFE0
ENDCHAR
STARTCHAR 0036
ENCODING 54
SWIDTH 777 0
DWIDTH 28 0
BBX 24 24 2 0
BITMAP
07FFFF
1FFFFF
3FFFFF
7FFFFF
7FFFFF
FFFFFF
FC0000
FC0000
FC0000
FFFFE0
FFFFF8
FFFFFC
FFFFFE
FFFFFE
FFFFFF
FC003F
FC003F
FC003F
FFFFFF
7FFFFE
7FFFFE
3FFFFC
1FFFF8
07FFE0
ENDCHAR
STARTCHAR 0037
ENCODING 55
SWIDTH 777 0
DWIDTH 28 0
BBX 24 24 2 0
BITMAP
FFFFE0
FFFFF8
FFFFFC
FFFFFE
FFFFFE
FFFFFF
00003F
00003F
00003F
00003F
00003F
00003F
00003F
00003F
00003F
00003F
00003F
00003F
00003F
00003F
00003F
00003F
00003F
00003F
ENDCHAR
STARTCHAR 0038
ENCODING 56
SWIDTH 777 0
DWIDTH 28 0
BBX 24 24 2 0
BITMAP
07FFE0
1FFFF8
3FFFFC
7FFFFE
7FFFFE
FFFFFF
FC003F
FC003F
FC003F
FFFFFF
FFFFFF
FFFFFF
FFFFFF
FFFFFF
FFFFFF
FC003F
FC003F
FC003F
FFFFFF
7FFFFE
7FFFFE
3FFFFC
1FFFF8
07FFE0
ENDCHAR
STARTCHAR 0039
ENCODING 57
SWIDTH 777 0
DWIDTH 28 0
BBX 24 24 2 0
BITMAP
07FFE0
1FFFF8
3FFFFC
7FFFFE
7FFFFE
FFFFFF
FC003F
FC003F
FC003F
FFFFFF
7FFFFF
7FFFFF
3FFFFF
1FFFFF
07FFFF
00003F
00003F
00003F
FFFFFF
FFFFFE
FFFFFE
FFFFFC
FFFFF8
FFFFE0
ENDCHAR
STARTCHAR 003A
ENCODING 58
SWIDTH 750 0
DWIDTH 27 0
BBX 8 24 7 0
BITMAP
FF
FF
FF
FF
FF
FF
FF
FF
00
00
00
00
00
00
00
00
FF
FF
FF
FF
FF
FF
FF
FF
ENDCHAR
STARTCHAR 003B
ENCODING 59
SWIDTH 750 0
DWIDTH 27 0
BBX 11 24 7 0
BITMAP
1FE0
1FE0
1FE0
1FE0
1FE0
1FE0
1FE0
1FE0
0000
0000
0000
0000
07E0
07E0
07E0
07E0
07E0
0FE0
FFE0
FFC0
FFC0
FF80
FF00
FC00
ENDCHAR
STARTCHAR 003C
ENCODING 60
SWIDTH 750 0
DWIDTH 27 0
BBX 15 24 6 0
BITMAP
003E
007E
00FE
01FE
03FE
07FC
0FF8
1FF0
3FE0
7FC0
FF80
FF00
FF00
FF80
7FC0
3FE0
1FF0
0FF8
07FC
03FE
01FE
00FE
007E
003E
ENDCHAR
STARTCHAR 003D
ENCODING 61
SWIDTH 750 0
DWIDTH 27 0
BBX 24 17 2 3
BITMAP
FFFFFF
FFFFFF
FFFFFF
FFFFFF
FFFFFF
FFFFFF
000000
000000
000000
000000
000000
FFFFFF
FFFFFF
FFFFFF
FFFFFF
FFFFFF
FFFFFF
ENDCHAR
STARTCHAR 003E
ENCODING 62
SWIDTH 750 0
DWIDTH 27 0
BBX 15 24 6 0
BITMAP
F800
FC00
FE00
FF00
FF80
7FC0
3FE0
1FF0
0FF8
07FC
03FE
01FE
01FE
03FE
07FC
0FF8
1FF0
3FE0
7FC0
FF80
FF00
FE00
FC00
F800
ENDCHAR
STARTCHAR 003F
ENCODING 63
SWIDTH 777 0
DWIDTH 28 0
BBX 24 24 2 0
BITMAP
07FFE0
1FFFF8
3FFFFC
7FFFFE
7FFFFE
FFFFFF
FC003F
FC003F
FC003F
0003FF
000FFE
001FFE
003FFC
003FF8
007FE0
007E00
007E00
007E00
007E00
007E00
007E00
007E00
007E00
007E00
ENDCHAR
STARTCHAR 0040
ENCODING 64
SWIDTH 777 0
DWIDTH 28 0
BBX 24 24 2 0
BITMAP
07FFE0
1FFFF8
3FFFFC
7FFFFE
7FFFFE
FFFFFF
FC003F
FC003F
FC003F
FC03FF
FC0FFF
FC1FFF
FC3FFF
FC3FFF
FC7FFF
FC7E3F
FC7E3F
FC7E3F
FC7FFF
FC3FFE
FC3FFE
FC1FFC
FC0FF8
FC03E0
ENDCHAR
STARTCHAR 0041
ENCODING 65
SWIDTH 777 0
DWIDTH 28 0
BBX 24 24 2 0
BITMAP
07FFE0
1FFFF8
3FFFFC
7FFFFE
7FFFFE
FFFFFF
FC003F
FC003F
FC003F
FFFFFF
FFFFFF
FFFFFF
FFFFFF
FFFFFF
FFFFFF
FC003F
FC003F
FC003F
FC003F
FC003F
FC003F
FC003F
FC003F
FC003F
ENDCHAR
STARTCHAR 0042
ENCODING 66
SWIDTH 777 0
DWIDTH 28 0
BBX 24 24 2 0
BITMAP
FFFFE0
FFFFF8
FFFFFC
FFFFFE
FFFFFE
FFFFFF
1F803F
1F803F
1F803F
1FFFFF
1FFFFF
1FFFFF
1FFFFF
1FFFFF
1FFFFF
1F803F
1F803F
1F803F
FFFFFF
FFFFFE
FFFFFE
FFFFFC
FFFFF8
FFFFE0
ENDCHAR
STARTCHAR 0043
ENCODING 67
SWIDTH 750 0
DWIDTH 27 0
BBX 24 24 2 0
BITMAP
07FFFF
1FFFFF
3FFFFF
7FFFFF
7FFFFF
FFFFFF
FC0000
FC0000
FC0000
FC0000
FC0000
FC0000
FC0000
FC0000
FC0000
FC0000
FC0000
FC0000
FFFFFF
7FFFFF
7FFFFF
3FFFFF
1FFFFF
07FFFF
ENDCHAR
STARTCHAR 0044
ENCODING 68
SWIDTH 777 0
DWIDTH 28 0
BBX 24 24 2 0
BITMAP
FFFFE0
FFFFF8
FFFFFC
FFFFFE
FFFFFE
FFFFFF
1F803F
1F803F
1F803F
1F803F
1F803F
1F803F
1F803F
1F803F
1F803F
1F803F
1F803F
1F803F
FFFFFF
FFFFFE
FFFFFE
FFFFFC
FFFFF8
FFFFE0
ENDCHAR
STARTCHAR 0045
ENCODING 69
SWIDTH 750 0
DWIDTH 27 0
BBX 24 24 2 0
BITMAP
07FFFF
1FFFFF
3FFFFF
7FFFFF
7FFFFF
FFFFFF
FC0000
FC0000
FC0000
FFFFFF
FFFFFF
FFFFFF
FFFFFF
FFFFFF
FFFFFF
FC0000
FC0000
FC0000
FFFFFF
7FFFFF
7FFFFF
3FFFFF
1FFFFF
07FFFF
ENDCHAR
STARTCHAR 0046
ENCODING 70
SWIDTH 750 0
DWIDTH 27 0
BBX 24 24 2 0
BITMAP
07FFFF
1FFFFF
3FFFFF
7FFFFF
7FFFFF
FFFFFF
FC0000
FC0000
FC0000
FFFFFF
FFFFFF
FFFFFF
FFFFFF
FFFFFF
FFFFFF
FC0000
FC0000
FC0000
FC0000
FC0000
FC0000
FC0000
FC0000
FC0000
ENDCHAR
STARTCHAR 0047
ENCODING 71
SWIDTH 777 0
DWIDTH 28 0
BBX 24 24 2 0
BITMAP
07FFFF
1FFFFF
3FFFFF
7FFFFF
7FFFFF
FFFFFF
FC0000
FC0000
FC0000
FFFFE0
FFFFF8
FFFFFC
FFFFFE
FFFFFE
FFFFFF
FC003F
FC003F
FC003F
FFFFFF
7FFFFE
7FFFFE
3FFFFC
1FFFF8
07FFE0
ENDCHAR
STARTCHAR 0048
ENCODING 72
SWIDTH 777 0
DWIDTH 28 0
BBX 24 24 2 0
BITMAP
FC003F
FC003F
FC003F
FC003F
FC003F
FC003F
FC003F
FC003F
FC003F
FFFFFF
FFFFFF
FFFFFF
FFFFFF
FFFFFF
FFFFFF
FC003F
FC003F
FC003F
FC003F
FC003F
FC003F
FC003F
FC003F
FC003F
ENDCHAR
STARTCHAR 0049
ENCODING 73
SWIDTH 750 0
DWIDTH 27 0
BBX 24 24 2 0
BITMAP
FFFFFF
FFFFFF
FFFFFF
FFFFFF
FFFFFF
FFFFFF
007E00
007E00
007E00
007E00
007E00
007E00
007E00
007E00
007E00
007E00
007E00
007E00
FFFFFF
FFFFFF
FFFFFF
FFFFFF
FFFFFF
FFFFFF
ENDCHAR
STARTCHAR 004A
ENCODING 74
SWIDTH 777 0
DWIDTH 28 0
BBX 24 24 2 0
BITMAP
00003F
00003F
00003F
00003F
00003F
00003F
00003F
00003F
00003F
00003F
00003F
00003F
FC003F
FC003F
FC003F
FC003F
FC003F
FC003F
FFFFFF
7FFFFE
7FFFFE
3FFFFC
1FFFF8
07FFE0
ENDCHAR
STARTCHAR 004B
ENCODING 75
SWIDTH 750 0
DWIDTH 27 0
BBX 24 24 2 0
BITMAP
FC001F
FC003F
FC007F
FC00FF
FC01FF
FC03FE
FC07FC
FC0FF8
FC1FF0
FFFFE0
FFFFC0
FFFF80
FFFF80
FFFFC0
FFFFE0
FC1FF0
FC0FF8
FC07FC
FC03FE
FC01FF
FC00FF
FC007F
FC003F
FC001F
ENDCHAR
STARTCHAR 004C
ENCODING 76
SWIDTH 750 0
DWIDTH 27 0
BBX 24 24 2 0
BITMAP
FC0000
FC0000
FC0000
FC0000
FC0000
FC0000
FC0000
FC0000
FC0000
FC0000
FC0000
FC0000
FC0000
FC0000
FC0000
FC0000
FC0000
FC0000
FFFFFF
7FFFFF
7FFFFF
3FFFFF
1FFFFF
07FFFF
ENDCHAR
STARTCHAR 004D
ENCODING 77
SWIDTH 777 0
DWIDTH 28 0
BBX 24 24 2 0
BITMAP
F8001F
FC003F
FE007F
FF00FF
FF81FF
FFC3FF
FFE7FF
FFFFFF
FFFFFF
FFFFFF
FFFFFF
FDFFBF
FCFF3F
FC7E3F
FC3C3F
FC003F
FC003F
FC003F
FC003F
FC003F
FC003F
FC003F
FC003F
FC003F
ENDCHAR
STARTCHAR 004E
ENCODING 78
SWIDTH 777 0
DWIDTH 28 0
BBX 24 24 2 0
BITMAP
F8003F
FC003F
FE003F
FF003F
FF803F
FFC03F
FFE03F
FFF03F
FFF83F
FFFC3F
FFFE3F
FDFF3F
FCFFBF
FC7FFF
FC3FFF
FC1FFF
FC0FFF
FC07FF
FC03FF
FC01FF
FC00FF
FC007F
FC003F
FC001F
ENDCHAR
STARTCHAR 004F
ENCODING 79
SWIDTH 777 0
DWIDTH 28 0
BBX 24 24 2 0
BITMAP
07FFE0
1FFFF8
3FFFFC
7FFFFE
7FFFFE
FFFFFF
FC003F
FC003F
FC003F
FC003F
FC003F
FC003F
FC003F
FC003F
FC003F
FC003F
FC003F
FC003F
FFFFFF
7FFFFE
7FFFFE
3FFFFC
1FFFF8
07FFE0
ENDCHAR
STARTCHAR 0050
ENCODING 80
SWIDTH 777 0
DWIDTH 28 0
BBX 24 24 2 0
BITMAP
07FFE0
1FFFF8
3FFFFC
7FFFFE
7FFFFE
FFFFFF
FC003F
FC003F
FC003F
FFFFFF
FFFFFE
FFFFFE
FFFFFC
FFFFF8
FFFFE0
FC0000
FC0000
FC0000
FC0000
FC0000
FC0000
FC0000
FC0000
FC0000
ENDCHAR
STARTCHAR 0051
ENCODING 81
SWIDTH 777 0
DWIDTH 28 0
BBX 24 24 2 0
BITMAP
07FFE0
1FFFF8
3FFFFC
7FFFFE
7FFFFE
FFFFFF
FC003F
FC003F
FC003F
FC003F
FC003F
FC003F
FC7E3F
FC7E3F
FC7E3F
FC7E3F
FC7E3F
FC7E3F
FFFFFF
7FFFFE
7FFFFE
3FFFFC
1FFFF8
07FFE0
ENDCHAR
STARTCHAR 0052
ENCODING 82
SWIDTH 777 0
DWIDTH 28 0
BBX 24 24 2 0
BITMAP
07FFE0
1FFFF8
3FFFFC
7FFFFE
7FFFFE
FFFFFF
FC003F
FC003F
FC003F
FFFFFF
FFFFFE
FFFFFE
FFFFFC
FFFFF8
FFFFE0
FC7E00
FC7E00
FC7E00
FC7FFF
FC3FFF
FC3FFF
FC1FFF
FC0FFF
FC03FF
ENDCHAR
STARTCHAR 0053
ENCODING 83
SWIDTH 777 0
DWIDTH 28 0
BBX 24 24 2 0
BITMAP
07FFFF
1FFFFF
3FFFFF
7FFFFF
7FFFFF
FFFFFF
FC0000
FC0000
FC0000
FFFFE0
7FFFF8
7FFFFC
3FFFFE
1FFFFE
07FFFF
00003F
00003F
00003F
FFFFFF
FFFFFE
FFFFFE
FFFFFC
FFFFF8
FFFFE0
ENDCHAR
STARTCHAR 0054
ENCODING 84
SWIDTH 750 0
DWIDTH 27 0
BBX 24 24 2 0
BITMAP
FFFFFF
FFFFFF
FFFFFF
FFFFFF
FFFFFF
FFFFFF
007E00
007E00
007E00
007E00
007E00
007E00
007E00
007E00
007E00
007E00
007E00
007E00
007E00
007E00
007E00
007E00
007E00
007E00
ENDCHAR
STARTCHAR 0055
ENCODING 85
SWIDTH 777 0
DWIDTH 28 0
BBX 24 24 2 0
BITMAP
FC003F
FC003F
FC003F
FC003F
FC003F
FC003F
FC003F
FC003F
FC003F
FC003F
FC003F
FC003F
FC003F
FC003F
FC003F
FC003F
FC003F
FC003F
FFFFFF
7FFFFE
7FFFFE
3FFFFC
1FFFF8
07FFE0
ENDCHAR
STARTCHAR 0056
ENCODING 86
SWIDTH 750 0
DWIDTH 27 0
BBX 24 24 2 0
BITMAP
FC001F
FC003F
FC007F
FC00FF
FC01FF
FC03FE
FC07FC
FC0FF8
FC1FF0
FC3FE0
FC7FC0
FCFF80
FDFF00
FFFE00
FFFC00
FFF800
FFF000
FFE000
FFC000
FF8000
FF0000
FE0000
FC0000
F80000
ENDCHAR
STARTCHAR 0057
ENCODING 87
SWIDTH 777 0
DWIDTH 28 0
BBX 24 24 2 0
BITMAP
FC003F
FC003F
FC003F
FC003F
FC003F
FC003F
FC003F
FC003F
FC003F
FC3C3F
FC7E3F
FCFF3F
FDFFBF
FFFFFF
FFFFFF
FFFFFF
FFFFFF
FFE7FF
FFC3FF
FF81FF
FF00FF
FE007F
FC003F
F8001F
ENDCHAR
STARTCHAR 0058
ENCODING 88
SWIDTH 750 0
DWIDTH 27 0
BBX 24 24 2 0
BITMAP
F8001F
FC003F
FE007F
FF00FF
FF81FF
7FC3FE
3FE7FC
1FFFF8
0FFFF0
07FFE0
03FFC0
01FF80
01FF80
03FFC0
07FFE0
0FFFF0
1FFFF8
3FE7FC
7FC3FE
FF81FF
FF00FF
FE007F
FC003F
F8001F
ENDCHAR
STARTCHAR 0059
ENCODING 89
SWIDTH 750 0
DWIDTH 27 0
BBX 24 24 2 0
BITMAP
F8001F
FC003F
FE007F
FF00FF
FF81FF
7FC3FE
3FE7FC
1FFFF8
0FFFF0
07FFE0
03FFC0
01FF80
00FF00
007E00
007E00
007E00
007E00
007E00
007E00
007E00
007E00
007E00
007E00
007E00
ENDCHAR
STARTCHAR 005A
ENCODING 90
SWIDTH 750 0
DWIDTH 27 0
BBX 24 24 2 0
BITMAP
FFFFFF
FFFFFF
FFFFFF
FFFFFF
FFFFFF
FFFFFE
0007FC
000FF8
001FF0
003FE0
007FC0
00FF80
01FF00
03FE00
07FC00
0FF800
1FF000
3FE000
7FFFFF
FFFFFF
FFFFFF
FFFFFF
FFFFFF
FFFFFF
ENDCHAR
STARTCHAR 005B
ENCODING 91
SWIDTH 750 0
DWIDTH 27 0
BBX 12 24 8 0
BITMAP
FFF0
FFF0
FFF0
FFF0
FFF0
FFF0
FC00
FC00
FC00
FC00
FC00
FC00
FC00
FC00
FC00
FC00
FC00
FC00
FFF0
FFF0
FFF0
FFF0
FFF0
FFF0
ENDCHAR
STARTCHAR 005C
ENCODING 92
SWIDTH 750 0
DWIDTH 27 0
BBX 24 24 2 0
BITMAP
F80000
FC0000
FE0000
FF0000
FF8000
7FC000
3FE000
1FF000
0FF800
07FC00
03FE00
01FF00
00FF80
007FC0
003FE0
001FF0
000FF8
0007FC
0003FE
0001FF
0000FF
00007F
00003F
00001F
ENDCHAR
STARTCHAR 005D
ENCODING 93
SWIDTH 750 0
DWIDTH 27 0
BBX 12 24 8 0
BITMAP
FFF0
FFF0
FFF0
FFF0
FFF0
FFF0
03F0
03F0
03F0
03F0
03F0
03F0
03F0
03F0
03F0
03F0
03F0
03F0
FFF0
FFF0
FFF0
FFF0
FFF0
FFF0
ENDCHAR
STARTCHAR 005E
ENCODING 94
SWIDTH 750 0
DWIDTH 27 0
BBX 24 15 2 9
BITMAP
003C00
007E00
00FF00
01FF80
03FFC0
07FFE0
0FFFF0
1FFFF8
3FE7FC
7FC3FE
FF81FF
FF00FF
FE007F
FC003F
F8001F
ENDCHAR
STARTCHAR 005F
ENCODING 95
SWIDTH 750 0
DWIDTH 27 0
BBX 24 6 2 0
BITMAP
FFFFFF
FFFFFF
FFFFFF
FFFFFF
FFFFFF
FFFFFF
ENDCHAR
STARTCHAR 0060
ENCODING 96
SWIDTH 750 0
DWIDTH 27 0
BBX 9 9 9 24
BITMAP
F800
FC00
FE00
FF00
FF80
7F80
3F80
1F80
0F80
ENDCHAR
STARTCHAR 0061
ENCODING 97
SWIDTH 777 0
DWIDTH 28 0
BBX 24 24 2 0
BITMAP
FFFFE0
FFFFF8
FFFFFC
FFFFFE
FFFFFE
FFFFFF
00003F
00003F
00003F
07FFFF
1FFFFF
3FFFFF
7FFFFF
7FFFFF
FFFFFF
FC003F
FC003F
FC003F
FFFFFF
7FFFFE
7FFFFE
3FFFFC
1FFFF8
07FFE0
ENDCHAR
STARTCHAR 0062
ENCODING 98
SWIDTH 777 0
DWIDTH 28 0
BBX 24 24 2 0
BITMAP
FC0000
FC0000
FC0000
FC0000
FC0000
FC0000
FC0000
FC0000
FC0000
FFFFE0
FFFFF8
FFFFFC
FFFFFE
FFFFFE
FFFFFF
FC003F
FC003F
FC003F
FFFFFF
7FFFFE
7FFFFE
3FFFFC
1FFFF8
07FFE0
ENDCHAR
STARTCHAR 0063
ENCODING 99
SWIDTH 750 0
DWIDTH 27 0
BBX 24 24 2 0
BITMAP
07FFFF
1FFFFF
3FFFFF
7FFFFF
7FFFFF
FFFFFF
FC0000
FC0000
FC0000
FC0000
FC0000
FC0000
FC0000
FC0000
FC0000
FC0000
FC0000
FC0000
FFFFFF
7FFFFF
7FFFFF
3FFFFF
1FFFFF
07FFFF
ENDCHAR
STARTCHAR 0064
ENCODING 100
SWIDTH 777 0
DWIDTH 28 0
BBX 24 24 2 0
BITMAP
00003F
00003F
00003F
00003F
00003F
00003F
00003F
00003F
00003F
07FFFF
1FFFFF
3FFFFF
7FFFFF
7FFFFF
FFFFFF
FC003F
FC003F
FC003F
FFFFFF
7FFFFE
7FFFFE
3FFFFC
1FFFF8
07FFE0
ENDCHAR
STARTCHAR 0065
ENCODING 101
SWIDTH 777 0
DWIDTH 28 0
BBX 24 24 2 0
BITMAP
07FFE0
1FFFF8
3FFFFC
7FFFFE
7FFFFE
FFFFFF
FC003F
FC003F
FC003F
FFFFFF
FFFFFE
FFFFFE
FFFFFC
FFFFF8
FFFFE0
FC0000
FC0000
FC0000
FFFFFF
7FFFFF
7FFFFF
3FFFFF
1FFFFF
07FFFF
ENDCHAR
STARTCHAR 0066
ENCODING 102
SWIDTH 750 0
DWIDTH 27 0
BBX 24 24 2 0
BITMAP
0003FF
000FFF
001FFF
003FFF
003FFF
007FFF
007E00
007E00
007E00
FFFFFF
FFFFFF
FFFFFF
FFFFFF
FFFFFF
FFFFFF
007E00
007E00
007E00
007E00
007E00
007E00
007E00
007E00
007E00
ENDCHAR
STARTCHAR 0067
ENCODING 103
SWIDTH 777 0
DWIDTH 28 0
BBX 24 24 2 0
BITMAP
07FFE0
1FFFF8
3FFFFC
7FFFFE
7FFFFE
FFFFFF
FC003F
FC003F
FC003F
FFFFFF
7FFFFF
7FFFFF
3FFFFF
1FFFFF
07FFFF
00003F
00003F
00003F
FFFFFF
FFFFFE
FFFFFE
FFFFFC
FFFFF8
FFFFE0
ENDCHAR
STARTCHAR 0068
ENCODING 104
SWIDTH 777 0
DWIDTH 28 0
BBX 24 24 2 0
BITMAP
FC0000
FC0000
FC0000
FC0000
FC0000
FC0000
FC0000
FC0000
FC0000
FFFFE0
FFFFF8
FFFFFC
FFFFFE
FFFFFE
FFFFFF
FC003F
FC003F
FC003F
FC003F
FC003F
FC003F
FC003F
FC003F
FC003F
ENDCHAR
STARTCHAR 0069
ENCODING 105
SWIDTH 750 0
DWIDTH 27 0
BBX 24 24 2 0
BITMAP
FFFFFF
FFFFFF
FFFFFF
FFFFFF
FFFFFF
FFFFFF
007E00
007E00
007E00
007E00
007E00
007E00
007E00
007E00
007E00
007E00
007E00
007E00
FFFFFF
FFFFFF
FFFFFF
FFFFFF
FFFFFF
FFFFFF
ENDCHAR
STARTCHAR 006A
ENCODING 106
SWIDTH 750 0
DWIDTH 27 0
BBX 24 24 2 0
BITMAP
FFFFFF
FFFFFF
FFFFFF
FFFFFF
FFFFFF
FFFFFF
007E00
007E00
007E00
007E00
007E00
007E00
007E00
007E00
007E00
007E00
007E00
007E00
FFFE00
FFFC00
FFFC00
FFF800
FFF000
FFC000
ENDCHAR
STARTCHAR 006B
ENCODING 107
SWIDTH 750 0
DWIDTH 27 0
BBX 24 24 2 0
BITMAP
FC001F
FC003F
FC007F
FC00FF
FC01FF
FC03FE
FC07FC
FC0FF8
FC1FF0
FC3FE0
FC7FC0
FCFF80
FDFF80
FFFFC0
FFFFE0
FFFFF0
FFFFF8
FFE7FC
FFC3FE
FF81FF
FF00FF
FE007F
FC003F
F8001F
ENDCHAR
STARTCHAR 006C
ENCODING 108
SWIDTH 750 0
DWIDTH 27 0
BBX 24 24 2 0
BITMAP
FC0000
FC0000
FC0000
FC0000
FC0000
FC0000
FC0000
FC0000
FC0000
FC0000
FC0000
FC0000
FC0000
FC0000
FC0000
FC0000
FC0000
FC0000
FFFFFF
7FFFFF
7FFFFF
3FFFFF
1FFFFF
07FFFF
ENDCHAR
STARTCHAR 006D
ENCODING 109
SWIDTH 777 0
DWIDTH 28 0
BBX 24 24 2 0
BITMAP
07FFE0
1FFFF8
3FFFFC
7FFFFE
7FFFFE
FFFFFF
FC7E3F
FC7E3F
FC7E3F
FC7E3F
FC7E3F
FC7E3F
FC7E3F
FC7E3F
FC7E3F
FC7E3F
FC7E3F
FC7E3F
FC7E3F
FC7E3F
FC7E3F
FC7E3F
FC7E3F
FC7E3F
ENDCHAR
STARTCHAR 006E
ENCODING 110
SWIDTH 777 0
DWIDTH 28 0
BBX 24 24 2 0
BITMAP
07FFE0
1FFFF8
3FFFFC
7FFFFE
7FFFFE
FFFFFF
FC003F
FC003F
FC003F
FC003F
FC003F
FC003F
FC003F
FC003F
FC003F
FC003F
FC003F
FC003F
FC003F
FC003F
FC003F
FC003F
FC003F
FC003F
ENDCHAR
STARTCHAR 006F
ENCODING 111
SWIDTH 777 0
DWIDTH 28 0
BBX 24 24 2 0
BITMAP
07FFE0
1FFFF8
3FFFFC
7FFFFE
7FFFFE
FFFFFF
FC003F
FC003F
FC003F
FC003F
FC003F
FC003F
FC003F
FC003F
FC003F
FC003F
FC003F
FC003F
FFFFFF
7FFFFE
7FFFFE
3FFFFC
1FFFF8
07FFE0
ENDCHAR
STARTCHAR 0070
ENCODING 112
SWIDTH 777 0
DWIDTH 28 0
BBX 24 24 2 0
BITMAP
07FFE0
1FFFF8
3FFFFC
7FFFFE
7FFFFE
FFFFFF
FC003F
FC003F
FC003F
FFFFFF
FFFFFE
FFFFFE
FFFFFC
FFFFF8
FFFFE0
FC0000
FC0000
FC0000
FC0000
FC0000
FC0000
FC0000
FC0000
FC0000
ENDCHAR
STARTCHAR 0071
ENCODING 113
SWIDTH 777 0
DWIDTH 28 0
BBX 24 24 2 0
BITMAP
07FFE0
1FFFF8
3FFFFC
7FFFFE
7FFFFE
FFFFFF
FC003F
FC003F
FC003F
FFFFFF
7FFFFF
7FFFFF
3FFFFF
1FFFFF
07FFFF
00003F
00003F
00003F
00003F
00003F
00003F
00003F
00003F
00003F
ENDCHAR
STARTCHAR 0072
ENCODING 114
SWIDTH 750 0
DWIDTH 27 0
BBX 24 24 2 0
BITMAP
07FFFF
1FFFFF
3FFFFF
7FFFFF
7FFFFF
FFFFFF
FC0000
FC0000
FC0000
FC0000
FC0000
FC0000
FC0000
FC0000
FC0000
FC0000
FC0000
FC0000
FC0000
FC0000
FC0000
FC0000
FC0000
FC0000
ENDCHAR
STARTCHAR 0073
ENCODING 115
SWIDTH 750 0
DWIDTH 27 0
BBX 25 24 1 0
BITMAP
003FFF80
00FFFF80
01FFFF80
03FFFF80
03FFFF80
07FFFF80
07E00000
07E00000
07E00000
07FE0000
03FF8000
03FFC000
01FFE000
00FFE000
003FF000
0003F000
0003F000
0003F000
FFFFF000
FFFFE000
FFFFE000
FFFFC000
FFFF8000
FFFE0000
ENDCHAR
STARTCHAR 0074
ENCODING 116
SWIDTH 750 0
DWIDTH 27 0
BBX 24 24 2 0
BITMAP
007E00
007E00
007E00
007E00
007E00
007E00
007E00
007E00
007E00
FFFFFF
FFFFFF
FFFFFF
FFFFFF
FFFFFF
FFFFFF
007E00
007E00
007E00
007FFF
003FFF
003FFF
001FFF
000FFF
0003FF
ENDCHAR
STARTCHAR 0075
ENCODING 117
SWIDTH 750 0
DWIDTH 27 0
BBX 24 24 2 0
BITMAP
FC0FC0
FC0FC0
FC0FC0
FC0FC0
FC0FC0
FC0FC0
FC0FC0
FC0FC0
FC0FC0
FC0FC0
FC0FC0
FC0FC0
FC0FC0
FC0FC0
FC0FC0
FC0FC0
FC0FC0
FC0FC0
FFFFFF
7FFFFF
7FFFFF
3FFFFF
1FFFFF
07FFFF
ENDCHAR
STARTCHAR 0076
ENCODING 118
SWIDTH 777 0
DWIDTH 28 0
BBX 24 24 2 0
BITMAP
F8003F
FC003F
FE003F
FF003F
FF803F
7FC03F
3FE03F
1FF03F
0FF83F
07FC3F
03FE3F
01FF3F
00FFBF
007FFF
003FFF
001FFF
000FFF
0007FF
0003FF
0001FF
0000FF
00007F
00003F
00001F
ENDCHAR
STARTCHAR 0077
ENCODING 119
SWIDTH 777 0
DWIDTH 28 0
BBX 24 24 2 0
BITMAP
FC7E3F
FC7E3F
FC7E3F
FC7E3F
FC7E3F
FC7E3F
FC7E3F
FC7E3F
FC7E3F
FC7E3F
FC7E3F
FC7E3F
FC7E3F
FC7E3F
FC7E3F
FC7E3F
FC7E3F
FC7E3F
FFFFFF
7FFFFE
7FFFFE
3FFFFC
1FFFF8
07FFE0
ENDCHAR
STARTCHAR 0078
ENCODING 120
SWIDTH 750 0
DWIDTH 27 0
BBX 24 24 2 0
BITMAP
F8001F
FC003F
FE007F
FF00FF
FF81FF
7FC3FE
3FE7FC
1FFFF8
0FFFF0
07FFE0
03FFC0
01FF80
01FF80
03FFC0
07FFE0
0FFFF0
1FFFF8
3FE7FC
7FC3FE
FF81FF
FF00FF
FE007F
FC003F
F8001F
ENDCHAR
STARTCHAR 0079
ENCODING 121
SWIDTH 777 0
DWIDTH 28 0
BBX 24 24 2 0
BITMAP
FC003F
FC003F
FC003F
FC003F
FC003F
FC003F
FC003F
FC003F
FC003F
FFFFFF
7FFFFF
7FFFFF
3FFFFF
1FFFFF
07FFFF
00003F
00003F
00003F
FFFFFF
FFFFFE
FFFFFE
FFFFFC
FFFFF8
FFFFE0
ENDCHAR
STARTCHAR 007A
ENCODING 122
SWIDTH 777 0
DWIDTH 28 0
BBX 24 24 2 0
BITMAP
FFFFE0
FFFFF8
FFFFFC
FFFFFE
FFFFFE
FFFFFF
00003F
00003F
00003F
07FFFF
1FFFFE
3FFFFE
7FFFFC
7FFFF8
FFFFE0
FC0000
FC0000
FC0000
FFFFFF
7FFFFF
7FFFFF
3FFFFF
1FFFFF
07FFFF
ENDCHAR
STARTCHAR 007B
ENCODING 123
SWIDTH 750 0
DWIDTH 27 0
BBX 18 24 5 0
BITMAP
001FC0
007FC0
00FFC0
01FFC0
01FFC0
03FFC0
03F000
03F000
03F000
FFF000
FFF000
FFF000
FFF000
FFF000
FFF000
03F000
03F000
03F000
03FFC0
01FFC0
01FFC0
00FFC0
007FC0
001FC0
ENDCHAR
STARTCHAR 007C
ENCODING 124
SWIDTH 750 0
DWIDTH 27 0
BBX 6 24 11 0
BITMAP
FC
FC
FC
FC
FC
FC
FC
FC
FC
FC
FC
FC
FC
FC
FC
FC
FC
FC
FC
FC
FC
FC
FC
FC
ENDCHAR
STARTCHAR 007D
ENCODING 125
SWIDTH 750 0
DWIDTH 27 0
BBX 18 24 5 0
BITMAP
FE0000
FF8000
FFC000
FFE000
FFE000
FFF000
03F000
03F000
03F000
03FFC0
03FFC0
03FFC0
03FFC0
03FFC0
03FFC0
03F000
03F000
03F000
FFF000
FFE000
FFE000
FFC000
FF8000
FE0000
ENDCHAR
STARTCHAR 007E
ENCODING 126
SWIDTH 777 0
DWIDTH 28 0
BBX 24 12 2 6
BITMAP
07C03F
1FF03F
3FF83F
7FFC3F
7FFE3F
FFFE3F
FC7FFF
FC7FFE
FC3FFE
FC1FFC
FC0FF8
FC03E0
ENDCHAR
STARTCHAR 00A1
ENCODING 161
SWIDTH 750 0
DWIDTH 27 0
BBX 6 24 11 0
BITMAP
FC
FC
FC
FC
FC
FC
00
00
00
FC
FC
FC
FC
FC
FC
FC
FC
FC
FC
FC
FC
FC
FC
FC
ENDCHAR
STARTCHAR 00A2
ENCODING 162
SWIDTH 750 0
DWIDTH 27 0
BBX 24 24 2 0
BITMAP
003F00
003F00
003F00
003F00
07FFFF
1FFFFF
3FFFFF
7FFFFF
7FFFFF
FFFFFF
FC0000
FC0000
FC0000
FFFFFF
7FFFFF
7FFFFF
3FFFFF
1FFFFF
07FFFF
003F00
003F00
003F00
003F00
003F00
ENDCHAR
STARTCHAR 00A8
ENCODING 168
SWIDTH 750 0
DWIDTH 27 0
BBX 15 6 6 27
BITMAP
FC7E
FC7E
FC7E
FC7E
FC7E
FC7E
ENDCHAR
STARTCHAR 00AF
ENCODING 175
SWIDTH 750 0
DWIDTH 27 0
BBX 18 6 5 27
BITMAP
FFFFC0
FFFFC0
FFFFC0
FFFFC0
FFFFC0
FFFFC0
ENDCHAR
STARTCHAR 00B0
ENCODING 176
SWIDTH 750 0
DWIDTH 27 0
BBX 15 15 6 9
BITMAP
07C0
1FF0
3FF8
7FFC
7FFC
FFFE
FC7E
FC7E
FC7E
FFFE
7FFC
7FFC
3FF8
1FF0
07C0
ENDCHAR
STARTCHAR 00B4
ENCODING 180
SWIDTH 750 0
DWIDTH 27 0
BBX 9 9 9 24
BITMAP
0F80
1F80
3F80
7F80
FF80
FF00
FE00
FC00
F800
ENDCHAR
STARTCHAR 00B6
ENCODING 182
SWIDTH 777 0
DWIDTH 28 0
BBX 24 24 2 0
BITMAP
07E03F
1FF83F
3FFC3F
7FFE3F
7FFE3F
FFFF3F
FC3F3F
FC3F3F
FC3F3F
FFFF3F
7FFF3F
7FFF3F
3FFF3F
1FFF3F
07FF3F
003F3F
003F3F
003F3F
003F3F
003F3F
003F3F
003F3F
003F3F
003F3F
ENDCHAR
STARTCHAR 00BF
ENCODING 191
SWIDTH 777 0
DWIDTH 28 0
BBX 24 24 2 0
BITMAP
007E00
007E00
007E00
007E00
007E00
007E00
007E00
007E00
007E00
07FE00
1FFC00
3FFC00
7FF800
7FF000
FFC000
FC003F
FC003F
FC003F
FFFFFF
7FFFFE
7FFFFE
3FFFFC
1FFFF8
07FFE0
ENDCHAR
STARTCHAR 00C0
ENCODING 192
SWIDTH 777 0
DWIDTH 28 0
BBX 24 33 2 0
BITMAP
01F800
01FC00
01FE00
01FF00
01FF80
00FF80
007F80
003F80
001F80
07FFE0
1FFFF8
3FFFFC
7FFFFE
7FFFFE
FFFFFF
FC003F
FC003F
FC003F
FFFFFF
FFFFFF
FFFFFF
FFFFFF
FFFFFF
FFFFFF
FC003F
FC003F
FC003F
FC003F
FC003F
FC003F
FC003F
FC003F
FC003F
ENDCHAR
STARTCHAR 00C1
ENCODING 193
SWIDTH 777 0
DWIDTH 28 0
BBX 24 33 2 0
BITMAP
001F80
003F80
007F80
00FF80
01FF80
01FF00
01FE00
01FC00
01F800
07FFE0
1FFFF8
3FFFFC
7FFFFE
7FFFFE
FFFFFF
FC003F
FC003F
FC003F
FFFFFF
FFFFFF
FFFFFF
FFFFFF
FFFFFF
FFFFFF
FC003F
FC003F
FC003F
FC003F
FC003F
FC003F
FC003F
FC003F
FC003F
ENDCHAR
STARTCHAR 00C2
ENCODING 194
SWIDTH 777 0
DWIDTH 28 0
BBX 24 33 2 0
BITMAP
00FF00
01FF80
03FFC0
07FFE0
0FFFF0
0FFFF0
0FE7F0
0FE3F0
0FC1F0
07FFE0
1FFFF8
3FFFFC
7FFFFE
7FFFFE
FFFFFF
FC003F
FC003F
FC003F
FFFFFF
FFFFFF
FFFFFF
FFFFFF
FFFFFF
FFFFFF
FC003F
FC003F
FC003F
FC003F
FC003F
FC003F
FC003F
FC003F
FC003F
ENDCHAR
STARTCHAR 00C3
ENCODING 195
SWIDTH 777 0
DWIDTH 28 0
BBX 24 33 2 0
BITMAP
03C0FC
0FF0FC
1FF8FC
1FFFFC
3FFFFC
3FFFF8
3F1FF0
3F0FF0
3F03C0
07FFE0
1FFFF8
3FFFFC
7FFFFE
7FFFFE
FFFFFF
FC003F
FC003F
FC003F
FFFFFF
FFFFFF
FFFFFF
FFFFFF
FFFFFF
FFFFFF
FC003F
FC003F
FC003F
FC003F
FC003F
FC003F
FC003F
FC003F
FC003F
ENDCHAR
STARTCHAR 00C4
ENCODING 196
SWIDTH 777 0
DWIDTH 28 0
BBX 24 33 2 0
BITMAP
0FC7E0
0FC7E0
0FC7E0
0FC7E0
0FC7E0
0FC7E0
000000
000000
000000
07FFE0
1FFFF8
3FFFFC
7FFFFE
7FFFFE
FFFFFF
FC003F
FC003F
FC003F
FFFFFF
FFFFFF
FFFFFF
FFFFFF
FFFFFF
FFFFFF
FC003F
FC003F
FC003F
FC003F
FC003F
FC003F
FC003F
FC003F
FC003F
ENDCHAR
STARTCHAR 00C5
ENCODING 197
SWIDTH 777 0
DWIDTH 28 0
BBX 24 33 2 0
BITMAP
003C00
00FF00
01FF80
03FFC0
03FFC0
07FFE0
07E7E0
07E7E0
07E7E0
07FFE0
1FFFF8
3FFFFC
7FFFFE
7FFFFE
FFFFFF
FC003F
FC003F
FC003F
FFFFFF
FFFFFF
FFFFFF
FFFFFF
FFFFFF
FFFFFF
FC003F
FC003F
FC003F
FC003F
FC003F
FC003F
FC003F
FC003F
FC003F
ENDCHAR
STARTCHAR 00C6
ENCODING 198
SWIDTH 750 0
DWIDTH 27 0
BBX 24 24 2 0
BITMAP
07FFFF
1FFFFF
3FFFFF
7FFFFF
7FFFFF
FFFFFF
FC7E00
FC7E00
FC7E00
FFFFF8
FFFFF8
FFFFF8
FFFFF8
FFFFF8
FFFFF8
FC7E00
FC7E00
FC7E00
FC7FFF
FC7FFF
FC7FFF
FC7FFF
FC7FFF
FC7FFF
ENDCHAR
STARTCHAR 00C7
ENCODING 199
SWIDTH 750 0
DWIDTH 27 0
BBX 24 24 2 0
BITMAP
07FFFF
1FFFFF
3FFFFF
7FFFFF
7FFFFF
FFFFFF
FC0000
FC0000
FC0000
FC0000
FC0000
FC0000
FC0FC0
FC0FC0
FC0FC0
FC0FC0
FC0FC0
FC0FC0
FFFFFF
7FFFFF
7FFFFF
3FFFFF
1FFFFF
07FFFF
ENDCHAR
STARTCHAR 00C8
ENCODING 200
SWIDTH 750 0
DWIDTH 27 0
BBX 24 33 2 0
BITMAP
00F800
00FC00
00FE00
00FF00
00FF80
007F80
003F80
001F80
000F80
07FFFF
1FFFFF
3FFFFF
7FFFFF
7FFFFF
FFFFFF
FC0000
FC0000
FC0000
FFFFFF
FFFFFF
FFFFFF
FFFFFF
FFFFFF
FFFFFF
FC0000
FC0000
FC0000
FFFFFF
7FFFFF
7FFFFF
3FFFFF
1FFFFF
07FFFF
ENDCHAR
STARTCHAR 00C9
ENCODING 201
SWIDTH 750 0
DWIDTH 27 0
BBX 24 33 2 0
BITMAP
0007C0
000FC0
001FC0
003FC0
007FC0
007F80
007F00
007E00
007C00
07FFFF
1FFFFF
3FFFFF
7FFFFF
7FFFFF
FFFFFF
FC0000
FC0000
FC0000
FFFFFF
FFFFFF
FFFFFF
FFFFFF
FFFFFF
FFFFFF
FC0000
FC0000
FC0000
FFFFFF
7FFFFF
7FFFFF
3FFFFF
1FFFFF
07FFFF
ENDCHAR
STARTCHAR 00CA
ENCODING 202
SWIDTH 750 0
DWIDTH 27 0
BBX 24 33 2 0
BITMAP
00FF00
01FF80
03FFC0
07FFE0
0FFFF0
0FFFF0
0FEFF0
0FC7F0
0F83F0
07FFFF
1FFFFF
3FFFFF
7FFFFF
7FFFFF
FFFFFF
FC0000
FC0000
FC0000
FFFFFF
FFFFFF
FFFFFF
FFFFFF
FFFFFF
FFFFFF
FC0000
FC0000
FC0000
FFFFFF
7FFFFF
7FFFFF
3FFFFF
1FFFFF
07FFFF
ENDCHAR
STARTCHAR 00CB
ENCODING 203
SWIDTH 750 0
DWIDTH 27 0
BBX 24 33 2 0
BITMAP
0FC7E0
0FC7E0
0FC7E0
0FC7E0
0FC7E0
0FC7E0
000000
000000
000000
07FFFF
1FFFFF
3FFFFF
7FFFFF
7FFFFF
FFFFFF
FC0000
FC0000
FC0000
FFFFFF
FFFFFF
FFFFFF
FFFFFF
FFFFFF
FFFFFF
FC0000
FC0000
FC0000
FFFFFF
7FFFFF
7FFFFF
3FFFFF
1FFFFF
07FFFF
ENDCHAR
STARTCHAR 00CC
ENCODING 204
SWIDTH 750 0
DWIDTH 27 0
BBX 24 33 2 0
BITMAP
03E000
03F000
03F800
03FC00
03FE00
01FE00
00FE00
007E00
003E00
FFFFFF
FFFFFF
FFFFFF
FFFFFF
FFFFFF
FFFFFF
007E00
007E00
007E00
007E00
007E00
007E00
007E00
007E00
007E00
007E00
007E00
007E00
FFFFFF
FFFFFF
FFFFFF
FFFFFF
FFFFFF
FFFFFF
ENDCHAR
STARTCHAR 00CD
ENCODING 205
SWIDTH 750 0
DWIDTH 27 0
BBX 24 33 2 0
BITMAP
0007C0
000FC0
001FC0
003FC0
007FC0
007F80
007F00
007E00
007C00
FFFFFF
FFFFFF
FFFFFF
FFFFFF
FFFFFF
FFFFFF
007E00
007E00
007E00
007E00
007E00
007E00
007E00
007E00
007E00
007E00
007E00
007E00
FFFFFF
FFFFFF
FFFFFF
FFFFFF
FFFFFF
FFFFFF
ENDCHAR
STARTCHAR 00CE
ENCODING 206
SWIDTH 750 0
DWIDTH 27 0
BBX 24 33 2 0
BITMAP
00FF00
01FF80
03FFC0
07FFE0
0FFFF0
0FFFF0
0FEFF0
0FC7F0
0F83F0
FFFFFF
FFFFFF
FFFFFF
FFFFFF
FFFFFF
FFFFFF
007E00
007E00
007E00
007E00
007E00
007E00
007E00
007E00
007E00
007E00
007E00
007E00
FFFFFF
FFFFFF
FFFFFF
FFFFFF
FFFFFF
FFFFFF
ENDCHAR
STARTCHAR 00CF
ENCODING 207
SWIDTH 750 0
DWIDTH 27 0
BBX 24 33 2 0
BITMAP
0FC7E0
0FC7E0
0FC7E0
0FC7E0
0FC7E0
0FC7E0
000000
000000
000000
FFFFFF
FFFFFF
FFFFFF
FFFFFF
FFFFFF
FFFFFF
007E00
007E00
007E00
007E00
007E00
007E00
007E00
007E00
007E00
007E00
007E00
007E00
FFFFFF
FFFFFF
FFFFFF
FFFFFF
FFFFFF
FFFFFF
ENDCHAR
STARTCHAR 00D0
ENCODING 208
SWIDTH 777 0
DWIDTH 28 0
BBX 24 24 2 0
BITMAP
FFFFE0
FFFFF8
FFFFFC
FFFFFE
FFFFFE
FFFFFF
1F803F
1F803F
1F803F
FFFE3F
FFFE3F
FFFE3F
FFFE3F
FFFE3F
FFFE3F
1F803F
1F803F
1F803F
FFFFFF
FFFFFE
FFFFFE
FFFFFC
FFFFF8
FFFFE0
ENDCHAR
STARTCHAR 00D1
ENCODING 209
SWIDTH 750 0
DWIDTH 27 0
BBX 23 33 2 0
BITMAP
03C0FC
0FF0FC
1FF8FC
1FFFFC
3FFFFC
3FFFF8
3F1FF0
3F0FF0
3F07C0
F8007E
FC007E
FE007E
FF007E
FF807E
FFC07E
FFE07E
FFF07E
FFF87E
FFFC7E
FFFE7E
FDFE7E
FCFF7E
FC7FFE
FC3FFE
FC1FFE
FC0FFE
FC07FE
FC03FE
FC01FE
FC01FE
FC00FE
FC007E
FC003E
ENDCHAR
STARTCHAR 00D2
ENCODING 210
SWIDTH 777 0
DWIDTH 28 0
BBX 24 33 2 0
BITMAP
01F800
01FC00
01FE00
01FF00
01FF80
00FF80
007F80
003F80
001F80
07FFE0
1FFFF8
3FFFFC
7FFFFE
7FFFFE
FFFFFF
FC003F
FC003F
FC003F
FC003F
FC003F
FC003F
FC003F
FC003F
FC003F
FC003F
FC003F
FC003F
FFFFFF
7FFFFE
7FFFFE
3FFFFC
1FFFF8
07FFE0
ENDCHAR
STARTCHAR 00D3
ENCODING 211
SWIDTH 777 0
DWIDTH 28 0
BBX 24 33 2 0
BITMAP
001F80
003F80
007F80
00FF80
01FF80
01FF00
01FE00
01FC00
01F800
07FFE0
1FFFF8
3FFFFC
7FFFFE
7FFFFE
FFFFFF
FC003F
FC003F
FC003F
FC003F
FC003F
FC003F
FC003F
FC003F
FC003F
FC003F
FC003F
FC003F
FFFFFF
7FFFFE
7FFFFE
3FFFFC
1FFFF8
07FFE0
ENDCHAR
STARTCHAR 00D4
ENCODING 212
SWIDTH 777 0
DWIDTH 28 0
BBX 24 33 2 0
BITMAP
00FF00
01FF80
03FFC0
07FFE0
0FFFF0
0FFFF0
0FE7F0
0FE3F0
0FC1F0
07FFE0
1FFFF8
3FFFFC
7FFFFE
7FFFFE
FFFFFF
FC003F
FC003F
FC003F
FC003F
FC003F
FC003F
FC003F
FC003F
FC003F
FC003F
FC003F
FC003F
FFFFFF
7FFFFE
7FFFFE
3FFFFC
1FFFF8
07FFE0
ENDCHAR
STARTCHAR 00D5
ENCODING 213
SWIDTH 777 0
DWIDTH 28 0
BBX 24 33 2 0
BITMAP
03C0FC
0FF0FC
1FF8FC
1FFFFC
3FFFFC
3FFFF8
3F1FF0
3F0FF0
3F03C0
07FFE0
1FFFF8
3FFFFC
7FFFFE
7FFFFE
FFFFFF
FC003F
FC003F
FC003F
FC003F
FC003F
FC003F
FC003F
FC003F
FC003F
FC003F
FC003F
FC003F
FFFFFF
7FFFFE
7FFFFE
3FFFFC
1FFFF8
07FFE0
ENDCHAR
STARTCHAR 00D6
ENCODING 214
SWIDTH 777 0
DWIDTH 28 0
BBX 24 33 2 0
BITMAP
0FC7E0
0FC7E0
0FC7E0
0FC7E0
0FC7E0
0FC7E0
000000
000000
000000
07FFE0
1FFFF8
3FFFFC
7FFFFE
7FFFFE
FFFFFF
FC003F
FC003F
FC003F
FC003F
FC003F
FC003F
FC003F
FC003F
FC003F
FC003F
FC003F
FC003F
FFFFFF
7FFFFE
7FFFFE
3FFFFC
1FFFF8
07FFE0
ENDCHAR
STARTCHAR 00D7
ENCODING 215
SWIDTH 750 0
DWIDTH 27 0
BBX 21 21 3 2
BITMAP
F800F8
FC01F8
FE03F8
FF07F8
FF8FF8
7FDFF0
3FFFE0
1FFFC0
0FFF80
07FF00
03FE00
07FF00
0FFF80
1FFFC0
3FFFE0
7FDFF0
FF8FF8
FF07F8
FE03F8
FC01F8
F800F8
ENDCHAR
STARTCHAR 00D8
ENCODING 216
SWIDTH 777 0
DWIDTH 28 0
BBX 24 24 2 0
BITMAP
07FFE0
1FFFF8
3FFFFC
7FFFFE
7FFFFE
FFFFFF
FC07FF
FC0FFF
FC1FFF
FC3FFF
FC7FFF
FCFFBF
FDFF3F
FFFE3F
FFFC3F
FFF83F
FFF03F
FFE03F
FFFFFF
7FFFFE
7FFFFE
3FFFFC
1FFFF8
07FFE0
ENDCHAR
STARTCHAR 00D9
ENCODING 217
SWIDTH 777 0
DWIDTH 28 0
BBX 24 33 2 0
BITMAP
01F000
01F800
01FC00
01FE00
01FF00
00FF00
007F00
003F00
001F00
FC003F
FC003F
FC003F
FC003F
FC003F
FC003F
FC003F
FC003F
FC003F
FC003F
FC003F
FC003F
FC003F
FC003F
FC003F
FC003F
FC003F
FC003F
FFFFFF
7FFFFE
7FFFFE
3FFFFC
1FFFF8
07FFE0
ENDCHAR
STARTCHAR 00DA
ENCODING 218
SWIDTH 777 0
DWIDTH 28 0
BBX 24 33 2 0
BITMAP
001F00
003F00
007F00
00FF00
01FF00
01FE00
01FC00
01F800
01F000
FC003F
FC003F
FC003F
FC003F
FC003F
FC003F
FC003F
FC003F
FC003F
FC003F
FC003F
FC003F
FC003F
FC003F
FC003F
FC003F
FC003F
FC003F
FFFFFF
7FFFFE
7FFFFE
3FFFFC
1FFFF8
07FFE0
ENDCHAR
STARTCHAR 00DB
ENCODING 219
SWIDTH 777 0
DWIDTH 28 0
BBX 24 33 2 0
BITMAP
00FF00
01FF80
03FFC0
07FFE0
0FFFF0
0FFFF0
0FE7F0
0FC3F0
0F81F0
FC003F
FC003F
FC003F
FC003F
FC003F
FC003F
FC003F
FC003F
FC003F
FC003F
FC003F
FC003F
FC003F
FC003F
FC003F
FC003F
FC003F
FC003F
FFFFFF
7FFFFE
7FFFFE
3FFFFC
1FFFF8
07FFE0
ENDCHAR
STARTCHAR 00DC
ENCODING 220
SWIDTH 777 0
DWIDTH 28 0
BBX 24 33 2 0
BITMAP
0FC7E0
0FC7E0
0FC7E0
0FC7E0
0FC7E0
0FC7E0
000000
000000
000000
FC003F
FC003F
FC003F
FC003F
FC003F
FC003F
FC003F
FC003F
FC003F
FC003F
FC003F
FC003F
FC003F
FC003F
FC003F
FC003F
FC003F
FC003F
FFFFFF
7FFFFE
7FFFFE
3FFFFC
1FFFF8
07FFE0
ENDCHAR
STARTCHAR 00DD
ENCODING 221
SWIDTH 750 0
DWIDTH 27 0
BBX 24 33 2 0
BITMAP
001F00
003F00
007F00
00FF00
01FF00
01FE00
01FC00
01F800
01F000
F8001F
FC003F
FE007F
FF00FF
FF81FF
7FC3FE
3FE7FC
1FFFF8
0FFFF0
07FFE0
03FFC0
01FF80
00FF00
007E00
007E00
007E00
007E00
007E00
007E00
007E00
007E00
007E00
007E00
007E00
ENDCHAR
STARTCHAR 00DE
ENCODING 222
SWIDTH 777 0
DWIDTH 28 0
BBX 24 24 2 0
BITMAP
FC0000
FC0000
FC0000
FC0000
FFFFE0
FFFFF8
FFFFFC
FFFFFE
FFFFFE
FFFFFF
FC003F
FC003F
FC003F
FFFFFF
FFFFFE
FFFFFE
FFFFFC
FFFFF8
FFFFE0
FC0000
FC0000
FC0000
FC0000
FC0000
ENDCHAR
STARTCHAR 00DF
ENCODING 223
SWIDTH 777 0
DWIDTH 28 0
BBX 24 24 2 0
BITMAP
07FFE0
1FFFF8
3FFFFC
7FFFFE
7FFFFE
FFFFFF
FC003F
FC003F
FC003F
FC7FFF
FC7FFF
FC7FFF
FC7FFF
FC7FFF
FC7FFF
FC003F
FC003F
FC003F
FC7FFF
FC7FFE
FC7FFE
FC7FFC
FC7FF8
FC7FE0
ENDCHAR
STARTCHAR 00E0
ENCODING 224
SWIDTH 777 0
DWIDTH 28 0
BBX 24 33 2 0
BITMAP
01F800
01FC00
01FE00
01FF00
01FF80
00FF80
007F80
003F80
001F80
FFFFE0
FFFFF8
FFFFFC
FFFFFE
FFFFFE
FFFFFF
00003F
00003F
00003F
07FFFF
1FFFFF
3FFFFF
7FFFFF
7FFFFF
FFFFFF
FC003F
FC003F
FC003F
FFFFFF
7FFFFE
7FFFFE
3FFFFC
1FFFF8
07FFE0
ENDCHAR
STARTCHAR 00E1
ENCODING 225
SWIDTH 777 0
DWIDTH 28 0
BBX 24 33 2 0
BITMAP
001F80
003F80
007F80
00FF80
01FF80
01FF00
01FE00
01FC00
01F800
FFFFE0
FFFFF8
FFFFFC
FFFFFE
FFFFFE
FFFFFF
00003F
00003F
00003F
07FFFF
1FFFFF
3FFFFF
7FFFFF
7FFFFF
FFFFFF
FC003F
FC003F
FC003F
FFFFFF
7FFFFE
7FFFFE
3FFFFC
1FFFF8
07FFE0
ENDCHAR
STARTCHAR 00E2
ENCODING 226
SWIDTH 777 0
DWIDTH 28 0
BBX 24 33 2 0
BITMAP
00FF00
01FF80
03FFC0
07FFE0
0FFFF0
0FFFF0
0FE7F0
0FE3F0
0FC1F0
FFFFE0
FFFFF8
FFFFFC
FFFFFE
FFFFFE
FFFFFF
00003F
00003F
00003F
07FFFF
1FFFFF
3FFFFF
7FFFFF
7FFFFF
FFFFFF
FC003F
FC003F
FC003F
FFFFFF
7FFFFE
7FFFFE
3FFFFC
1FFFF8
07FFE0
ENDCHAR
STARTCHAR 00E3
ENCODING 227
SWIDTH 777 0
DWIDTH 28 0
BBX 24 33 2 0
BITMAP
0F81F8
1FE1F8
3FF1F8
7FFFF8
7FFFF0
FFFFF0
FC7FE0
FC3FC0
FC0F80
FFFFE0
FFFFF8
FFFFFC
FFFFFE
FFFFFE
FFFFFF
00003F
00003F
00003F
07FFFF
1FFFFF
3FFFFF
7FFFFF
7FFFFF
FFFFFF
FC003F
FC003F
FC003F
FFFFFF
7FFFFE
7FFFFE
3FFFFC
1FFFF8
07FFE0
ENDCHAR
STARTCHAR 00E4
ENCODING 228
SWIDTH 777 0
DWIDTH 28 0
BBX 24 33 2 0
BITMAP
0FC7E0
0FC7E0
0FC7E0
0FC7E0
0FC7E0
0FC7E0
000000
000000
000000
FFFFE0
FFFFF8
FFFFFC
FFFFFE
FFFFFE
FFFFFF
00003F
00003F
00003F
07FFFF
1FFFFF
3FFFFF
7FFFFF
7FFFFF
FFFFFF
FC003F
FC003F
FC003F
FFFFFF
7FFFFE
7FFFFE
3FFFFC
1FFFF8
07FFE0
ENDCHAR
STARTCHAR 00E5
ENCODING 229
SWIDTH 777 0
DWIDTH 28 0
BBX 24 33 2 0
BITMAP
003C00
00FF00
01FF80
03FFC0
03FFC0
07FFE0
07E7E0
07E7E0
07E7E0
FFFFE0
FFFFF8
FFFFFC
FFFFFE
FFFFFE
FFFFFF
00003F
00003F
00003F
07FFFF
1FFFFF
3FFFFF
7FFFFF
7FFFFF
FFFFFF
FC003F
FC003F
FC003F
FFFFFF
7FFFFE
7FFFFE
3FFFFC
1FFFF8
07FFE0
ENDCHAR
STARTCHAR 00E6
ENCODING 230
SWIDTH 777 0
DWIDTH 28 0
BBX 24 24 2 0
BITMAP
FFC3E0
FFFFF8
FFFFFC
FFFFFE
FFFFFE
FFFFFF
007E3F
007E3F
007E3F
07FFFF
1FFFFE
3FFFFE
7FFFFC
7FFFF8
FFFFE0
FC7E00
FC7E00
FC7E00
FFFFFF
7FFFFF
7FFFFF
3FFFFF
1FFFFF
07C3FF
ENDCHAR
STARTCHAR 00E7
ENCODING 231
SWIDTH 750 0
DWIDTH 27 0
BBX 24 24 2 0
BITMAP
07FFFF
1FFFFF
3FFFFF
7FFFFF
7FFFFF
FFFFFF
FC0000
FC0000
FC0000
FC0000
FC0000
FC0000
FC0FC0
FC0FC0
FC0FC0
FC0FC0
FC0FC0
FC0FC0
FFFFFF
7FFFFF
7FFFFF
3FFFFF
1FFFFF
07FFFF
ENDCHAR
STARTCHAR 00E8
ENCODING 232
SWIDTH 777 0
DWIDTH 28 0
BBX 24 33 2 0
BITMAP
01F800
01FC00
01FE00
01FF00
01FF80
00FF80
007F80
003F80
001F80
07FFE0
1FFFF8
3FFFFC
7FFFFE
7FFFFE
FFFFFF
FC003F
FC003F
FC003F
FFFFFF
FFFFFE
FFFFFE
FFFFFC
FFFFF8
FFFFE0
FC0000
FC0000
FC0000
FFFFFF
7FFFFF
7FFFFF
3FFFFF
1FFFFF
07FFFF
ENDCHAR
STARTCHAR 00E9
ENCODING 233
SWIDTH 777 0
DWIDTH 28 0
BBX 24 33 2 0
BITMAP
001F80
003F80
007F80
00FF80
01FF80
01FF00
01FE00
01FC00
01F800
07FFE0
1FFFF8
3FFFFC
7FFFFE
7FFFFE
FFFFFF
FC003F
FC003F
FC003F
FFFFFF
FFFFFE
FFFFFE
FFFFFC
FFFFF8
FFFFE0
FC0000
FC0000
FC0000
FFFFFF
7FFFFF
7FFFFF
3FFFFF
1FFFFF
07FFFF
ENDCHAR
STARTCHAR 00EA
ENCODING 234
SWIDTH 777 0
DWIDTH 28 0
BBX 24 33 2 0
BITMAP
00FF00
01FF80
03FFC0
07FFE0
0FFFF0
0FFFF0
0FE7F0
0FE3F0
0FC1F0
07FFE0
1FFFF8
3FFFFC
7FFFFE
7FFFFE
FFFFFF
FC003F
FC003F
FC003F
FFFFFF
FFFFFE
FFFFFE
FFFFFC
FFFFF8
FFFFE0
FC0000
FC0000
FC0000
FFFFFF
7FFFFF
7FFFFF
3FFFFF
1FFFFF
07FFFF
ENDCHAR
STARTCHAR 00EB
ENCODING 235
SWIDTH 777 0
DWIDTH 28 0
BBX 24 33 2 0
BITMAP
0FC7E0
0FC7E0
0FC7E0
0FC7E0
0FC7E0
0FC7E0
000000
000000
000000
07FFE0
1FFFF8
3FFFFC
7FFFFE
7FFFFE
FFFFFF
FC003F
FC003F
FC003F
FFFFFF
FFFFFE
FFFFFE
FFFFFC
FFFFF8
FFFFE0
FC0000
FC0000
FC0000
FFFFFF
7FFFFF
7FFFFF
3FFFFF
1FFFFF
07FFFF
ENDCHAR
STARTCHAR 00EC
ENCODING 236
SWIDTH 750 0
DWIDTH 27 0
BBX 24 33 2 0
BITMAP
03E000
03F000
03F800
03FC00
03FE00
01FE00
00FE00
007E00
003E00
FFFFFF
FFFFFF
FFFFFF
FFFFFF
FFFFFF
FFFFFF
007E00
007E00
007E00
007E00
007E00
007E00
007E00
007E00
007E00
007E00
007E00
007E00
FFFFFF
FFFFFF
FFFFFF
FFFFFF
FFFFFF
FFFFFF
ENDCHAR
STARTCHAR 00ED
ENCODING 237
SWIDTH 750 0
DWIDTH 27 0
BBX 24 33 2 0
BITMAP
0007C0
000FC0
001FC0
003FC0
007FC0
007F80
007F00
007E00
007C00
FFFFFF
FFFFFF
FFFFFF
FFFFFF
FFFFFF
FFFFFF
007E00
007E00
007E00
007E00
007E00
007E00
007E00
007E00
007E00
007E00
007E00
007E00
FFFFFF
FFFFFF
FFFFFF
FFFFFF
FFFFFF
FFFFFF
ENDCHAR
STARTCHAR 00EE
ENCODING 238
SWIDTH 750 0
DWIDTH 27 0
BBX 24 33 2 0
BITMAP
00FF00
01FF80
03FFC0
07FFE0
0FFFF0
0FFFF0
0FEFF0
0FC7F0
0F83F0
FFFFFF
FFFFFF
FFFFFF
FFFFFF
FFFFFF
FFFFFF
007E00
007E00
007E00
007E00
007E00
007E00
007E00
007E00
007E00
007E00
007E00
007E00
FFFFFF
FFFFFF
FFFFFF
FFFFFF
FFFFFF
FFFFFF
ENDCHAR
STARTCHAR 00EF
ENCODING 239
SWIDTH 750 0
DWIDTH 27 0
BBX 24 33 2 0
BITMAP
0FC7E0
0FC7E0
0FC7E0
0FC7E0
0FC7E0
0FC7E0
000000
000000
000000
FFFFFF
FFFFFF
FFFFFF
FFFFFF
FFFFFF
FFFFFF
007E00
007E00
007E00
007E00
007E00
007E00
007E00
007E00
007E00
007E00
007E00
007E00
FFFFFF
FFFFFF
FFFFFF
FFFFFF
FFFFFF
FFFFFF
ENDCHAR
STARTCHAR 00F0
ENCODING 240
SWIDTH 777 0
DWIDTH 28 0
BBX 24 24 2 0
BITMAP
FFFFE0
FFFFF8
FFFFFC
FFFFFE
FFFFFE
FFFFFF
1F803F
1F803F
1F803F
FFFE3F
FFFE3F
FFFE3F
FFFE3F
FFFE3F
FFFE3F
1F803F
1F803F
1F803F
FFFFFF
FFFFFE
FFFFFE
FFFFFC
FFFFF8
FFFFE0
ENDCHAR
STARTCHAR 00F1
ENCODING 241
SWIDTH 777 0
DWIDTH 28 0
BBX 24 33 2 0
BITMAP
03C0FC
0FF0FC
1FF8FC
1FFFFC
3FFFFC
3FFFF8
3F1FF0
3F0FF0
3F03C0
07FFE0
1FFFF8
3FFFFC
7FFFFE
7FFFFE
FFFFFF
FC003F
FC003F
FC003F
FC003F
FC003F
FC003F
FC003F
FC003F
FC003F
FC003F
FC003F
FC003F
FC003F
FC003F
FC003F
FC003F
FC003F
FC003F
ENDCHAR
STARTCHAR 00F2
ENCODING 242
SWIDTH 777 0
DWIDTH 28 0
BBX 24 33 2 0
BITMAP
01F800
01FC00
01FE00
01FF00
01FF80
00FF80
007F80
003F80
001F80
07FFE0
1FFFF8
3FFFFC
7FFFFE
7FFFFE
FFFFFF
FC003F
FC003F
FC003F
FC003F
FC003F
FC003F
FC003F
FC003F
FC003F
FC003F
FC003F
FC003F
FFFFFF
7FFFFE
7FFFFE
3FFFFC
1FFFF8
07FFE0
ENDCHAR
STARTCHAR 00F3
ENCODING 243
SWIDTH 777 0
DWIDTH 28 0
BBX 24 33 2 0
BITMAP
001F80
003F80
007F80
00FF80
01FF80
01FF00
01FE00
01FC00
01F800
07FFE0
1FFFF8
3FFFFC
7FFFFE
7FFFFE
FFFFFF
FC003F
FC003F
FC003F
FC003F
FC003F
FC003F
FC003F
FC003F
FC003F
FC003F
FC003F
FC003F
FFFFFF
7FFFFE
7FFFFE
3FFFFC
1FFFF8
07FFE0
ENDCHAR
STARTCHAR 00F4
ENCODING 244
SWIDTH 777 0
DWIDTH 28 0
BBX 24 33 2 0
BITMAP
00FF00
01FF80
03FFC0
07FFE0
0FFFF0
0FFFF0
0FE7F0
0FE3F0
0FC1F0
07FFE0
1FFFF8
3FFFFC
7FFFFE
7FFFFE
FFFFFF
FC003F
FC003F
FC003F
FC003F
FC003F
FC003F
FC003F
FC003F
FC003F
FC003F
FC003F
FC003F
FFFFFF
7FFFFE
7FFFFE
3FFFFC
1FFFF8
07FFE0
ENDCHAR
STARTCHAR 00F5
ENCODING 245
SWIDTH 777 0
DWIDTH 28 0
BBX 24 33 2 0
BITMAP
03C0FC
0FF0FC
1FF8FC
1FFFFC
3FFFFC
3FFFF8
3F1FF0
3F0FF0
3F03C0
07FFE0
1FFFF8
3FFFFC
7FFFFE
7FFFFE
FFFFFF
FC003F
FC003F
FC003F
FC003F
FC003F
FC003F
FC003F
FC003F
FC003F
FC003F
FC003F
FC003F
FFFFFF
7FFFFE
7FFFFE
3FFFFC
1FFFF8
07FFE0
ENDCHAR
STARTCHAR 00F6
ENCODING 246
SWIDTH 777 0
DWIDTH 28 0
BBX 24 33 2 0
BITMAP
0FC7E0
0FC7E0
0FC7E0
0FC7E0
0FC7E0
0FC7E0
000000
000000
000000
07FFE0
1FFFF8
3FFFFC
7FFFFE
7FFFFE
FFFFFF
FC003F
FC003F
FC003F
FC003F
FC003F
FC003F
FC003F
FC003F
FC003F
FC003F
FC003F
FC003F
FFFFFF
7FFFFE
7FFFFE
3FFFFC
1FFFF8
07FFE0
ENDCHAR
STARTCHAR 00F7
ENCODING 247
SWIDTH 750 0
DWIDTH 27 0
BBX 24 24 2 0
BITMAP
007E00
007E00
007E00
007E00
007E00
007E00
000000
000000
000000
FFFFFF
FFFFFF
FFFFFF
FFFFFF
FFFFFF
FFFFFF
000000
000000
000000
007E00
007E00
007E00
007E00
007E00
007E00
ENDCHAR
STARTCHAR 00F8
ENCODING 248
SWIDTH 777 0
DWIDTH 28 0
BBX 24 24 2 0
BITMAP
07FFE0
1FFFF8
3FFFFC
7FFFFE
7FFFFE
FFFFFF
FC07FF
FC0FFF
FC1FFF
FC3FFF
FC7FFF
FCFFBF
FDFF3F
FFFE3F
FFFC3F
FFF83F
FFF03F
FFE03F
FFFFFF
7FFFFE
7FFFFE
3FFFFC
1FFFF8
07FFE0
ENDCHAR
STARTCHAR 00F9
ENCODING 249
SWIDTH 750 0
DWIDTH 27 0
BBX 24 33 2 0
BITMAP
1F0000
1F8000
1FC000
1FE000
1FF000
0FF000
07F000
03F000
01F000
FC0FC0
FC0FC0
FC0FC0
FC0FC0
FC0FC0
FC0FC0
FC0FC0
FC0FC0
FC0FC0
FC0FC0
FC0FC0
FC0FC0
FC0FC0
FC0FC0
FC0FC0
FC0FC0
FC0FC0
FC0FC0
FFFFFF
7FFFFF
7FFFFF
3FFFFF
1FFFFF
07FFFF
ENDCHAR
STARTCHAR 00FA
ENCODING 250
SWIDTH 750 0
DWIDTH 27 0
BBX 24 33 2 0
BITMAP
003E00
007E00
00FE00
01FE00
03FE00
03FC00
03F800
03F000
03E000
FC0FC0
FC0FC0
FC0FC0
FC0FC0
FC0FC0
FC0FC0
FC0FC0
FC0FC0
FC0FC0
FC0FC0
FC0FC0
FC0FC0
FC0FC0
FC0FC0
FC0FC0
FC0FC0
FC0FC0
FC0FC0
FFFFFF
7FFFFF
7FFFFF
3FFFFF
1FFFFF
07FFFF
ENDCHAR
STARTCHAR 00FB
ENCODING 251
SWIDTH 750 0
DWIDTH 27 0
BBX 24 33 2 0
BITMAP
07F800
0FFC00
1FFE00
3FFF00
7FFF80
7FFF80
7F3F80
7E1F80
7C0F80
FC0FC0
FC0FC0
FC0FC0
FC0FC0
FC0FC0
FC0FC0
FC0FC0
FC0FC0
FC0FC0
FC0FC0
FC0FC0
FC0FC0
FC0FC0
FC0FC0
FC0FC0
FC0FC0
FC0FC0
FC0FC0
FFFFFF
7FFFFF
7FFFFF
3FFFFF
1FFFFF
07FFFF
ENDCHAR
STARTCHAR 00FC
ENCODING 252
SWIDTH 750 0
DWIDTH 27 0
BBX 24 33 2 0
BITMAP
7E3F00
7E3F00
7E3F00
7E3F00
7E3F00
7E3F00
000000
000000
000000
FC0FC0
FC0FC0
FC0FC0
FC0FC0
FC0FC0
FC0FC0
FC0FC0
FC0FC0
FC0FC0
FC0FC0
FC0FC0
FC0FC0
FC0FC0
FC0FC0
FC0FC0
FC0FC0
FC0FC0
FC0FC0
FFFFFF
7FFFFF
7FFFFF
3FFFFF
1FFFFF
07FFFF
ENDCHAR
STARTCHAR 00FD
ENCODING 253
SWIDTH 777 0
DWIDTH 28 0
BBX 24 33 2 0
BITMAP
001F00
003F00
007F00
00FF00
01FF00
01FE00
01FC00
01F800
01F000
FC003F
FC003F
FC003F
FC003F
FC003F
FC003F
FC003F
FC003F
FC003F
FFFFFF
7FFFFF
7FFFFF
3FFFFF
1FFFFF
07FFFF
00003F
00003F
00003F
FFFFFF
FFFFFE
FFFFFE
FFFFFC
FFFFF8
FFFFE0
ENDCHAR
STARTCHAR 00FE
ENCODING 254
SWIDTH 777 0
DWIDTH 28 0
BBX 24 24 2 0
BITMAP
FC0000
FC0000
FC0000
FC0000
FFFFE0
FFFFF8
FFFFFC
FFFFFE
FFFFFE
FFFFFF
FC003F
FC003F
FC003F
FFFFFF
FFFFFE
FFFFFE
FFFFFC
FFFFF8
FFFFE0
FC0000
FC0000
FC0000
FC0000
FC0000
ENDCHAR
STARTCHAR 00FF
ENCODING 255
SWIDTH 777 0
DWIDTH 28 0
BBX 24 33 2 0
BITMAP
0FC7E0
0FC7E0
0FC7E0
0FC7E0
0FC7E0
0FC7E0
000000
000000
000000
FC003F
FC003F
FC003F
FC003F
FC003F
FC003F
FC003F
FC003F
FC003F
FFFFFF
7FFFFF
7FFFFF
3FFFFF
1FFFFF
07FFFF
00003F
00003F
00003F
FFFFFF
FFFFFE
FFFFFE
FFFFFC
FFFFF8
FFFFE0
ENDCHAR
STARTCHAR 0100
ENCODING 256
SWIDTH 777 0
DWIDTH 28 0
BBX 24 33 2 0
BITMAP
1FFFF8
1FFFF8
1FFFF8
1FFFF8
1FFFF8
1FFFF8
000000
000000
000000
07FFE0
1FFFF8
3FFFFC
7FFFFE
7FFFFE
FFFFFF
FC003F
FC003F
FC003F
FFFFFF
FFFFFF
FFFFFF
FFFFFF
FFFFFF
FFFFFF
FC003F
FC003F
FC003F
FC003F
FC003F
FC003F
FC003F
FC003F
FC003F
ENDCHAR
STARTCHAR 0101
ENCODING 257
SWIDTH 777 0
DWIDTH 28 0
BBX 24 33 2 0
BITMAP
1FFFF8
1FFFF8
1FFFF8
1FFFF8
1FFFF8
1FFFF8
000000
000000
000000
FFFFE0
FFFFF8
FFFFFC
FFFFFE
FFFFFE
FFFFFF
00003F
00003F
00003F
07FFFF
1FFFFF
3FFFFF
7FFFFF
7FFFFF
FFFFFF
FC003F
FC003F
FC003F
FFFFFF
7FFFFE
7FFFFE
3FFFFC
1FFFF8
07FFE0
ENDCHAR
STARTCHAR 0106
ENCODING 262
SWIDTH 750 0
DWIDTH 27 0
BBX 24 33 2 0
BITMAP
000F80
001F80
003F80
007F80
00FF80
00FF00
00FE00
00FC00
00F800
07FFFF
1FFFFF
3FFFFF
7FFFFF
7FFFFF
FFFFFF
FC0000
FC0000
FC0000
FC0000
FC0000
FC0000
FC0000
FC0000
FC0000
FC0000
FC0000
FC0000
FFFFFF
7FFFFF
7FFFFF
3FFFFF
1FFFFF
07FFFF
ENDCHAR
STARTCHAR 0107
ENCODING 263
SWIDTH 750 0
DWIDTH 27 0
BBX 24 33 2 0
BITMAP
000F80
001F80
003F80
007F80
00FF80
00FF00
00FE00
00FC00
00F800
07FFFF
1FFFFF
3FFFFF
7FFFFF
7FFFFF
FFFFFF
FC0000
FC0000
FC0000
FC0000
FC0000
FC0000
FC0000
FC0000
FC0000
FC0000
FC0000
FC0000
FFFFFF
7FFFFF
7FFFFF
3FFFFF
1FFFFF
07FFFF
ENDCHAR
STARTCHAR 0108
ENCODING 264
SWIDTH 750 0
DWIDTH 27 0
BBX 24 33 2 0
BITMAP
00FF00
01FF80
03FFC0
07FFE0
0FFFF0
0FFFF0
0FEFF0
0FC7F0
0F83F0
07FFFF
1FFFFF
3FFFFF
7FFFFF
7FFFFF
FFFFFF
FC0000
FC0000
FC0000
FC0000
FC0000
FC0000
FC0000
FC0000
FC0000
FC0000
FC0000
FC0000
FFFFFF
7FFFFF
7FFFFF
3FFFFF
1FFFFF
07FFFF
ENDCHAR
STARTCHAR 0109
ENCODING 265
SWIDTH 750 0
DWIDTH 27 0
BBX 24 33 2 0
BITMAP
00FF00
01FF80
03FFC0
07FFE0
0FFFF0
0FFFF0
0FEFF0
0FC7F0
0F83F0
07FFFF
1FFFFF
3FFFFF
7FFFFF
7FFFFF
FFFFFF
FC0000
FC0000
FC0000
FC0000
FC0000
FC0000
FC0000
FC0000
FC0000
FC0000
FC0000
FC0000
FFFFFF
7FFFFF
7FFFFF
3FFFFF
1FFFFF
07FFFF
ENDCHAR
STARTCHAR 010A
ENCODING 266
SWIDTH 750 0
DWIDTH 27 0
BBX 24 33 2 0
BITMAP
007E00
007E00
007E00
007E00
007E00
007E00
000000
000000
000000
07FFFF
1FFFFF
3FFFFF
7FFFFF
7FFFFF
FFFFFF
FC0000
FC0000
FC0000
FC0000
FC0000
FC0000
FC0000
FC0000
FC0000
FC0000
FC0000
FC0000
FFFFFF
7FFFFF
7FFFFF
3FFFFF
1FFFFF
07FFFF
ENDCHAR
STARTCHAR 010B
ENCODING 267
SWIDTH 750 0
DWIDTH 27 0
BBX 24 33 2 0
BITMAP
007E00
007E00
007E00
007E00
007E00
007E00
000000
000000
000000
07FFFF
1FFFFF
3FFFFF
7FFFFF
7FFFFF
FFFFFF
FC0000
FC0000
FC0000
FC0000
FC0000
FC0000
FC0000
FC0000
FC0000
FC0000
FC0000
FC0000
FFFFFF
7FFFFF
7FFFFF
3FFFFF
1FFFFF
07FFFF
ENDCHAR
STARTCHAR 010C
ENCODING 268
SWIDTH 750 0
DWIDTH 27 0
BBX 24 33 2 0
BITMAP
0FC1F0
0FE3F0
0FF7F0
0FFFF0
0FFFF0
03FFE0
01FFC0
00FF80
007F00
07FFFF
1FFFFF
3FFFFF
7FFFFF
7FFFFF
FFFFFF
FC0000
FC0000
FC0000
FC0000
FC0000
FC0000
FC0000
FC0000
FC0000
FC0000
FC0000
FC0000
FFFFFF
7FFFFF
7FFFFF
3FFFFF
1FFFFF
07FFFF
ENDCHAR
STARTCHAR 010D
ENCODING 269
SWIDTH 750 0
DWIDTH 27 0
BBX 24 33 2 0
BITMAP
0FC1F0
0FE3F0
0FF7F0
0FFFF0
0FFFF0
03FFE0
01FFC0
00FF80
007F00
07FFFF
1FFFFF
3FFFFF
7FFFFF
7FFFFF
FFFFFF
FC0000
FC0000
FC0000
FC0000
FC0000
FC0000
FC0000
FC0000
FC0000
FC0000
FC0000
FC0000
FFFFFF
7FFFFF
7FFFFF
3FFFFF
1FFFFF
07FFFF
ENDCHAR
STARTCHAR 010E
ENCODING 270
SWIDTH 777 0
DWIDTH 28 0
BBX 24 33 2 0
BITMAP
0FC3F0
0FC7F0
0FE7F0
0FFFF0
0FFFF0
07FFE0
03FFC0
01FF80
00FF00
FFFFE0
FFFFF8
FFFFFC
FFFFFE
FFFFFE
FFFFFF
1F803F
1F803F
1F803F
1F803F
1F803F
1F803F
1F803F
1F803F
1F803F
1F803F
1F803F
1F803F
FFFFFF
FFFFFE
FFFFFE
FFFFFC
FFFFF8
FFFFE0
ENDCHAR
STARTCHAR 0112
ENCODING 274
SWIDTH 750 0
DWIDTH 27 0
BBX 24 33 2 0
BITMAP
1FFFF8
1FFFF8
1FFFF8
1FFFF8
1FFFF8
1FFFF8
000000
000000
000000
07FFFF
1FFFFF
3FFFFF
7FFFFF
7FFFFF
FFFFFF
FC0000
FC0000
FC0000
FFFFFF
FFFFFF
FFFFFF
FFFFFF
FFFFFF
FFFFFF
FC0000
FC0000
FC0000
FFFFFF
7FFFFF
7FFFFF
3FFFFF
1FFFFF
07FFFF
ENDCHAR
STARTCHAR 0113
ENCODING 275
SWIDTH 777 0
DWIDTH 28 0
BBX 24 33 2 0
BITMAP
1FFFF8
1FFFF8
1FFFF8
1FFFF8
1FFFF8
1FFFF8
000000
000000
000000
07FFE0
1FFFF8
3FFFFC
7FFFFE
7FFFFE
FFFFFF
FC003F
FC003F
FC003F
FFFFFF
FFFFFE
FFFFFE
FFFFFC
FFFFF8
FFFFE0
FC0000
FC0000
FC0000
FFFFFF
7FFFFF
7FFFFF
3FFFFF
1FFFFF
07FFFF
ENDCHAR
STARTCHAR 0116
ENCODING 278
SWIDTH 750 0
DWIDTH 27 0
BBX 24 33 2 0
BITMAP
007E00
007E00
007E00
007E00
007E00
007E00
000000
000000
000000
07FFFF
1FFFFF
3FFFFF
7FFFFF
7FFFFF
FFFFFF
FC0000
FC0000
FC0000
FFFFFF
FFFFFF
FFFFFF
FFFFFF
FFFFFF
FFFFFF
FC0000
FC0000
FC0000
FFFFFF
7FFFFF
7FFFFF
3FFFFF
1FFFFF
07FFFF
ENDCHAR
STARTCHAR 0117
ENCODING 279
SWIDTH 777 0
DWIDTH 28 0
BBX 24 33 2 0
BITMAP
007E00
007E00
007E00
007E00
007E00
007E00
000000
000000
000000
07FFE0
1FFFF8
3FFFFC
7FFFFE
7FFFFE
FFFFFF
FC003F
FC003F
FC003F
FFFFFF
FFFFFE
FFFFFE
FFFFFC
FFFFF8
FFFFE0
FC0000
FC0000
FC0000
FFFFFF
7FFFFF
7FFFFF
3FFFFF
1FFFFF
07FFFF
ENDCHAR
STARTCHAR 011A
ENCODING 282
SWIDTH 750 0
DWIDTH 27 0
BBX 24 33 2 0
BITMAP
0FC1F0
0FE3F0
0FF7F0
0FFFF0
0FFFF0
03FFE0
01FFC0
00FF80
007F00
07FFFF
1FFFFF
3FFFFF
7FFFFF
7FFFFF
FFFFFF
FC0000
FC0000
FC0000
FFFFFF
FFFFFF
FFFFFF
FFFFFF
FFFFFF
FFFFFF
FC0000
FC0000
FC0000
FFFFFF
7FFFFF
7FFFFF
3FFFFF
1FFFFF
07FFFF
ENDCHAR
STARTCHAR 011B
ENCODING 283
SWIDTH 777 0
DWIDTH 28 0
BBX 24 33 2 0
BITMAP
0FC3F0
0FC7F0
0FE7F0
0FFFF0
0FFFF0
07FFE0
03FFC0
01FF80
00FF00
07FFE0
1FFFF8
3FFFFC
7FFFFE
7FFFFE
FFFFFF
FC003F
FC003F
FC003F
FFFFFF
FFFFFE
FFFFFE
FFFFFC
FFFFF8
FFFFE0
FC0000
FC0000
FC0000
FFFFFF
7FFFFF
7FFFFF
3FFFFF
1FFFFF
07FFFF
ENDCHAR
STARTCHAR 011C
ENCODING 284
SWIDTH 777 0
DWIDTH 28 0
BBX 24 33 2 0
BITMAP
00FE00
01FF00
03FF80
07FFC0
0FFFF0
0FFFF0
0FE7F0
0FE3F0
0FC1F0
07FFFF
1FFFFF
3FFFFF
7FFFFF
7FFFFF
FFFFFF
FC0000
FC0000
FC0000
FFFFE0
FFFFF8
FFFFFC
FFFFFE
FFFFFE
FFFFFF
FC003F
FC003F
FC003F
FFFFFF
7FFFFE
7FFFFE
3FFFFC
1FFFF8
07FFE0
ENDCHAR
STARTCHAR 011D
ENCODING 285
SWIDTH 777 0
DWIDTH 28 0
BBX 24 33 2 0
BITMAP
00FF00
01FF80
03FFC0
07FFE0
0FFFF0
0FFFF0
0FE7F0
0FE3F0
0FC1F0
07FFE0
1FFFF8
3FFFFC
7FFFFE
7FFFFE
FFFFFF
FC003F
FC003F
FC003F
FFFFFF
7FFFFF
7FFFFF
3FFFFF
1FFFFF
07FFFF
00003F
00003F
00003F
FFFFFF
FFFFFE
FFFFFE
FFFFFC
FFFFF8
FFFFE0
ENDCHAR
STARTCHAR 0120
ENCODING 288
SWIDTH 777 0
DWIDTH 28 0
BBX 24 33 2 0
BITMAP
007E00
007E00
007E00
007E00
007E00
007E00
000000
000000
000000
07FFFF
1FFFFF
3FFFFF
7FFFFF
7FFFFF
FFFFFF
FC0000
FC0000
FC0000
FFFFE0
FFFFF8
FFFFFC
FFFFFE
FFFFFE
FFFFFF
FC003F
FC003F
FC003F
FFFFFF
7FFFFE
7FFFFE
3FFFFC
1FFFF8
07FFE0
ENDCHAR
STARTCHAR 0121
ENCODING 289
SWIDTH 777 0
DWIDTH 28 0
BBX 24 33 2 0
BITMAP
007E00
007E00
007E00
007E00
007E00
007E00
000000
000000
000000
07FFE0
1FFFF8
3FFFFC
7FFFFE
7FFFFE
FFFFFF
FC003F
FC003F
FC003F
FFFFFF
7FFFFF
7FFFFF
3FFFFF
1FFFFF
07FFFF
00003F
00003F
00003F
FFFFFF
FFFFFE
FFFFFE
FFFFFC
FFFFF8
FFFFE0
ENDCHAR
STARTCHAR 0124
ENCODING 292
SWIDTH 777 0
DWIDTH 28 0
BBX 24 33 2 0
BITMAP
00FF00
01FF80
03FFC0
07FFE0
0FFFF0
0FFFF0
0FE7F0
0FC3F0
0F81F0
FC003F
FC003F
FC003F
FC003F
FC003F
FC003F
FC003F
FC003F
FC003F
FFFFFF
FFFFFF
FFFFFF
FFFFFF
FFFFFF
FFFFFF
FC003F
FC003F
FC003F
FC003F
FC003F
FC003F
FC003F
FC003F
FC003F
ENDCHAR
STARTCHAR 0125
ENCODING 293
SWIDTH 777 0
DWIDTH 28 0
BBX 24 33 2 0
BITMAP
00FF00
01FF80
03FFC0
07FFE0
0FFFF0
0FFFF0
0FF7F0
0FE3F0
0FC1F0
FC0000
FC0000
FC0000
FC0000
FC0000
FC0000
FC0000
FC0000
FC0000
FFFFE0
FFFFF8
FFFFFC
FFFFFE
FFFFFE
FFFFFF
FC003F
FC003F
FC003F
FC003F
FC003F
FC003F
FC003F
FC003F
FC003F
ENDCHAR
STARTCHAR 0128
ENCODING 296
SWIDTH 777 0
DWIDTH 28 0
BBX 26 33 1 0
BITMAP
03E03F00
07F83F00
0FFC7F00
1FFFFF00
1FFFFE00
3FFFFE00
3F9FFC00
3F07F800
3F01F000
FFFFFFC0
FFFFFFC0
FFFFFFC0
FFFFFFC0
FFFFFFC0
FFFFFFC0
003F0000
003F0000
003F0000
003F0000
003F0000
003F0000
003F0000
003F0000
003F0000
003F0000
003F0000
003F0000
7FFFFF80
7FFFFF80
7FFFFF80
7FFFFF80
7FFFFF80
7FFFFF80
ENDCHAR
STARTCHAR 0129
ENCODING 297
SWIDTH 777 0
DWIDTH 28 0
BBX 26 33 1 0
BITMAP
03E03F00
07F83F00
0FFC7F00
1FFFFF00
1FFFFE00
3FFFFE00
3F9FFC00
3F07F800
3F01F000
FFFFFFC0
FFFFFFC0
FFFFFFC0
FFFFFFC0
FFFFFFC0
FFFFFFC0
003F0000
003F0000
003F0000
003F0000
003F0000
003F0000
003F0000
003F0000
003F0000
003F0000
003F0000
003F0000
7FFFFF80
7FFFFF80
7FFFFF80
7FFFFF80
7FFFFF80
7FFFFF80
ENDCHAR
STARTCHAR 012A
ENCODING 298
SWIDTH 750 0
DWIDTH 27 0
BBX 24 33 2 0
BITMAP
1FFFF8
1FFFF8
1FFFF8
1FFFF8
1FFFF8
1FFFF8
000000
000000
000000
FFFFFF
FFFFFF
FFFFFF
FFFFFF
FFFFFF
FFFFFF
007E00
007E00
007E00
007E00
007E00
007E00
007E00
007E00
007E00
007E00
007E00
007E00
FFFFFF
FFFFFF
FFFFFF
FFFFFF
FFFFFF
FFFFFF
ENDCHAR
STARTCHAR 012B
ENCODING 299
SWIDTH 750 0
DWIDTH 27 0
BBX 24 33 2 0
BITMAP
1FFFF8
1FFFF8
1FFFF8
1FFFF8
1FFFF8
1FFFF8
000000
000000
000000
FFFFFF
FFFFFF
FFFFFF
FFFFFF
FFFFFF
FFFFFF
007E00
007E00
007E00
007E00
007E00
007E00
007E00
007E00
007E00
007E00
007E00
007E00
FFFFFF
FFFFFF
FFFFFF
FFFFFF
FFFFFF
FFFFFF
ENDCHAR
STARTCHAR 0130
ENCODING 304
SWIDTH 750 0
DWIDTH 27 0
BBX 24 33 2 0
BITMAP
007E00
007E00
007E00
007E00
007E00
007E00
000000
000000
000000
FFFFFF
FFFFFF
FFFFFF
FFFFFF
FFFFFF
FFFFFF
007E00
007E00
007E00
007E00
007E00
007E00
007E00
007E00
007E00
007E00
007E00
007E00
FFFFFF
FFFFFF
FFFFFF
FFFFFF
FFFFFF
FFFFFF
ENDCHAR
STARTCHAR 0131
ENCODING 305
SWIDTH 750 0
DWIDTH 27 0
BBX 24 24 2 0
BITMAP
FFFFFF
FFFFFF
FFFFFF
FFFFFF
FFFFFF
FFFFFF
007E00
007E00
007E00
007E00
007E00
007E00
007E00
007E00
007E00
007E00
007E00
007E00
FFFFFF
FFFFFF
FFFFFF
FFFFFF
FFFFFF
FFFFFF
ENDCHAR
STARTCHAR 0134
ENCODING 308
SWIDTH 777 0
DWIDTH 28 0
BBX 24 33 2 0
BITMAP
00FE00
01FF00
03FF80
07FFC0
0FFFF0
0FFFF0
0FEFF0
0FC7F0
0F83F0
00003F
00003F
00003F
00003F
00003F
00003F
00003F
00003F
00003F
00003F
00003F
00003F
FC003F
FC003F
FC003F
FC003F
FC003F
FC003F
FFFFFF
7FFFFE
7FFFFE
3FFFFC
1FFFF8
07FFE0
ENDCHAR
STARTCHAR 0135
ENCODING 309
SWIDTH 750 0
DWIDTH 27 0
BBX 24 33 2 0
BITMAP
00FF00
01FF80
03FFC0
07FFE0
0FFFF0
0FFFF0
0FEFF0
0FC7F0
0F83F0
FFFFFF
FFFFFF
FFFFFF
FFFFFF
FFFFFF
FFFFFF
007E00
007E00
007E00
007E00
007E00
007E00
007E00
007E00
007E00
007E00
007E00
007E00
FFFE00
FFFC00
FFFC00
FFF800
FFF000
FFC000
ENDCHAR
STARTCHAR 0139
ENCODING 313
SWIDTH 750 0
DWIDTH 27 0
BBX 24 33 2 0
BITMAP
001F00
003F00
007F00
00FF00
01FF00
01FE00
01FC00
01F800
01F000
FC0000
FC0000
FC0000
FC0000
FC0000
FC0000
FC0000
FC0000
FC0000
FC0000
FC0000
FC0000
FC0000
FC0000
FC0000
FC0000
FC0000
FC0000
FFFFFF
7FFFFF
7FFFFF
3FFFFF
1FFFFF
07FFFF
ENDCHAR
STARTCHAR 013A
ENCODING 314
SWIDTH 750 0
DWIDTH 27 0
BBX 24 33 2 0
BITMAP
001F00
003F00
007F00
00FF00
01FF00
01FE00
01FC00
01F800
01F000
FC0000
FC0000
FC0000
FC0000
FC0000
FC0000
FC0000
FC0000
FC0000
FC0000
FC0000
FC0000
FC0000
FC0000
FC0000
FC0000
FC0000
FC0000
FFFFFF
7FFFFF
7FFFFF
3FFFFF
1FFFFF
07FFFF
ENDCHAR
STARTCHAR 0143
ENCODING 323
SWIDTH 777 0
DWIDTH 28 0
BBX 24 33 2 0
BITMAP
001F00
003F00
007F00
00FF00
01FF00
01FE00
01FC00
01F800
01F000
F8003F
FC003F
FE003F
FF003F
FF803F
FFC03F
FFE03F
FFF03F
FFF83F
FFFC3F
FFFE3F
FDFF3F
FCFFBF
FC7FFF
FC3FFF
FC1FFF
FC0FFF
FC07FF
FC03FF
FC01FF
FC00FF
FC007F
FC003F
FC001F
ENDCHAR
STARTCHAR 0144
ENCODING 324
SWIDTH 777 0
DWIDTH 28 0
BBX 24 33 2 0
BITMAP
001F00
003F00
007F00
00FF00
01FF00
01FE00
01FC00
01F800
01F000
07FFE0
1FFFF8
3FFFFC
7FFFFE
7FFFFE
FFFFFF
FC003F
FC003F
FC003F
FC003F
FC003F
FC003F
FC003F
FC003F
FC003F
FC003F
FC003F
FC003F
FC003F
FC003F
FC003F
FC003F
FC003F
FC003F
ENDCHAR
STARTCHAR 0147
ENCODING 327
SWIDTH 777 0
DWIDTH 28 0
BBX 24 33 2 0
BITMAP
0F83E0
0FC7E0
0FEFE0
0FFFE0
0FFFE0
07FFC0
03FF80
01FF00
00FE00
F8003F
FC003F
FE003F
FF003F
FF803F
FFC03F
FFE03F
FFF03F
FFF83F
FFFC3F
FFFE3F
FDFF3F
FCFFBF
FC7FFF
FC3FFF
FC1FFF
FC0FFF
FC07FF
FC03FF
FC01FF
FC00FF
FC007F
FC003F
FC001F
ENDCHAR
STARTCHAR 0148
ENCODING 328
SWIDTH 777 0
DWIDTH 28 0
BBX 24 33 2 0
BITMAP
0FC3F0
0FC7F0
0FE7F0
0FFFF0
0FFFF0
07FFE0
03FFC0
01FF80
00FF00
07FFE0
1FFFF8
3FFFFC
7FFFFE
7FFFFE
FFFFFF
FC003F
FC003F
FC003F
FC003F
FC003F
FC003F
FC003F
FC003F
FC003F
FC003F
FC003F
FC003F
FC003F
FC003F
FC003F
FC003F
FC003F
FC003F
ENDCHAR
STARTCHAR 014C
ENCODING 332
SWIDTH 777 0
DWIDTH 28 0
BBX 24 33 2 0
BITMAP
1FFFF8
1FFFF8
1FFFF8
1FFFF8
1FFFF8
1FFFF8
000000
000000
000000
07FFE0
1FFFF8
3FFFFC
7FFFFE
7FFFFE
FFFFFF
FC003F
FC003F
FC003F
FC003F
FC003F
FC003F
FC003F
FC003F
FC003F
FC003F
FC003F
FC003F
FFFFFF
7FFFFE
7FFFFE
3FFFFC
1FFFF8
07FFE0
ENDCHAR
STARTCHAR 014D
ENCODING 333
SWIDTH 777 0
DWIDTH 28 0
BBX 24 33 2 0
BITMAP
1FFFF8
1FFFF8
1FFFF8
1FFFF8
1FFFF8
1FFFF8
000000
000000
000000
07FFE0
1FFFF8
3FFFFC
7FFFFE
7FFFFE
FFFFFF
FC003F
FC003F
FC003F
FC003F
FC003F
FC003F
FC003F
FC003F
FC003F
FC003F
FC003F
FC003F
FFFFFF
7FFFFE
7FFFFE
3FFFFC
1FFFF8
07FFE0
ENDCHAR
STARTCHAR 0152
ENCODING 338
SWIDTH 750 0
DWIDTH 27 0
BBX 24 24 2 0
BITMAP
07FFFF
1FFFFF
3FFFFF
7FFFFF
7FFFFF
FFFFFF
FC7E00
FC7E00
FC7E00
FC7FF8
FC7FF8
FC7FF8
FC7FF8
FC7FF8
FC7FF8
FC7E00
FC7E00
FC7E00
FFFFFF
7FFFFF
7FFFFF
3FFFFF
1FFFFF
07FFFF
ENDCHAR
STARTCHAR 0153
ENCODING 339
SWIDTH 777 0
DWIDTH 28 0
BBX 24 24 2 0
BITMAP
07C3E0
1FFFF8
3FFFFC
7FFFFE
7FFFFE
FFFFFF
FC7E3F
FC7E3F
FC7E3F
FC7FFF
FC7FFE
FC7FFE
FC7FFC
FC7FF8
FC7FE0
FC7E00
FC7E00
FC7E00
FFFFFF
7FFFFF
7FFFFF
3FFFFF
1FFFFF
07C3FF
ENDCHAR
STARTCHAR 0154
ENCODING 340
SWIDTH 777 0
DWIDTH 28 0
BBX 24 33 2 0
BITMAP
001F80
003F80
007F80
00FF80
01FF80
01FF00
01FE00
01FC00
01F800
07FFE0
1FFFF8
3FFFFC
7FFFFE
7FFFFE
FFFFFF
FC003F
FC003F
FC003F
FFFFFF
FFFFFE
FFFFFE
FFFFFC
FFFFF8
FFFFE0
FC7E00
FC7E00
FC7E00
FC7FFF
FC3FFF
FC3FFF
FC1FFF
FC0FFF
FC03FF
ENDCHAR
STARTCHAR 0155
ENCODING 341
SWIDTH 750 0
DWIDTH 27 0
BBX 24 33 2 0
BITMAP
000F80
001F80
003F80
007F80
00FF80
00FF00
00FE00
00FC00
00F800
07FFFF
1FFFFF
3FFFFF
7FFFFF
7FFFFF
FFFFFF
FC0000
FC0000
FC0000
FC0000
FC0000
FC0000
FC0000
FC0000
FC0000
FC0000
FC0000
FC0000
FC0000
FC0000
FC0000
FC0000
FC0000
FC0000
ENDCHAR
STARTCHAR 0158
ENCODING 344
SWIDTH 777 0
DWIDTH 28 0
BBX 24 33 2 0
BITMAP
0FC3F0
0FC7F0
0FE7F0
0FFFF0
0FFFF0
07FFE0
03FFC0
01FF80
00FF00
07FFE0
1FFFF8
3FFFFC
7FFFFE
7FFFFE
FFFFFF
FC003F
FC003F
FC003F
FFFFFF
FFFFFE
FFFFFE
FFFFFC
FFFFF8
FFFFE0
FC7E00
FC7E00
FC7E00
FC7FFF
FC3FFF
FC3FFF
FC1FFF
FC0FFF
FC03FF
ENDCHAR
STARTCHAR 0159
ENCODING 345
SWIDTH 750 0
DWIDTH 27 0
BBX 24 33 2 0
BITMAP
0FC1F0
0FE3F0
0FF7F0
0FFFF0
0FFFF0
03FFE0
01FFC0
00FF80
007F00
07FFFF
1FFFFF
3FFFFF
7FFFFF
7FFFFF
FFFFFF
FC0000
FC0000
FC0000
FC0000
FC0000
FC0000
FC0000
FC0000
FC0000
FC0000
FC0000
FC0000
FC0000
FC0000
FC0000
FC0000
FC0000
FC0000
ENDCHAR
STARTCHAR 015A
ENCODING 346
SWIDTH 777 0
DWIDTH 28 0
BBX 24 33 2 0
BITMAP
001F80
003F80
007F80
00FF80
01FF80
01FF00
01FE00
01FC00
01F800
07FFFF
1FFFFF
3FFFFF
7FFFFF
7FFFFF
FFFFFF
FC0000
FC0000
FC0000
FFFFE0
7FFFF8
7FFFFC
3FFFFE
1FFFFE
07FFFF
00003F
00003F
00003F
FFFFFF
FFFFFE
FFFFFE
FFFFFC
FFFFF8
FFFFE0
ENDCHAR
STARTCHAR 015B
ENCODING 347
SWIDTH 750 0
DWIDTH 27 0
BBX 25 33 1 0
BITMAP
00003E00
00007E00
0000FE00
0001FE00
0003FE00
0003FC00
0003F800
0003F000
0003E000
003FFF80
00FFFF80
01FFFF80
03FFFF80
03FFFF80
07FFFF80
07E00000
07E00000
07E00000
07FE0000
03FF8000
03FFC000
01FFE000
00FFE000
003FF000
0003F000
0003F000
0003F000
FFFFF000
FFFFE000
FFFFE000
FFFFC000
FFFF8000
FFFE0000
ENDCHAR
STARTCHAR 015C
ENCODING 348
SWIDTH 777 0
DWIDTH 28 0
BBX 24 33 2 0
BITMAP
00FE00
01FF00
03FF80
07FFC0
0FFFF0
0FFFF0
0FE7F0
0FE3F0
0FC1F0
07FFFF
1FFFFF
3FFFFF
7FFFFF
7FFFFF
FFFFFF
FC0000
FC0000
FC0000
FFFFE0
7FFFF8
7FFFFC
3FFFFE
1FFFFE
07FFFF
00003F
00003F
00003F
FFFFFF
FFFFFE
FFFFFE
FFFFFC
FFFFF8
FFFFE0
ENDCHAR
STARTCHAR 015D
ENCODING 349
SWIDTH 750 0
DWIDTH 27 0
BBX 25 33 1 0
BITMAP
0007F800
000FFC00
001FFE00
003FFF00
007FFF80
007FFF80
007F3F80
007F1F80
007E0F80
003FFF80
00FFFF80
01FFFF80
03FFFF80
03FFFF80
07FFFF80
07E00000
07E00000
07E00000
07FE0000
03FF8000
03FFC000
01FFE000
00FFE000
003FF000
0003F000
0003F000
0003F000
FFFFF000
FFFFE000
FFFFE000
FFFFC000
FFFF8000
FFFE0000
ENDCHAR
STARTCHAR 0160
ENCODING 352
SWIDTH 777 0
DWIDTH 28 0
BBX 24 33 2 0
BITMAP
0FC3F0
0FC7F0
0FE7F0
0FFFF0
0FFFF0
07FFE0
03FFC0
01FF80
00FF00
07FFFF
1FFFFF
3FFFFF
7FFFFF
7FFFFF
FFFFFF
FC0000
FC0000
FC0000
FFFFE0
7FFFF8
7FFFFC
3FFFFE
1FFFFE
07FFFF
00003F
00003F
00003F
FFFFFF
FFFFFE
FFFFFE
FFFFFC
FFFFF8
FFFFE0
ENDCHAR
STARTCHAR 0161
ENCODING 353
SWIDTH 750 0
DWIDTH 27 0
BBX 25 33 1 0
BITMAP
007E1F80
007E3F80
007F3F80
007FFF80
007FFF80
003FFF00
001FFE00
000FFC00
0007F800
003FFF80
00FFFF80
01FFFF80
03FFFF80
03FFFF80
07FFFF80
07E00000
07E00000
07E00000
07FE0000
03FF8000
03FFC000
01FFE000
00FFE000
003FF000
0003F000
0003F000
0003F000
FFFFF000
FFFFE000
FFFFE000
FFFFC000
FFFF8000
FFFE0000
ENDCHAR
STARTCHAR 0164
ENCODING 356
SWIDTH 750 0
DWIDTH 27 0
BBX 24 33 2 0
BITMAP
0FC3F0
0FC7F0
0FE7F0
0FFFF0
0FFFF0
07FFE0
03FFC0
01FF80
00FF00
FFFFFF
FFFFFF
FFFFFF
FFFFFF
FFFFFF
FFFFFF
007E00
007E00
007E00
007E00
007E00
007E00
007E00
007E00
007E00
007E00
007E00
007E00
007E00
007E00
007E00
007E00
007E00
007E00
ENDCHAR
STARTCHAR 0168
ENCODING 360
SWIDTH 750 0
DWIDTH 27 0
BBX 23 33 2 0
BITMAP
03C0FC
0FF0FC
1FF8FC
1FFFFC
3FFFFC
3FFFF8
3F1FF0
3F0FF0
3F07C0
FC007E
FC007E
FC007E
FC007E
FC007E
FC007E
FC007E
FC007E
FC007E
FC007E
FC007E
FC007E
FC007E
FC007E
FC007E
FC007E
FC007E
FC007E
FFFFFE
7FFFFC
7FFFFC
3FFFF8
1FFFF0
07FFC0
ENDCHAR
STARTCHAR 0169
ENCODING 361
SWIDTH 777 0
DWIDTH 28 0
BBX 24 33 2 0
BITMAP
0F81F8
1FE1F8
3FF1F8
7FFFF8
7FFFF0
FFFFF0
FC7FE0
FC3FC0
FC0F80
FC0FC0
FC0FC0
FC0FC0
FC0FC0
FC0FC0
FC0FC0
FC0FC0
FC0FC0
FC0FC0
FC0FC0
FC0FC0
FC0FC0
FC0FC0
FC0FC0
FC0FC0
FC0FC0
FC0FC0
FC0FC0
FFFFFF
7FFFFF
7FFFFF
3FFFFF
1FFFFF
07FFFF
ENDCHAR
STARTCHAR 016A
ENCODING 362
SWIDTH 777 0
DWIDTH 28 0
BBX 24 33 2 0
BITMAP
1FFFF8
1FFFF8
1FFFF8
1FFFF8
1FFFF8
1FFFF8
000000
000000
000000
FC003F
FC003F
FC003F
FC003F
FC003F
FC003F
FC003F
FC003F
FC003F
FC003F
FC003F
FC003F
FC003F
FC003F
FC003F
FC003F
FC003F
FC003F
FFFFFF
7FFFFE
7FFFFE
3FFFFC
1FFFF8
07FFE0
ENDCHAR
STARTCHAR 016B
ENCODING 363
SWIDTH 750 0
DWIDTH 27 0
BBX 24 33 2 0
BITMAP
FFFFC0
FFFFC0
FFFFC0
FFFFC0
FFFFC0
FFFFC0
000000
000000
000000
FC0FC0
FC0FC0
FC0FC0
FC0FC0
FC0FC0
FC0FC0
FC0FC0
FC0FC0
FC0FC0
FC0FC0
FC0FC0
FC0FC0
FC0FC0
FC0FC0
FC0FC0
FC0FC0
FC0FC0
FC0FC0
FFFFFF
7FFFFF
7FFFFF
3FFFFF
1FFFFF
07FFFF
ENDCHAR
STARTCHAR 0174
ENCODING 372
SWIDTH 777 0
DWIDTH 28 0
BBX 24 33 2 0
BITMAP
00FF00
01FF80
03FFC0
07FFE0
0FFFF0
0FFFF0
0FE7F0
0FC3F0
0F81F0
FC003F
FC003F
FC003F
FC003F
FC003F
FC003F
FC003F
FC003F
FC003F
FC3C3F
FC7E3F
FCFF3F
FDFFBF
FFFFFF
FFFFFF
FFFFFF
FFFFFF
FFE7FF
FFC3FF
FF81FF
FF00FF
FE007F
FC003F
F8001F
ENDCHAR
STARTCHAR 0175
ENCODING 373
SWIDTH 777 0
DWIDTH 28 0
BBX 24 33 2 0
BITMAP
00FF00
01FF80
03FFC0
07FFE0
0FFFF0
0FFFF0
0FE7F0
0FC3F0
0F81F0
FC7E3F
FC7E3F
FC7E3F
FC7E3F
FC7E3F
FC7E3F
FC7E3F
FC7E3F
FC7E3F
FC7E3F
FC7E3F
FC7E3F
FC7E3F
FC7E3F
FC7E3F
FC7E3F
FC7E3F
FC7E3F
FFFFFF
7FFFFE
7FFFFE
3FFFFC
1FFFF8
07FFE0
ENDCHAR
STARTCHAR 0176
ENCODING 374
SWIDTH 750 0
DWIDTH 27 0
BBX 24 33 2 0
BITMAP
00FF00
01FF80
03FFC0
07FFE0
0FFFF0
0FFFF0
0FFFF0
0FE7F0
0FC3F0
F8001F
FC003F
FE007F
FF00FF
FF81FF
7FC3FE
3FE7FC
1FFFF8
0FFFF0
07FFE0
03FFC0
01FF80
00FF00
007E00
007E00
007E00
007E00
007E00
007E00
007E00
007E00
007E00
007E00
007E00
ENDCHAR
STARTCHAR 0177
ENCODING 375
SWIDTH 777 0
DWIDTH 28 0
BBX 24 33 2 0
BITMAP
00FF00
01FF80
03FFC0
07FFE0
0FFFF0
0FFFF0
0FE7F0
0FC3F0
0F81F0
FC003F
FC003F
FC003F
FC003F
FC003F
FC003F
FC003F
FC003F
FC003F
FFFFFF
7FFFFF
7FFFFF
3FFFFF
1FFFFF
07FFFF
00003F
00003F
00003F
FFFFFF
FFFFFE
FFFFFE
FFFFFC
FFFFF8
FFFFE0
ENDCHAR
STARTCHAR 0178
ENCODING 376
SWIDTH 750 0
DWIDTH 27 0
BBX 24 33 2 0
BITMAP
0FC7E0
0FC7E0
0FC7E0
0FC7E0
0FC7E0
0FC7E0
000000
000000
000000
F8001F
FC003F
FE007F
FF00FF
FF81FF
7FC3FE
3FE7FC
1FFFF8
0FFFF0
07FFE0
03FFC0
01FF80
00FF00
007E00
007E00
007E00
007E00
007E00
007E00
007E00
007E00
007E00
007E00
007E00
ENDCHAR
STARTCHAR 0179
ENCODING 377
SWIDTH 750 0
DWIDTH 27 0
BBX 24 33 2 0
BITMAP
001F00
003F00
007F00
00FF00
01FF00
01FE00
01FC00
01F800
01F000
FFFFFF
FFFFFF
FFFFFF
FFFFFF
FFFFFF
FFFFFE
0007FC
000FF8
001FF0
003FE0
007FC0
00FF80
01FF00
03FE00
07FC00
0FF800
1FF000
3FE000
7FFFFF
FFFFFF
FFFFFF
FFFFFF
FFFFFF
FFFFFF
ENDCHAR
STARTCHAR 017A
ENCODING 378
SWIDTH 777 0
DWIDTH 28 0
BBX 24 33 2 0
BITMAP
001F80
003F80
007F80
00FF80
01FF80
01FF00
01FE00
01FC00
01F800
FFFFE0
FFFFF8
FFFFFC
FFFFFE
FFFFFE
FFFFFF
00003F
00003F
00003F
07FFFF
1FFFFE
3FFFFE
7FFFFC
7FFFF8
FFFFE0
FC0000
FC0000
FC0000
FFFFFF
7FFFFF
7FFFFF
3FFFFF
1FFFFF
07FFFF
ENDCHAR
STARTCHAR 017B
ENCODING 379
SWIDTH 750 0
DWIDTH 27 0
BBX 24 33 2 0
BITMAP
007E00
007E00
007E00
007E00
007E00
007E00
000000
000000
000000
FFFFFF
FFFFFF
FFFFFF
FFFFFF
FFFFFF
FFFFFE
0007FC
000FF8
001FF0
003FE0
007FC0
00FF80
01FF00
03FE00
07FC00
0FF800
1FF000
3FE000
7FFFFF
FFFFFF
FFFFFF
FFFFFF
FFFFFF
FFFFFF
ENDCHAR
STARTCHAR 017C
ENCODING 380
SWIDTH 777 0
DWIDTH 28 0
BBX 24 33 2 0
BITMAP
007E00
007E00
007E00
007E00
007E00
007E00
000000
000000
000000
FFFFE0
FFFFF8
FFFFFC
FFFFFE
FFFFFE
FFFFFF
00003F
00003F
00003F
07FFFF
1FFFFE
3FFFFE
7FFFFC
7FFFF8
FFFFE0
FC0000
FC0000
FC0000
FFFFFF
7FFFFF
7FFFFF
3FFFFF
1FFFFF
07FFFF
ENDCHAR
STARTCHAR 017D
ENCODING 381
SWIDTH 750 0
DWIDTH 27 0
BBX 24 33 2 0
BITMAP
0F83E0
0FC7E0
0FEFE0
0FFFE0
0FFFE0
07FFC0
03FF80
01FF00
00FE00
FFFFFF
FFFFFF
FFFFFF
FFFFFF
FFFFFF
FFFFFE
0007FC
000FF8
001FF0
003FE0
007FC0
00FF80
01FF00
03FE00
07FC00
0FF800
1FF000
3FE000
7FFFFF
FFFFFF
FFFFFF
FFFFFF
FFFFFF
FFFFFF
ENDCHAR
STARTCHAR 017E
ENCODING 382
SWIDTH 777 0
DWIDTH 28 0
BBX 24 33 2 0
BITMAP
0FC3F0
0FC7F0
0FE7F0
0FFFF0
0FFFF0
07FFE0
03FFC0
01FF80
00FF00
FFFFE0
FFFFF8
FFFFFC
FFFFFE
FFFFFE
FFFFFF
00003F
00003F
00003F
07FFFF
1FFFFE
3FFFFE
7FFFFC
7FFFF8
FFFFE0
FC0000
FC0000
FC0000
FFFFFF
7FFFFF
7FFFFF
3FFFFF
1FFFFF
07FFFF
ENDCHAR
STARTCHAR 018E
ENCODING 398
SWIDTH 777 0
DWIDTH 28 0
BBX 24 24 2 0
BITMAP
FFFFE0
FFFFF8
FFFFFC
FFFFFE
FFFFFE
FFFFFF
00003F
00003F
00003F
FFFFFF
FFFFFF
FFFFFF
FFFFFF
FFFFFF
FFFFFF
00003F
00003F
00003F
FFFFFF
FFFFFE
FFFFFE
FFFFFC
FFFFF8
FFFFE0
ENDCHAR
STARTCHAR 01F4
ENCODING 500
SWIDTH 777 0
DWIDTH 28 0
BBX 24 33 2 0
BITMAP
001F80
003F80
007F80
00FF80
01FF80
01FF00
01FE00
01FC00
01F800
07FFFF
1FFFFF
3FFFFF
7FFFFF
7FFFFF
FFFFFF
FC0000
FC0000
FC0000
FFFFE0
FFFFF8
FFFFFC
FFFFFE
FFFFFE
FFFFFF
FC003F
FC003F
FC003F
FFFFFF
7FFFFE
7FFFFE
3FFFFC
1FFFF8
07FFE0
ENDCHAR
STARTCHAR 01F5
ENCODING 501
SWIDTH 777 0
DWIDTH 28 0
BBX 24 33 2 0
BITMAP
001F80
003F80
007F80
00FF80
01FF80
01FF00
01FE00
01FC00
01F800
07FFE0
1FFFF8
3FFFFC
7FFFFE
7FFFFE
FFFFFF
FC003F
FC003F
FC003F
FFFFFF
7FFFFF
7FFFFF
3FFFFF
1FFFFF
07FFFF
00003F
00003F
00003F
FFFFFF
FFFFFE
FFFFFE
FFFFFC
FFFFF8
FFFFE0
ENDCHAR
STARTCHAR 01F8
ENCODING 504
SWIDTH 777 0
DWIDTH 28 0
BBX 24 33 2 0
BITMAP
01F000
01F800
01FC00
01FE00
01FF00
00FF00
007F00
003F00
001F00
F8003F
FC003F
FE003F
FF003F
FF803F
FFC03F
FFE03F
FFF03F
FFF83F
FFFC3F
FFFE3F
FDFF3F
FCFFBF
FC7FFF
FC3FFF
FC1FFF
FC0FFF
FC07FF
FC03FF
FC01FF
FC00FF
FC007F
FC003F
FC001F
ENDCHAR
STARTCHAR 01F9
ENCODING 505
SWIDTH 777 0
DWIDTH 28 0
BBX 24 33 2 0
BITMAP
01F800
01FC00
01FE00
01FF00
01FF80
00FF80
007F80
003F80
001F80
07FFE0
1FFFF8
3FFFFC
7FFFFE
7FFFFE
FFFFFF
FC003F
FC003F
FC003F
FC003F
FC003F
FC003F
FC003F
FC003F
FC003F
FC003F
FC003F
FC003F
FC003F
FC003F
FC003F
FC003F
FC003F
FC003F
ENDCHAR
STARTCHAR 01FC
ENCODING 508
SWIDTH 750 0
DWIDTH 27 0
BBX 24 33 2 0
BITMAP
000F80
001F80
003F80
007F80
00FF80
00FF00
00FE00
00FC00
00F800
07FFFF
1FFFFF
3FFFFF
7FFFFF
7FFFFF
FFFFFF
FC7E00
FC7E00
FC7E00
FFFFF8
FFFFF8
FFFFF8
FFFFF8
FFFFF8
FFFFF8
FC7E00
FC7E00
FC7E00
FC7FFF
FC7FFF
FC7FFF
FC7FFF
FC7FFF
FC7FFF
ENDCHAR
STARTCHAR 01FD
ENCODING 509
SWIDTH 777 0
DWIDTH 28 0
BBX 24 33 2 0
BITMAP
000F80
001F80
003F80
007F80
00FF80
00FF00
00FE00
00FC00
00F800
FFC3E0
FFFFF8
FFFFFC
FFFFFE
FFFFFE
FFFFFF
007E3F
007E3F
007E3F
07FFFF
1FFFFE
3FFFFE
7FFFFC
7FFFF8
FFFFE0
FC7E00
FC7E00
FC7E00
FFFFFF
7FFFFF
7FFFFF
3FFFFF
1FFFFF
07C3FF
ENDCHAR
STARTCHAR 01FE
ENCODING 510
SWIDTH 777 0
DWIDTH 28 0
BBX 24 33 2 0
BITMAP
001F80
003F80
007F80
00FF80
01FF80
01FF00
01FE00
01FC00
01F800
07FFE0
1FFFF8
3FFFFC
7FFFFE
7FFFFE
FFFFFF
FC07FF
FC0FFF
FC1FFF
FC3FFF
FC7FFF
FCFFBF
FDFF3F
FFFE3F
FFFC3F
FFF83F
FFF03F
FFE03F
FFFFFF
7FFFFE
7FFFFE
3FFFFC
1FFFF8
07FFE0
ENDCHAR
STARTCHAR 01FF
ENCODING 511
SWIDTH 777 0
DWIDTH 28 0
BBX 24 33 2 0
BITMAP
001F80
003F80
007F80
00FF80
01FF80
01FF00
01FE00
01FC00
01F800
07FFE0
1FFFF8
3FFFFC
7FFFFE
7FFFFE
FFFFFF
FC07FF
FC0FFF
FC1FFF
FC3FFF
FC7FFF
FCFFBF
FDFF3F
FFFE3F
FFFC3F
FFF83F
FFF03F
FFE03F
FFFFFF
7FFFFE
7FFFFE
3FFFFC
1FFFF8
07FFE0
ENDCHAR
STARTCHAR 02C6
ENCODING 710
SWIDTH 750 0
DWIDTH 27 0
BBX 15 9 6 24
BITMAP
0FE0
1FF0
3FF8
7FFC
FFFE
FFFE
FEFE
FC7E
F83E
ENDCHAR
STARTCHAR 02C7
ENCODING 711
SWIDTH 750 0
DWIDTH 27 0
BBX 15 9 6 24
BITMAP
F83E
FC7E
FEFE
FFFE
FFFE
7FFC
3FF8
1FF0
0FE0
ENDCHAR
STARTCHAR 02D9
ENCODING 729
SWIDTH 750 0
DWIDTH 27 0
BBX 6 6 11 27
BITMAP
FC
FC
FC
FC
FC
FC
ENDCHAR
STARTCHAR 02DC
ENCODING 732
SWIDTH 750 0
DWIDTH 27 0
BBX 21 9 3 24
BITMAP
0F81F8
1FE1F8
3FF1F8
7FFFF8
7FFFF0
FFFFF0
FC7FE0
FC3FC0
FC0F80
ENDCHAR
STARTCHAR 03A9
ENCODING 937
SWIDTH 777 0
DWIDTH 28 0
BBX 24 24 2 0
BITMAP
07FFE0
1FFFF8
3FFFFC
7FFFFE
7FFFFE
FFFFFF
FC003F
FC003F
FC003F
FC003F
FFE0FF
FFE7FF
7FE7FE
7FE7FC
3FE7FC
0FE7F0
07E7E0
07E7E0
FFE7FF
FFE7FF
FFE7FF
FFE7FF
FFE7FF
FFE7FF
ENDCHAR
STARTCHAR 2013
ENCODING 8211
SWIDTH 750 0
DWIDTH 27 0
BBX 24 6 2 9
BITMAP
FFFFFF
FFFFFF
FFFFFF
FFFFFF
FFFFFF
FFFFFF
ENDCHAR
STARTCHAR 2014
ENCODING 8212
SWIDTH 750 0
DWIDTH 27 0
BBX 24 6 2 9
BITMAP
FFFFFF
FFFFFF
FFFFFF
FFFFFF
FFFFFF
FFFFFF
ENDCHAR
STARTCHAR 2020
ENCODING 8224
SWIDTH 750 0
DWIDTH 27 0
BBX 18 24 5 0
BITMAP
03F000
03F000
03F000
03F000
03F000
03F000
FFFFC0
FFFFC0
FFFFC0
FFFFC0
FFFFC0
FFFFC0
03F000
03F000
03F000
03F000
03F000
03F000
03F000
03F000
03F000
03F000
03F000
03F000
ENDCHAR
STARTCHAR 2022
ENCODING 8226
SWIDTH 750 0
DWIDTH 27 0
BBX 12 12 8 6
BITMAP
1F00
3FC0
7FE0
FFE0
FFE0
FFF0
FFF0
FFE0
FFE0
7FE0
3FC0
1F00
ENDCHAR
STARTCHAR 2026
ENCODING 8230
SWIDTH 777 0
DWIDTH 28 0
BBX 24 8 2 0
BITMAP
FC7E3F
FC7E3F
FC7E3F
FC7E3F
FC7E3F
FC7E3F
FC7E3F
FC7E3F
ENDCHAR
STARTCHAR 2039
ENCODING 8249
SWIDTH 750 0
DWIDTH 27 0
BBX 15 24 6 0
BITMAP
003E
007E
00FE
01FE
03FE
07FC
0FF8
1FF0
3FE0
7FC0
FF80
FF00
FF00
FF80
7FC0
3FE0
1FF0
0FF8
07FC
03FE
01FE
00FE
007E
003E
ENDCHAR
STARTCHAR 203A
ENCODING 8250
SWIDTH 750 0
DWIDTH 27 0
BBX 15 24 6 0
BITMAP
F800
FC00
FE00
FF00
FF80
7FC0
3FE0
1FF0
0FF8
07FC
03FE
01FE
01FE
03FE
07FC
0FF8
1FF0
3FE0
7FC0
FF80
FF00
FE00
FC00
F800
ENDCHAR
STARTCHAR 2044
ENCODING 8260
SWIDTH 750 0
DWIDTH 27 0
BBX 24 24 2 0
BITMAP
00001F
00003F
00007F
0000FF
0001FF
0003FE
0007FC
000FF8
001FF0
003FE0
007FC0
00FF80
01FF00
03FE00
07FC00
0FF800
1FF000
3FE000
7FC000
FF8000
FF0000
FE0000
FC0000
F80000
ENDCHAR
STARTCHAR 2190
ENCODING 8592
SWIDTH 750 0
DWIDTH 27 0
BBX 24 24 2 0
BITMAP
003E00
007E00
00FE00
01FE00
03FE00
07FC00
0FF800
1FF000
3FE000
7FFFFF
FFFFFF
FFFFFF
FFFFFF
FFFFFF
7FFFFF
3FE000
1FF000
0FF800
07FC00
03FE00
01FE00
00FE00
007E00
003E00
ENDCHAR
STARTCHAR 2191
ENCODING 8593
SWIDTH 750 0
DWIDTH 27 0
BBX 24 24 2 0
BITMAP
003C00
007E00
00FF00
01FF80
03FFC0
07FFE0
0FFFF0
1FFFF8
3FFFFC
7FFFFE
FFFFFF
FF7EFF
FE7E7F
FC7E3F
F87E1F
007E00
007E00
007E00
007E00
007E00
007E00
007E00
007E00
007E00
ENDCHAR
STARTCHAR 2192
ENCODING 8594
SWIDTH 750 0
DWIDTH 27 0
BBX 24 24 2 0
BITMAP
007C00
007E00
007F00
007F80
007FC0
003FE0
001FF0
000FF8
0007FC
FFFFFE
FFFFFF
FFFFFF
FFFFFF
FFFFFF
FFFFFE
0007FC
000FF8
001FF0
003FE0
007FC0
007F80
007F00
007E00
007C00
ENDCHAR
STARTCHAR 2193
ENCODING 8595
SWIDTH 750 0
DWIDTH 27 0
BBX 24 24 2 0
BITMAP
007E00
007E00
007E00
007E00
007E00
007E00
007E00
007E00
007E00
F87E1F
FC7E3F
FE7E7F
FF7EFF
FFFFFF
7FFFFE
3FFFFC
1FFFF8
0FFFF0
07FFE0
03FFC0
01FF80
00FF00
007E00
003C00
ENDCHAR
STARTCHAR 2196
ENCODING 8598
SWIDTH 750 0
DWIDTH 27 0
BBX 24 24 2 0
BITMAP
FFFFFF
FFFFFF
FFFFFF
FFFFFF
FFFFFF
FFFFFF
FFE000
FFF000
FFF800
FFFC00
FFFE00
FDFF00
FCFF80
FC7FC0
FC3FE0
FC1FF0
FC0FF8
FC07FC
FC03FE
FC01FF
FC00FF
FC007F
FC003F
FC001F
ENDCHAR
STARTCHAR 2197
ENCODING 8599
SWIDTH 777 0
DWIDTH 28 0
BBX 24 24 2 0
BITMAP
FFFFFF
FFFFFF
FFFFFF
FFFFFF
FFFFFF
FFFFFF
0007FF
000FFF
001FFF
003FFF
007FFF
00FFBF
01FF3F
03FE3F
07FC3F
0FF83F
1FF03F
3FE03F
7FC03F
FF803F
FF003F
FE003F
FC003F
F8003F
ENDCHAR
STARTCHAR 2198
ENCODING 8600
SWIDTH 750 0
DWIDTH 27 0
BBX 24 24 2 0
BITMAP
F8003F
FC003F
FE003F
FF003F
FF803F
7FC03F
3FE03F
1FF03F
0FF83F
07FC3F
03FE3F
01FF3F
00FFBF
007FFF
003FFF
001FFF
000FFF
0007FF
FFFFFF
FFFFFF
FFFFFF
FFFFFF
FFFFFF
FFFFFF
ENDCHAR
STARTCHAR 2199
ENCODING 8601
SWIDTH 750 0
DWIDTH 27 0
BBX 24 24 2 0
BITMAP
FC001F
FC003F
FC007F
FC00FF
FC01FF
FC03FE
FC07FC
FC0FF8
FC1FF0
FC3FE0
FC7FC0
FCFF80
FDFF00
FFFE00
FFFC00
FFF800
FFF000
FFE000
FFFFFF
FFFFFF
FFFFFF
FFFFFF
FFFFFF
FFFFFF
ENDCHAR
STARTCHAR 21A2
ENCODING 8610
SWIDTH 750 0
DWIDTH 27 0
BBX 24 24 2 0
BITMAP
003E00
007E00
00FE00
01FE1F
03FE3F
07FC7F
0FF8FF
1FF1FF
3FE3FE
7FFFFC
FFFFF8
FFFFF0
FFFFF0
FFFFF8
7FFFFC
3FE3FE
1FF1FF
0FF8FF
07FC7F
03FE3F
01FE1F
00FE00
007E00
003E00
ENDCHAR
STARTCHAR 21A3
ENCODING 8611
SWIDTH 750 0
DWIDTH 27 0
BBX 24 24 2 0
BITMAP
007C00
007E00
007F00
F87F80
FC7FC0
FE3FE0
FF1FF0
FF8FF8
7FC7FC
3FFFFE
1FFFFF
0FFFFF
0FFFFF
1FFFFF
3FFFFE
7FC7FC
FF8FF8
FF1FF0
FE3FE0
FC7FC0
F87F80
007F00
007E00
007C00
ENDCHAR
STARTCHAR 21A4
ENCODING 8612
SWIDTH 777 0
DWIDTH 28 0
BBX 24 24 2 0
BITMAP
003E3F
007E3F
00FE3F
01FE3F
03FE3F
07FC3F
0FF83F
1FF03F
3FE03F
7FFFFF
FFFFFF
FFFFFF
FFFFFF
FFFFFF
7FFFFF
3FE03F
1FF03F
0FF83F
07FC3F
03FE3F
01FE3F
00FE3F
007E3F
003E3F
ENDCHAR
STARTCHAR 21A5
ENCODING 8613
SWIDTH 750 0
DWIDTH 27 0
BBX 24 24 2 0
BITMAP
003C00
007E00
00FF00
01FF80
03FFC0
07FFE0
0FFFF0
1FFFF8
3FFFFC
7FFFFE
FFFFFF
FF7EFF
FE7E7F
FC7E3F
F87E1F
007E00
007E00
007E00
FFFFFF
FFFFFF
FFFFFF
FFFFFF
FFFFFF
FFFFFF
ENDCHAR
STARTCHAR 21A6
ENCODING 8614
SWIDTH 750 0
DWIDTH 27 0
BBX 24 24 2 0
BITMAP
FC7C00
FC7E00
FC7F00
FC7F80
FC7FC0
FC3FE0
FC1FF0
FC0FF8
FC07FC
FFFFFE
FFFFFF
FFFFFF
FFFFFF
FFFFFF
FFFFFE
FC07FC
FC0FF8
FC1FF0
FC3FE0
FC7FC0
FC7F80
FC7F00
FC7E00
FC7C00
ENDCHAR
STARTCHAR 21A7
ENCODING 8615
SWIDTH 750 0
DWIDTH 27 0
BBX 24 24 2 0
BITMAP
FFFFFF
FFFFFF
FFFFFF
FFFFFF
FFFFFF
FFFFFF
007E00
007E00
007E00
F87E1F
FC7E3F
FE7E7F
FF7EFF
FFFFFF
7FFFFE
3FFFFC
1FFFF8
0FFFF0
07FFE0
03FFC0
01FF80
00FF00
007E00
003C00
ENDCHAR
STARTCHAR 21A9
ENCODING 8617
SWIDTH 777 0
DWIDTH 28 0
BBX 24 24 2 0
BITMAP
003E3F
007E3F
00FE3F
01FE3F
03FE3F
07FC3F
0FF83F
1FF03F
3FE03F
7FFFFF
FFFFFE
FFFFFE
FFFFFC
FFFFF8
7FFFE0
3FE000
1FF000
0FF800
07FC00
03FE00
01FE00
00FE00
007E00
003E00
ENDCHAR
STARTCHAR 21AA
ENCODING 8618
SWIDTH 750 0
DWIDTH 27 0
BBX 24 24 2 0
BITMAP
FC7C00
FC7E00
FC7F00
FC7F80
FC7FC0
FC3FE0
FC1FF0
FC0FF8
FC07FC
FFFFFE
7FFFFF
7FFFFF
3FFFFF
1FFFFF
07FFFE
0007FC
000FF8
001FF0
003FE0
007FC0
007F80
007F00
007E00
007C00
ENDCHAR
STARTCHAR 21B0
ENCODING 8624
SWIDTH 777 0
DWIDTH 28 0
BBX 24 24 2 0
BITMAP
003E00
007E00
00FE00
01FE00
03FE00
07FC00
0FF800
1FF000
3FE000
7FFFFF
FFFFFF
FFFFFF
FFFFFF
FFFFFF
7FFFFF
3FE03F
1FF03F
0FF83F
07FC3F
03FE3F
01FE3F
00FE3F
007E3F
003E3F
ENDCHAR
STARTCHAR 21B1
ENCODING 8625
SWIDTH 750 0
DWIDTH 27 0
BBX 24 24 2 0
BITMAP
007C00
007E00
007F00
007F80
007FC0
003FE0
001FF0
000FF8
0007FC
FFFFFE
FFFFFF
FFFFFF
FFFFFF
FFFFFF
FFFFFE
FC07FC
FC0FF8
FC1FF0
FC3FE0
FC7FC0
FC7F80
FC7F00
FC7E00
FC7C00
ENDCHAR
STARTCHAR 21B2
ENCODING 8626
SWIDTH 777 0
DWIDTH 28 0
BBX 24 24 2 0
BITMAP
003E3F
007E3F
00FE3F
01FE3F
03FE3F
07FC3F
0FF83F
1FF03F
3FE03F
7FFFFF
FFFFFF
FFFFFF
FFFFFF
FFFFFF
7FFFFF
3FE000
1FF000
0FF800
07FC00
03FE00
01FE00
00FE00
007E00
003E00
ENDCHAR
STARTCHAR 21B3
ENCODING 8627
SWIDTH 750 0
DWIDTH 27 0
BBX 24 24 2 0
BITMAP
FC7C00
FC7E00
FC7F00
FC7F80
FC7FC0
FC3FE0
FC1FF0
FC0FF8
FC07FC
FFFFFE
FFFFFF
FFFFFF
FFFFFF
FFFFFF
FFFFFE
0007FC
000FF8
001FF0
003FE0
007FC0
007F80
007F00
007E00
007C00
ENDCHAR
STARTCHAR 21B4
ENCODING 8628
SWIDTH 750 0
DWIDTH 27 0
BBX 24 24 2 0
BITMAP
FFFE00
FFFE00
FFFE00
FFFE00
FFFE00
FFFE00
007E00
007E00
007E00
F87E1F
FC7E3F
FE7E7F
FF7EFF
FFFFFF
7FFFFE
3FFFFC
1FFFF8
0FFFF0
07FFE0
03FFC0
01FF80
00FF00
007E00
003C00
ENDCHAR
STARTCHAR 21B5
ENCODING 8629
SWIDTH 777 0
DWIDTH 28 0
BBX 24 24 2 0
BITMAP
003E3F
007E3F
00FE3F
01FE3F
03FE3F
07FC3F
0FF83F
1FF03F
3FE03F
7FFFFF
FFFFFF
FFFFFF
FFFFFF
FFFFFF
7FFFFF
3FE000
1FF000
0FF800
07FC00
03FE00
01FE00
00FE00
007E00
003E00
ENDCHAR
STARTCHAR 21BC
ENCODING 8636
SWIDTH 750 0
DWIDTH 27 0
BBX 24 15 2 9
BITMAP
003E00
007E00
00FE00
01FE00
03FE00
07FC00
0FF800
1FF000
3FE000
7FFFFF
FFFFFF
FFFFFF
FFFFFF
FFFFFF
FFFFFF
ENDCHAR
STARTCHAR 21BD
ENCODING 8637
SWIDTH 750 0
DWIDTH 27 0
BBX 24 15 2 0
BITMAP
FFFFFF
FFFFFF
FFFFFF
FFFFFF
FFFFFF
7FFFFF
3FE000
1FF000
0FF800
07FC00
03FE00
01FE00
00FE00
007E00
003E00
ENDCHAR
STARTCHAR 21BE
ENCODING 8638
SWIDTH 750 0
DWIDTH 27 0
BBX 15 24 11 0
BITMAP
F800
FC00
FE00
FF00
FF80
FFC0
FFE0
FFF0
FFF8
FFFC
FFFE
FDFE
FCFE
FC7E
FC3E
FC00
FC00
FC00
FC00
FC00
FC00
FC00
FC00
FC00
ENDCHAR
STARTCHAR 21BF
ENCODING 8639
SWIDTH 750 0
DWIDTH 27 0
BBX 15 24 2 0
BITMAP
003E
007E
00FE
01FE
03FE
07FE
0FFE
1FFE
3FFE
7FFE
FFFE
FF7E
FE7E
FC7E
F87E
007E
007E
007E
007E
007E
007E
007E
007E
007E
ENDCHAR
STARTCHAR 21C0
ENCODING 8640
SWIDTH 750 0
DWIDTH 27 0
BBX 24 15 2 9
BITMAP
007C00
007E00
007F00
007F80
007FC0
003FE0
001FF0
000FF8
0007FC
FFFFFE
FFFFFF
FFFFFF
FFFFFF
FFFFFF
FFFFFF
ENDCHAR
STARTCHAR 21C1
ENCODING 8641
SWIDTH 750 0
DWIDTH 27 0
BBX 24 15 2 0
BITMAP
FFFFFF
FFFFFF
FFFFFF
FFFFFF
FFFFFF
FFFFFE
0007FC
000FF8
001FF0
003FE0
007FC0
007F80
007F00
007E00
007C00
ENDCHAR
STARTCHAR 21C2
ENCODING 8642
SWIDTH 750 0
DWIDTH 27 0
BBX 15 24 11 0
BITMAP
FC00
FC00
FC00
FC00
FC00
FC00
FC00
FC00
FC00
FC3E
FC7E
FCFE
FDFE
FFFE
FFFC
FFF8
FFF0
FFE0
FFC0
FF80
FF00
FE00
FC00
F800
ENDCHAR
STARTCHAR 21C3
ENCODING 8643
SWIDTH 750 0
DWIDTH 27 0
BBX 15 24 2 0
BITMAP
007E
007E
007E
007E
007E
007E
007E
007E
007E
F87E
FC7E
FE7E
FF7E
FFFE
7FFE
3FFE
1FFE
0FFE
07FE
03FE
01FE
00FE
007E
003E
ENDCHAR
STARTCHAR 21E0
ENCODING 8672
SWIDTH 777 0
DWIDTH 28 0
BBX 24 24 2 0
BITMAP
003E00
007E00
00FE00
01FE00
03FE00
07FC00
0FF800
1FF000
3FE000
7FFE3F
FFFE3F
FFFE3F
FFFE3F
FFFE3F
7FFE3F
3FE000
1FF000
0FF800
07FC00
03FE00
01FE00
00FE00
007E00
003E00
ENDCHAR
STARTCHAR 21E1
ENCODING 8673
SWIDTH 750 0
DWIDTH 27 0
BBX 24 24 2 0
BITMAP
003C00
007E00
00FF00
01FF80
03FFC0
07FFE0
0FFFF0
1FFFF8
3FFFFC
7FFFFE
FFFFFF
FF7EFF
FE7E7F
FC7E3F
F87E1F
000000
000000
000000
007E00
007E00
007E00
007E00
007E00
007E00
ENDCHAR
STARTCHAR 21E2
ENCODING 8674
SWIDTH 750 0
DWIDTH 27 0
BBX 24 24 2 0
BITMAP
007C00
007E00
007F00
007F80
007FC0
003FE0
001FF0
000FF8
0007FC
FC7FFE
FC7FFF
FC7FFF
FC7FFF
FC7FFF
FC7FFE
0007FC
000FF8
001FF0
003FE0
007FC0
007F80
007F00
007E00
007C00
ENDCHAR
STARTCHAR 21E3
ENCODING 8675
SWIDTH 750 0
DWIDTH 27 0
BBX 24 24 2 0
BITMAP
007E00
007E00
007E00
007E00
007E00
007E00
000000
000000
000000
F87E1F
FC7E3F
FE7E7F
FF7EFF
FFFFFF
7FFFFE
3FFFFC
1FFFF8
0FFFF0
07FFE0
03FFC0
01FF80
00FF00
007E00
003C00
ENDCHAR
STARTCHAR 21E4
ENCODING 8676
SWIDTH 750 0
DWIDTH 27 0
BBX 24 24 2 0
BITMAP
FC07C0
FC0FC0
FC1FC0
FC3FC0
FC7FC0
FCFF80
FDFF00
FFFE00
FFFC00
FFFFFF
FFFFFF
FFFFFF
FFFFFF
FFFFFF
FFFFFF
FFFC00
FFFE00
FDFF00
FCFF80
FC7FC0
FC3FC0
FC1FC0
FC0FC0
FC07C0
ENDCHAR
STARTCHAR 21E5
ENCODING 8677
SWIDTH 750 0
DWIDTH 27 0
BBX 24 24 2 0
BITMAP
03E03F
03F03F
03F83F
03FC3F
03FE3F
01FF3F
00FFBF
007FFF
003FFF
FFFFFF
FFFFFF
FFFFFF
FFFFFF
FFFFFF
FFFFFF
003FFF
007FFF
00FFBF
01FF3F
03FE3F
03FC3F
03F83F
03F03F
03E03F
ENDCHAR
STARTCHAR 2212
ENCODING 8722
SWIDTH 750 0
DWIDTH 27 0
BBX 24 6 2 9
BITMAP
FFFFFF
FFFFFF
FFFFFF
FFFFFF
FFFFFF
FFFFFF
ENDCHAR
STARTCHAR 223C
ENCODING 8764
SWIDTH 777 0
DWIDTH 28 0
BBX 24 12 2 6
BITMAP
07C03F
1FF03F
3FF83F
7FFC3F
7FFE3F
FFFE3F
FC7FFF
FC7FFE
FC3FFE
FC1FFC
FC0FF8
FC03E0
ENDCHAR
STARTCHAR 223D
ENCODING 8765
SWIDTH 777 0
DWIDTH 28 0
BBX 24 12 2 6
BITMAP
FC03E0
FC0FF8
FC1FFC
FC3FFE
FC7FFE
FC7FFF
FFFE3F
7FFC3F
7FFC3F
3FF83F
1FF03F
07C03F
ENDCHAR
STARTCHAR 2242
ENCODING 8770
SWIDTH 777 0
DWIDTH 28 0
BBX 24 21 2 2
BITMAP
FFFFFF
FFFFFF
FFFFFF
FFFFFF
FFFFFF
FFFFFF
000000
000000
000000
07C03F
1FF03F
3FF83F
7FFC3F
7FFE3F
FFFE3F
FC7FFF
FC7FFE
FC3FFE
FC1FFC
FC0FF8
FC03E0
ENDCHAR
STARTCHAR 2243
ENCODING 8771
SWIDTH 777 0
DWIDTH 28 0
BBX 24 21 2 2
BITMAP
07C03F
1FF03F
3FF83F
7FFC3F
7FFE3F
FFFE3F
FC7FFF
FC7FFE
FC3FFE
FC1FFC
FC0FF8
FC03E0
000000
000000
000000
FFFFFF
FFFFFF
FFFFFF
FFFFFF
FFFFFF
FFFFFF
ENDCHAR
STARTCHAR 22CC
ENCODING 8908
SWIDTH 750 0
DWIDTH 27 0
BBX 24 24 2 0
BITMAP
00001F
00003F
00007F
0000FF
0001FF
0003FE
0007FC
000FF8
001FF0
003FE0
007FC0
00FFC0
01FFC0
03FFC0
07FFC0
0FFFC0
1FFFC0
3FEFC0
7FCFC0
FF8FC0
FF0FC0
FE0FC0
FC0FC0
F80FC0
ENDCHAR
STARTCHAR 25CA
ENCODING 9674
SWIDTH 750 0
DWIDTH 27 0
BBX 23 24 2 0
BITMAP
003800
007C00
00FE00
01FF00
03FF80
07FFC0
0FFFE0
1FFFF0
3FEFF8
7FC7FC
FF83FE
FF01FE
FF01FE
FF83FE
7FC7FC
3FEFF8
1FFFF0
0FFFE0
07FFC0
03FF80
01FF00
00FE00
007C00
003800
ENDCHAR
STARTCHAR E001
ENCODING 57345
SWIDTH 777 0
DWIDTH 28 0
BBX 24 24 2 0
BITMAP
07FFE0
1FFFF8
3FFFFC
7FFFFE
7FFFFE
FFFFFF
FE007F
FC003F
00003F
007FFF
007FFF
007FFF
007FFF
007FFF
007FFF
00003F
FC003F
FE007F
FFFFFF
7FFFFE
7FFFFE
3FFFFC
1FFFF8
07FFE0
ENDCHAR
STARTCHAR E002
ENCODING 57346
SWIDTH 750 0
DWIDTH 27 0
BBX 24 24 2 0
BITMAP
007E00
007E00
007E00
007E00
007E00
007E00
007E00
007E00
007E00
007E00
007E00
007E00
007E00
007E00
007E00
007E00
007E00
007E00
FFFFFF
FFFFFF
FFFFFF
FFFFFF
FFFFFF
FFFFFF
ENDCHAR
STARTCHAR E003
ENCODING 57347
SWIDTH 777 0
DWIDTH 28 0
BBX 24 24 2 0
BITMAP
FC001F
FC003F
FC007F
FC00FF
FC01FF
FC03FF
FC07FF
FC0FFF
FC1FFF
FC3FFF
FC7FFF
FCFFBF
FDFF3F
FFFE3F
FFFC3F
FFF83F
FFF03F
FFE03F
FFC03F
FF803F
FF003F
FE003F
FC003F
F8003F
ENDCHAR
STARTCHAR E004
ENCODING 57348
SWIDTH 750 0
DWIDTH 27 0
BBX 24 24 2 0
BITMAP
FE007F
FF81FF
FFC3FF
FFE7FF
FFE7FF
FFFFFF
03FFC0
03FFC0
03FFC0
FFFFFF
FFE7FF
FFE7FF
FFE7FF
FFE7FF
FFFFFF
03FFC0
03FFC0
03FFC0
FFFFFF
FFE7FF
FFE7FF
FFC3FF
FF81FF
FE007F
ENDCHAR
STARTCHAR E005
ENCODING 57349
SWIDTH 777 0
DWIDTH 28 0
BBX 24 24 2 0
BITMAP
07FE3F
1FFE3F
3FFE3F
7FFE3F
7FFE3F
FFFE3F
FC003F
FC003F
FC003F
FFFE3F
FFFE3F
FFFE3F
FFFE3F
FFFE3F
FFFE3F
FC003F
FC003F
FC003F
FFFE3F
7FFE3F
7FFE3F
3FFE3F
1FFE3F
07FE3F
ENDCHAR
STARTCHAR E006
ENCODING 57350
SWIDTH 750 0
DWIDTH 27 0
BBX 24 24 2 0
BITMAP
0FFFE0
1FFFF8
7FFFFC
7FFFFE
FFFFFE
FFFFFE
FFFFFF
FFFFFF
FFFFFF
FFFFFF
FFFFFF
FFFFFF
FFFFFF
FFFFFF
FFFFFF
FFFFFF
FFFFFF
FFFFFF
FFFFFE
FFFFFE
7FFFFE
7FFFFC
1FFFF8
0FFFE0
ENDCHAR
STARTCHAR E007
ENCODING 57351
SWIDTH 750 0
DWIDTH 27 0
BBX 12 12 8 6
BITMAP
FFF0
FFF0
FFF0
FFF0
FFF0
FFF0
FFF0
FFF0
FFF0
FFF0
FFF0
FFF0
ENDCHAR
STARTCHAR E008
ENCODING 57352
SWIDTH 777 0
DWIDTH 28 0
BBX 24 24 2 0
BITMAP
FC003F
FC003F
FC003F
FC003F
FC003F
FC003F
000000
000000
000000
007E00
007E00
007E00
007E00
007E00
007E00
000000
000000
000000
FC003F
FC003F
FC003F
FC003F
FC003F
FC003F
ENDCHAR
STARTCHAR E009
ENCODING 57353
SWIDTH 777 0
DWIDTH 28 0
BBX 24 24 2 0
BITMAP
007E00
007E00
007E00
007E00
007E00
007E00
007E00
007E00
007E00
FC7E3F
FC7E3F
FC7E3F
FC7E3F
FC7E3F
FC7E3F
FC7E3F
FC7E3F
FC7E3F
FFFFFF
7FFFFE
7FFFFE
3FFFFC
1FFFF8
07FFE0
ENDCHAR
STARTCHAR E00A
ENCODING 57354
SWIDTH 777 0
DWIDTH 28 0
BBX 24 24 2 0
BITMAP
07FFE0
1FFFF8
3FFFFC
7FFFFE
7FFFFE
FFFFFF
FC003F
FC003F
FC003F
FC03FF
FC0FFE
FC1FFE
FC3FFC
FC3FF8
FC7FE0
FC7E00
FC7E00
FC7E00
FC7FFF
FC3FFF
FC3FFF
FC1FFF
FC0FFF
FC03FF
ENDCHAR
STARTCHAR E00B
ENCODING 57355
SWIDTH 777 0
DWIDTH 28 0
BBX 24 24 2 0
BITMAP
07C03F
1FF03F
3FF83F
7FFC3F
7FFC3F
FFFE3F
FC7E3F
FC7E3F
FC7E3F
FC7E3F
FC7E3F
FC7E3F
FC7E3F
FC7E3F
FC7E3F
FC7E3F
FC7E3F
FC7E3F
FC7FFF
FC3FFE
FC3FFE
FC1FFC
FC0FF8
FC03E0
ENDCHAR
STARTCHAR E00C
ENCODING 57356
SWIDTH 750 0
DWIDTH 27 0
BBX 24 24 2 0
BITMAP
001FFF
007FFF
00FFFF
01FFFF
01FFFF
03FFFF
03F000
03F000
03F000
FFFFC0
FFFFC0
FFFFC0
FFFFC0
FFFFC0
FFFFC0
03F000
03F000
03F000
03FFFF
01FFFF
01FFFF
00FFFF
007FFF
001FFF
ENDCHAR
STARTCHAR E00D
ENCODING 57357
SWIDTH 750 0
DWIDTH 27 0
BBX 24 24 2 0
BITMAP
FFFFFF
FFFFFF
FFFFFF
FFFFFF
FFFFFF
FFFFFF
1F8000
1F8000
1F8000
1FFFC0
1FFFC0
1FFFC0
1FFFC0
1FFFC0
1FFFC0
1F8000
1F8000
1F8000
FFFFFF
FFFFFF
FFFFFF
FFFFFF
FFFFFF
FFFFFF
ENDCHAR
STARTCHAR E00E
ENCODING 57358
SWIDTH 777 0
DWIDTH 28 0
BBX 24 24 2 0
BITMAP
FFFFFF
FFFFFF
FFFFFF
FFFFFF
FFFFFF
FFFFFF
1F81F8
1F81F8
1F81F8
1F81F8
1F81F8
1F81F8
1F81F8
1F81F8
1F81F8
1F81F8
1F81F8
1F81F8
FFFFFF
FFFFFF
FFFFFF
FFFFFF
FFFFFF
FFFFFF
ENDCHAR
STARTCHAR E00F
ENCODING 57359
SWIDTH 777 0
DWIDTH 28 0
BBX 24 24 2 0
BITMAP
FC003F
FC003F
FC003F
FC003F
FC003F
FC003F
FC003F
FC003F
FC003F
FFFFFF
7FFFFE
7FFFFE
3FFFFC
1FFFF8
07FFE0
007E00
007E00
007E00
007E00
007E00
007E00
007E00
007E00
007E00
ENDCHAR
STARTCHAR E010
ENCODING 57360
SWIDTH 777 0
DWIDTH 28 0
BBX 24 24 2 0
BITMAP
07FFE0
1FFFF8
3FFFFC
7FFFFE
7FFFFE
FFFFFF
FC003F
FC003F
FC003F
FFFFFF
FFFFFE
FFFFFE
FFFFFC
FFFFF8
FFFFE0
FC1FF0
FC0FF8
FC07FC
FC03FE
FC01FF
FC00FF
FC007F
FC003F
FC001F
ENDCHAR
STARTCHAR E011
ENCODING 57361
SWIDTH 777 0
DWIDTH 28 0
BBX 24 24 2 0
BITMAP
FC03FF
FC0FFF
FC1FFF
FC3FFF
FC3FFF
FC7FFF
FC7E00
FC7E00
FC7E00
FFFFE0
FFFFF8
FFFFFC
FFFFFE
FFFFFE
FFFFFF
FC003F
FC003F
FC003F
FFFFFF
7FFFFE
7FFFFE
3FFFFC
1FFFF8
07FFE0
ENDCHAR
STARTCHAR E012
ENCODING 57362
SWIDTH 777 0
DWIDTH 28 0
BBX 24 24 2 0
BITMAP
FC03FF
FC0FFF
FC1FFF
FC3FFF
FC3FFF
FC7FFF
FC7E00
FC7E00
FC7E00
FFFFE0
FFFFF8
FFFFFC
FFFFFE
FFFFFE
FFFFFF
FC003F
FC003F
FC003F
FC003F
FC003F
FC003F
FC003F
FC003F
FC003F
ENDCHAR
STARTCHAR E013
ENCODING 57363
SWIDTH 777 0
DWIDTH 28 0
BBX 24 24 2 0
BITMAP
FC003F
FC003F
FC003F
FC003F
FC003F
FC003F
FC003F
FC003F
FC003F
FFFFFF
FFFFFE
FFFFFE
FFFFFC
FFFFF8
FFFFE0
FC7E00
FC7E00
FC7E00
FC7FFF
FC3FFF
FC3FFF
FC1FFF
FC0FFF
FC03FF
ENDCHAR
STARTCHAR E014
ENCODING 57364
SWIDTH 750 0
DWIDTH 27 0
BBX 24 24 2 0
BITMAP
FC03FF
FC0FFF
FC1FFF
FC3FFF
FC3FFF
FC7FFF
FC7E00
FC7E00
FC7E00
FFFE00
FFFE00
FFFE00
FFFE00
FFFE00
FFFE00
FC7E00
FC7E00
FC7E00
FC7FFF
FC3FFF
FC3FFF
FC1FFF
FC0FFF
FC03FF
ENDCHAR
STARTCHAR E015
ENCODING 57365
SWIDTH 750 0
DWIDTH 27 0
BBX 24 24 2 0
BITMAP
FFFFFF
FFFFFF
FFFFFF
FFFFFF
FFFFFF
FFFFFF
007E00
007E00
007E00
FFFFFF
FFFFFF
FFFFFF
FFFFFF
FFFFFF
FFFFFF
007E00
007E00
007E00
FFFFFF
FFFFFF
FFFFFF
FFFFFF
FFFFFF
FFFFFF
ENDCHAR
STARTCHAR E016
ENCODING 57366
SWIDTH 750 0
DWIDTH 27 0
BBX 25 24 1 0
BITMAP
FFFFFF80
FFFFFF80
FFFFFF80
FFFFFF80
FFFFFF80
FFFFFF80
07E3F000
07E3F000
07E3F000
FFFFFF80
FFFFFF80
FFFFFF80
FFFFFF80
FFFFFF80
FFFFFF80
07E3F000
07E3F000
07E3F000
FFFFFF80
FFFFFF80
FFFFFF80
FFFFFF80
FFFFFF80
FFFFFF80
ENDCHAR
STARTCHAR E017
ENCODING 57367
SWIDTH 777 0
DWIDTH 28 0
BBX 24 24 2 0
BITMAP
FFFFFF
FFFFFF
FFFFFF
FFFFFF
FFFFFF
FFFFFF
FC7E3F
FC7E3F
FC7E3F
FFFFFF
FFFFFF
FFFFFF
FFFFFF
FFFFFF
FFFFFF
FC7E3F
FC7E3F
FC7E3F
FFFFFF
FFFFFF
FFFFFF
FFFFFF
FFFFFF
FFFFFF
ENDCHAR
STARTCHAR E018
ENCODING 57368
SWIDTH 777 0
DWIDTH 28 0
BBX 24 24 2 0
BITMAP
07C000
1FF000
3FF800
7FFC00
7FFC00
FFFE00
FE7E00
FC7E00
FE7E00
FF7FE0
7F3FF8
7F3FFC
3F1FFE
1F0FFE
0703FF
00003F
007E3F
007F3F
007FFF
003FFE
003FFE
001FFC
000FF8
0003E0
ENDCHAR
STARTCHAR E019
ENCODING 57369
SWIDTH 777 0
DWIDTH 28 0
BBX 24 24 2 0
BITMAP
07C03F
1FF03F
3FF83F
7FFC3F
7FFC3F
FFFE3F
FC7E3F
FC7E3F
FC7E3F
FFFE3F
7FFC3F
7FFC3F
3FF83F
1FF03F
07C03F
00003F
00003F
00003F
FFFFFF
FFFFFE
FFFFFE
FFFFFC
FFFFF8
FFFFE0
ENDCHAR
STARTCHAR E01A
ENCODING 57370
SWIDTH 750 0
DWIDTH 27 0
BBX 24 24 2 0
BITMAP
07C3FF
1FFFFF
3FFFFF
7FFFFF
7FFFFF
FFFFFF
FC7E00
FC7E00
FC7E00
FFFFF8
FFFFF8
FFFFF8
FFFFF8
FFFFF8
FFFFF8
FC7E00
FC7E00
FC7E00
FC7FFF
FC7FFF
FC7FFF
FC7FFF
FC7FFF
FC7FFF
ENDCHAR
STARTCHAR E01B
ENCODING 57371
SWIDTH 777 0
DWIDTH 28 0
BBX 24 24 2 0
BITMAP
00FFFF
03FFFF
07FFFF
0FFFFF
0FFFFF
1FFFFF
1F8000
1F8000
1F8000
1FFF00
0FFFC0
0FFFE0
07FFF0
03FFF0
00FFF8
0001F8
0001F8
0001F8
FFFFF8
FFFFF0
FFFFF0
FFFFE0
FFFFC0
FFFF00
ENDCHAR
STARTCHAR E01C
ENCODING 57372
SWIDTH 750 0
DWIDTH 27 0
BBX 24 24 2 0
BITMAP
0003FF
000FFF
001FFF
003FFF
003FFF
007FFF
007E00
007E00
007E00
007E00
007E00
007E00
007E00
007E00
007E00
007E00
007E00
007E00
FFFE00
FFFC00
FFFC00
FFF800
FFF000
FFC000
ENDCHAR
STARTCHAR E01D
ENCODING 57373
SWIDTH 777 0
DWIDTH 28 0
BBX 24 15 2 5
BITMAP
07C03F
1FF03F
3FF83F
7FFC3F
7FFC3F
FFFE3F
FC7E3F
FC7E3F
FC7E3F
FC7FFF
FC3FFE
FC3FFE
FC1FFC
FC0FF8
FC03E0
ENDCHAR
STARTCHAR E01E
ENCODING 57374
SWIDTH 777 0
DWIDTH 28 0
BBX 24 14 2 6
BITMAP
07C03F
1FF03F
3FF83F
7FFC3F
7FFC3F
FFFE3F
FC7E3F
FC7E7F
FC7FFF
FC3FFE
FC3FFE
FC1FFC
FC0FF8
FC03E0
ENDCHAR
STARTCHAR E020
ENCODING 57376
SWIDTH 777 0
DWIDTH 28 0
BBX 24 24 2 0
BITMAP
007E00
007E00
007E00
007E00
007E00
007E00
000000
000000
000000
07FE00
1FFE00
3FFC00
7FF800
7FF000
FFC000
FC003F
FC003F
FC003F
FFFFFF
7FFFFE
7FFFFE
3FFFFC
1FFFF8
07FFE0
ENDCHAR
STARTCHAR E021
ENCODING 57377
SWIDTH 777 0
DWIDTH 28 0
BBX 24 24 2 0
BITMAP
07FFE0
1FFFF8
3FFFFC
7FFFFE
7FFFFE
FFFFFF
FC003F
FC003F
FC003F
0003FF
000FFE
001FFE
003FFC
007FF8
007FE0
000000
000000
000000
007E00
007E00
007E00
007E00
007E00
007E00
ENDCHAR
STARTCHAR E022
ENCODING 57378
SWIDTH 777 0
DWIDTH 28 0
BBX 24 24 2 0
BITMAP
007E00
01FF80
03FFC0
07FFE0
07FFE0
0FFFF0
0FE7F0
0FC3F0
0FE7F0
0FFFF0
07FFE0
07FFE0
03FFC0
01FF80
007E00
007E00
007E00
007E00
FFFFFF
FFFFFF
FFFFFF
FFFFFF
FFFFFF
FFFFFF
ENDCHAR
STARTCHAR E023
ENCODING 57379
SWIDTH 750 0
DWIDTH 27 0
BBX 24 24 2 0
BITMAP
007E00
01FF80
03FFC0
07FFE0
FFFFFF
FFFFFF
FFE7FF
FFC7FF
FFC7FF
FFFFFF
07FFE0
03FFC0
01FF80
00FF00
007E00
007E00
007E00
007E00
FFFFFF
FFFFFF
FFFFFF
FFFFFF
FFFFFF
FFFFFF
ENDCHAR
STARTCHAR E040
ENCODING 57408
SWIDTH 777 0
DWIDTH 28 0
BBX 24 24 2 0
BITMAP
0003E0
000FF8
001FFC
003FFE
003FFE
007FFF
007E3F
007E3F
007E3F
07FFFF
1FFFFE
3FFFFE
7FFFFC
7FFFF8
FFFFE0
FC7E00
FC7E00
FC7E00
FFFE00
7FFC00
7FFC00
3FF800
1FF000
07C000
ENDCHAR
STARTCHAR E041
ENCODING 57409
SWIDTH 777 0
DWIDTH 28 0
BBX 24 24 2 0
BITMAP
07C000
1FF000
3FF800
7FFC00
7FFC00
FFFE00
FC7E00
FC7E00
FC7E00
FFFFE0
7FFFF8
7FFFFC
3FFFFE
1FFFFE
07FFFF
007E3F
007E3F
007E3F
007FFF
003FFE
003FFE
001FFC
000FF8
0003E0
ENDCHAR
STARTCHAR E042
ENCODING 57410
SWIDTH 750 0
DWIDTH 27 0
BBX 24 24 2 0
BITMAP
007E00
007E00
007E00
007E00
007E00
007E00
007E00
007E00
007E00
07FFFF
1FFFFF
3FFFFF
7FFFFF
7FFFFF
FFFFFF
FC7E00
FC7E00
FC7E00
FFFE00
7FFC00
7FFC00
3FF800
1FF000
07C000
ENDCHAR
STARTCHAR E043
ENCODING 57411
SWIDTH 777 0
DWIDTH 28 0
BBX 24 24 2 0
BITMAP
0003E0
000FF8
001FFC
003FFE
003FFE
007FFF
007E3F
007E3F
007E3F
FFFFFF
FFFFFE
FFFFFE
FFFFFC
FFFFF8
FFFFE0
007E00
007E00
007E00
007E00
007E00
007E00
007E00
007E00
007E00
ENDCHAR
STARTCHAR E044
ENCODING 57412
SWIDTH 750 0
DWIDTH 27 0
BBX 25 24 1 0
BITMAP
FFF00000
FFFC0000
FFFE0000
FFFF0000
FFFF0000
FFFF8000
001F8000
001F8000
001F8000
01FFFF80
07FFFF80
0FFFFF80
1FFFFF80
1FFFFF80
3FFFFF80
3F1F8000
3F1F8000
3F1F8000
3FFF8000
1FFF0000
1FFF0000
0FFE0000
07FC0000
01F00000
ENDCHAR
STARTCHAR E045
ENCODING 57413
SWIDTH 750 0
DWIDTH 27 0
BBX 25 24 1 0
BITMAP
0007C000
001FF000
003FF800
007FFC00
007FFC00
00FFFE00
00FC7E00
00FC7E00
00FC7E00
FFFFFE00
FFFFFC00
FFFFFC00
FFFFF800
FFFFF000
FFFFC000
00FC0000
00FC0000
00FC0000
00FFFF80
007FFF80
007FFF80
003FFF80
001FFF80
0007FF80
ENDCHAR
STARTCHAR E046
ENCODING 57414
SWIDTH 750 0
DWIDTH 27 0
BBX 24 24 2 0
BITMAP
0003FF
000FFF
001FFF
003FFF
003FFF
007FFF
007E00
007E00
007E00
07FFFF
1FFFFF
3FFFFF
7FFFFF
7FFFFF
FFFFFF
FC7E00
FC7E00
FC7E00
FFFE00
7FFC00
7FFC00
3FF800
1FF000
07C000
ENDCHAR
STARTCHAR E047
ENCODING 57415
SWIDTH 777 0
DWIDTH 28 0
BBX 24 24 2 0
BITMAP
0003E0
000FF8
001FFC
003FFE
003FFE
007FFF
007E3F
007E3F
007E3F
FFFFFF
FFFFFE
FFFFFE
FFFFFC
FFFFF8
FFFFE0
007E00
007E00
007E00
FFFE00
FFFC00
FFFC00
FFF800
FFF000
FFC000
ENDCHAR
STARTCHAR E04A
ENCODING 57418
SWIDTH 777 0
DWIDTH 28 0
BBX 24 24 2 0
BITMAP
07FFE0
1FFFF8
3FFFFC
7FFFFE
7FFFFE
FFFFFF
FC003F
FC003F
FC003F
FFFFFF
7FFFFE
7FFFFE
3FFFFC
1FFFF8
07FFE0
0FFFF0
1FFFF8
3FFFFC
7FFFFE
FFFFFF
FF7EFF
FE7E7F
FC7E3F
F87E1F
ENDCHAR
STARTCHAR E04B
ENCODING 57419
SWIDTH 777 0
DWIDTH 28 0
BBX 24 24 2 0
BITMAP
F87E1F
FC7E3F
FE7E7F
FF7EFF
FFFFFF
7FFFFE
3FFFFC
1FFFF8
0FFFF0
07FFE0
1FFFF8
3FFFFC
7FFFFE
7FFFFE
FFFFFF
FC003F
FC003F
FC003F
FFFFFF
7FFFFE
7FFFFE
3FFFFC
1FFFF8
07FFE0
ENDCHAR
STARTCHAR E04C
ENCODING 57420
SWIDTH 750 0
DWIDTH 27 0
BBX 24 24 2 0
BITMAP
F803E0
FC0FF8
FE1FFC
FF3FFE
FFFFFE
7FFFFF
3FFE3F
1FFE3F
0FFE3F
FFFE3F
FFFE3F
FFFE3F
FFFE3F
FFFE3F
FFFE3F
0FFE3F
1FFE3F
3FFE3F
7FFFFF
FFFFFE
FF3FFE
FE1FFC
FC0FF8
F803E0
ENDCHAR
STARTCHAR E04D
ENCODING 57421
SWIDTH 750 0
DWIDTH 27 0
BBX 24 24 2 0
BITMAP
07C01F
1FF03F
3FF87F
7FFCFF
7FFDFF
FFFFFE
FC7FFC
FC7FF8
FC7FF0
FC7FFF
FC7FFF
FC7FFF
FC7FFF
FC7FFF
FC7FFF
FC7FF0
FC7FF8
FC7FFC
FFFFFE
7FFDFF
7FFCFF
3FF87F
1FF03F
07C01F
ENDCHAR
STARTCHAR E050
ENCODING 57424
SWIDTH 777 0
DWIDTH 28 0
BBX 24 24 2 0
BITMAP
FC7E3F
FC7E3F
FC7E3F
FC7E3F
FC7E3F
FC7E3F
FFFFFF
7FFFFE
7FFFFE
3FFFFC
1FFFF8
07C3E0
003E00
00FF80
01FFC0
03FFE0
03FFE0
07FFF0
07E3F0
07E3F0
07E3F0
07E3F0
07E3F0
07E3F0
ENDCHAR
STARTCHAR E051
ENCODING 57425
SWIDTH 777 0
DWIDTH 28 0
BBX 24 24 2 0
BITMAP
07E3F0
07E3F0
07E3F0
07E3F0
07E3F0
07E3F0
07FFF0
03FFE0
03FFE0
01FFC0
00FF80
003E00
07C3E0
1FFFF8
3FFFFC
7FFFFE
7FFFFE
FFFFFF
FC7E3F
FC7E3F
FC7E3F
FC7E3F
FC7E3F
FC7E3F
ENDCHAR
STARTCHAR E052
ENCODING 57426
SWIDTH 750 0
DWIDTH 27 0
BBX 24 24 2 0
BITMAP
00007F
0001FF
0003FF
0007FF
FE07FF
FF8FFF
FFCFC0
FFEFC0
FFEFC0
FFFFFF
03F7FF
03F7FF
03F7FF
FFF7FF
FFEFFF
FFEFC0
FFCFC0
FF8FC0
FE0FFF
0007FF
0007FF
0003FF
0001FF
00007F
ENDCHAR
STARTCHAR E053
ENCODING 57427
SWIDTH 750 0
DWIDTH 27 0
BBX 24 24 2 0
BITMAP
FE0000
FF8000
FFC000
FFE000
FFE07F
FFF1FF
03F3FF
03F7FF
03F7FF
FFFFFF
FFEFC0
FFEFC0
FFEFC0
FFEFFF
FFF7FF
03F7FF
03F3FF
03F1FF
FFF07F
FFE000
FFE000
FFC000
FF8000
FE0000
ENDCHAR
STARTCHAR E055
ENCODING 57429
SWIDTH 777 0
DWIDTH 28 0
BBX 24 24 2 0
BITMAP
07FFE0
1FFFF8
3FFFFC
7FFFFE
7FFFFE
FFFFFF
FC003F
FC003F
FC003F
FFFFFF
7FFFFE
7FFFFE
3FFFFC
1FFFF8
07FFE0
007E00
007E00
007E00
FFFFFF
FFFFFF
FFFFFF
FFFFFF
FFFFFF
FFFFFF
ENDCHAR
STARTCHAR E056
ENCODING 57430
SWIDTH 777 0
DWIDTH 28 0
BBX 24 24 2 0
BITMAP
FFFFFF
FFFFFF
FFFFFF
FFFFFF
FFFFFF
FFFFFF
007E00
007E00
007E00
07FFE0
1FFFF8
3FFFFC
7FFFFE
7FFFFE
FFFFFF
FC003F
FC003F
FC003F
FFFFFF
7FFFFE
7FFFFE
3FFFFC
1FFFF8
07FFE0
ENDCHAR
STARTCHAR E057
ENCODING 57431
SWIDTH 777 0
DWIDTH 28 0
BBX 24 24 2 0
BITMAP
FC03E0
FC0FF8
FC1FFC
FC3FFE
FC3FFE
FC7FFF
FC7E3F
FC7E3F
FC7E3F
FFFE3F
FFFE3F
FFFE3F
FFFE3F
FFFE3F
FFFE3F
FC7E3F
FC7E3F
FC7E3F
FC7FFF
FC3FFE
FC3FFE
FC1FFC
FC0FF8
FC03E0
ENDCHAR
STARTCHAR E058
ENCODING 57432
SWIDTH 777 0
DWIDTH 28 0
BBX 24 24 2 0
BITMAP
07C03F
1FF03F
3FF83F
7FFC3F
7FFC3F
FFFE3F
FC7E3F
FC7E3F
FC7E3F
FC7FFF
FC7FFF
FC7FFF
FC7FFF
FC7FFF
FC7FFF
FC7E3F
FC7E3F
FC7E3F
FFFE3F
7FFC3F
7FFC3F
3FF83F
1FF03F
07C03F
ENDCHAR
STARTCHAR E05A
ENCODING 57434
SWIDTH 777 0
DWIDTH 28 0
BBX 24 24 2 0
BITMAP
0003E0
000FF8
001FFC
003FFE
003FFE
007FFF
007E3F
007E3F
007E3F
07FE3F
1FFE3F
3FFE3F
7FFE3F
7FFE3F
FFFE3F
FC7E3F
FC7E3F
FC7E3F
FC7FFF
FC3FFE
FC3FFE
FC1FFC
FC0FF8
FC03E0
ENDCHAR
STARTCHAR E05B
ENCODING 57435
SWIDTH 777 0
DWIDTH 28 0
BBX 24 24 2 0
BITMAP
FC03E0
FC0FF8
FC1FFC
FC3FFE
FC3FFE
FC7FFF
FC7E3F
FC7E3F
FC7E3F
FFFE3F
7FFE3F
7FFE3F
3FFE3F
1FFE3F
07FE3F
007E3F
007E3F
007E3F
007FFF
003FFE
003FFE
001FFC
000FF8
0003E0
ENDCHAR
STARTCHAR E05C
ENCODING 57436
SWIDTH 777 0
DWIDTH 28 0
BBX 24 24 2 0
BITMAP
07C03F
1FF03F
3FF83F
7FFC3F
7FFC3F
FFFE3F
FC7E3F
FC7E3F
FC7E3F
FC7FFF
FC7FFE
FC7FFE
FC7FFC
FC7FF8
FC7FE0
FC7E00
FC7E00
FC7E00
FFFE00
7FFC00
7FFC00
3FF800
1FF000
07C000
ENDCHAR
STARTCHAR E05D
ENCODING 57437
SWIDTH 777 0
DWIDTH 28 0
BBX 24 24 2 0
BITMAP
07C000
1FF000
3FF800
7FFC00
7FFC00
FFFE00
FC7E00
FC7E00
FC7E00
FC7FE0
FC7FF8
FC7FFC
FC7FFE
FC7FFE
FC7FFF
FC7E3F
FC7E3F
FC7E3F
FFFE3F
7FFC3F
7FFC3F
3FF83F
1FF03F
07C03F
ENDCHAR
STARTCHAR E060
ENCODING 57440
SWIDTH 777 0
DWIDTH 28 0
BBX 24 24 2 0
BITMAP
07FFE0
1FFFF8
3FFFFC
7FFFFE
7FFFFE
FFFFFF
FC003F
FC003F
FC003F
FFFFFF
7FFFFE
7FFFFE
3FFFFC
1FFFF8
07FFE0
007E00
007E00
007E00
007FFF
003FFF
003FFF
001FFF
000FFF
0003FF
ENDCHAR
STARTCHAR E061
ENCODING 57441
SWIDTH 777 0
DWIDTH 28 0
BBX 24 24 2 0
BITMAP
07FFE0
1FFFF8
3FFFFC
7FFFFE
7FFFFE
FFFFFF
FC003F
FC003F
FC003F
FFFFFF
7FFFFE
7FFFFE
3FFFFC
1FFFF8
07FFE0
007E00
007E00
007E00
FFFE00
FFFC00
FFFC00
FFF800
FFF000
FFC000
ENDCHAR
STARTCHAR E062
ENCODING 57442
SWIDTH 777 0
DWIDTH 28 0
BBX 24 24 2 0
BITMAP
FFC000
FFF000
FFF800
FFFC00
FFFC00
FFFE00
007E00
007E00
007E00
07FFE0
1FFFF8
3FFFFC
7FFFFE
7FFFFE
FFFFFF
FC003F
FC003F
FC003F
FFFFFF
7FFFFE
7FFFFE
3FFFFC
1FFFF8
07FFE0
ENDCHAR
STARTCHAR E063
ENCODING 57443
SWIDTH 777 0
DWIDTH 28 0
BBX 24 24 2 0
BITMAP
0003FF
000FFF
001FFF
003FFF
003FFF
007FFF
007E00
007E00
007E00
07FFE0
1FFFF8
3FFFFC
7FFFFE
7FFFFE
FFFFFF
FC003F
FC003F
FC003F
FFFFFF
7FFFFE
7FFFFE
3FFFFC
1FFFF8
07FFE0
ENDCHAR
STARTCHAR E065
ENCODING 57445
SWIDTH 777 0
DWIDTH 28 0
BBX 24 24 2 0
BITMAP
07FFE0
1FFFF8
3FFFFC
7FFFFE
7FFFFE
FFFFFF
FC003F
FC003F
FC003F
FFFFFF
7FFFFE
7FFFFE
3FFFFC
1FFFF8
07FFE0
0FFFF0
1FFFF8
3FE7FC
7FC3FE
FF81FF
FF00FF
FE007F
FC003F
F8001F
ENDCHAR
STARTCHAR E066
ENCODING 57446
SWIDTH 777 0
DWIDTH 28 0
BBX 24 24 2 0
BITMAP
F8001F
FC003F
FE007F
FF00FF
FF81FF
7FC3FE
3FE7FC
1FFFF8
0FFFF0
07FFE0
1FFFF8
3FFFFC
7FFFFE
7FFFFE
FFFFFF
FC003F
FC003F
FC003F
FFFFFF
7FFFFE
7FFFFE
3FFFFC
1FFFF8
07FFE0
ENDCHAR
STARTCHAR E067
ENCODING 57447
SWIDTH 750 0
DWIDTH 27 0
BBX 24 24 2 0
BITMAP
F803E0
FC0FF8
FE1FFC
FF3FFE
FFFFFE
7FFFFF
3FFE3F
1FFE3F
0FFE3F
07FE3F
03FE3F
01FE3F
01FE3F
03FE3F
07FE3F
0FFE3F
1FFE3F
3FFE3F
7FFFFF
FFFFFE
FF3FFE
FE1FFC
FC0FF8
F803E0
ENDCHAR
STARTCHAR E068
ENCODING 57448
SWIDTH 750 0
DWIDTH 27 0
BBX 24 24 2 0
BITMAP
07C01F
1FF03F
3FF87F
7FFCFF
7FFDFF
FFFFFE
FC7FFC
FC7FF8
FC7FF0
FC7FE0
FC7FC0
FC7F80
FC7F80
FC7FC0
FC7FE0
FC7FF0
FC7FF8
FC7FFC
FFFFFE
7FFDFF
7FFCFF
3FF87F
1FF03F
07C01F
ENDCHAR
STARTCHAR E06A
ENCODING 57450
SWIDTH 750 0
DWIDTH 27 0
BBX 24 24 2 0
BITMAP
F87E1F
FC7E3F
FE7E7F
FF7EFF
FFFFFF
7FFFFE
3FFFFC
1FFFF8
0FFFF0
FFFFFF
FFFFFF
FFFFFF
FFFFFF
FFFFFF
FFFFFF
007E00
007E00
007E00
007E00
007E00
007E00
007E00
007E00
007E00
ENDCHAR
STARTCHAR E06B
ENCODING 57451
SWIDTH 750 0
DWIDTH 27 0
BBX 24 24 2 0
BITMAP
007E00
007E00
007E00
007E00
007E00
007E00
007E00
007E00
007E00
FFFFFF
FFFFFF
FFFFFF
FFFFFF
FFFFFF
FFFFFF
0FFFF0
1FFFF8
3FFFFC
7FFFFE
FFFFFF
FF7EFF
FE7E7F
FC7E3F
F87E1F
ENDCHAR
STARTCHAR E06C
ENCODING 57452
SWIDTH 750 0
DWIDTH 27 0
BBX 24 24 2 0
BITMAP
007E1F
007E3F
007E7F
007EFF
007FFF
007FFE
007FFC
007FF8
007FF0
FFFFFF
FFFFFF
FFFFFF
FFFFFF
FFFFFF
FFFFFF
007FF0
007FF8
007FFC
007FFE
007FFF
007EFF
007E7F
007E3F
007E1F
ENDCHAR
STARTCHAR E06D
ENCODING 57453
SWIDTH 750 0
DWIDTH 27 0
BBX 24 24 2 0
BITMAP
F87E00
FC7E00
FE7E00
FF7E00
FFFE00
7FFE00
3FFE00
1FFE00
0FFE00
FFFFFF
FFFFFF
FFFFFF
FFFFFF
FFFFFF
FFFFFF
0FFE00
1FFE00
3FFE00
7FFE00
FFFE00
FF7E00
FE7E00
FC7E00
F87E00
ENDCHAR
STARTCHAR E070
ENCODING 57456
SWIDTH 777 0
DWIDTH 28 0
BBX 24 24 2 0
BITMAP
F8001F
FC003F
FE007F
FF00FF
FF81FF
7FC3FF
3FE7FF
1FFFFF
0FFFFF
07FFFF
03FFFF
01FFBF
01FF3F
03FE3F
07FC3F
0FF83F
1FF03F
3FE03F
7FFFFF
FFFFFF
FFFFFF
FFFFFF
FFFFFF
FFFFFF
ENDCHAR
STARTCHAR E071
ENCODING 57457
SWIDTH 750 0
DWIDTH 27 0
BBX 24 24 2 0
BITMAP
F8001F
FC003F
FE007F
FF00FF
FF81FF
FFC3FE
FFE7FC
FFFFF8
FFFFF0
FFFFE0
FFFFC0
FDFF80
FCFF80
FC7FC0
FC3FE0
FC1FF0
FC0FF8
FC07FC
FFFFFE
FFFFFF
FFFFFF
FFFFFF
FFFFFF
FFFFFF
ENDCHAR
STARTCHAR E072
ENCODING 57458
SWIDTH 750 0
DWIDTH 27 0
BBX 24 24 2 0
BITMAP
FFFFFF
FFFFFF
FFFFFF
FFFFFF
FFFFFF
FFFFFE
FC07FC
FC0FF8
FC1FF0
FC3FE0
FC7FC0
FCFF80
FDFF80
FFFFC0
FFFFE0
FFFFF0
FFFFF8
FFE7FC
FFC3FE
FF81FF
FF00FF
FE007F
FC003F
F8001F
ENDCHAR
STARTCHAR E073
ENCODING 57459
SWIDTH 777 0
DWIDTH 28 0
BBX 24 24 2 0
BITMAP
FFFFFF
FFFFFF
FFFFFF
FFFFFF
FFFFFF
7FFFFF
3FE03F
1FF03F
0FF83F
07FC3F
03FE3F
01FF3F
01FFBF
03FFFF
07FFFF
0FFFFF
1FFFFF
3FE7FF
7FC3FF
FF81FF
FF00FF
FE007F
FC003F
F8001F
ENDCHAR
STARTCHAR E075
ENCODING 57461
SWIDTH 750 0
DWIDTH 27 0
BBX 24 24 2 0
BITMAP
F80FC0
FC0FC0
FE0FC0
FF0FC0
FF8FC0
7FCFC0
3FEFC0
1FFFC0
0FFFC0
07FFC0
03FFC0
01FFC0
FFFFC0
FFFFC0
FFFFE0
FFFFF0
FFFFF8
FFFFFC
0003FE
0001FF
0000FF
00007F
00003F
00001F
ENDCHAR
STARTCHAR E076
ENCODING 57462
SWIDTH 750 0
DWIDTH 27 0
BBX 24 24 2 0
BITMAP
03F01F
03F03F
03F07F
03F0FF
03F1FF
03F3FE
03F7FC
03FFF8
03FFF0
03FFE0
03FFC0
03FF80
03FFFF
03FFFF
07FFFF
0FFFFF
1FFFFF
3FFFFF
7FC000
FF8000
FF0000
FE0000
FC0000
F80000
ENDCHAR
STARTCHAR E077
ENCODING 57463
SWIDTH 750 0
DWIDTH 27 0
BBX 24 24 2 0
BITMAP
F80000
FC0000
FE0000
FF0000
FF8000
7FC000
3FFFFF
1FFFFF
0FFFFF
07FFFF
03FFFF
03FFFF
03FF80
03FFC0
03FFE0
03FFF0
03FFF8
03F7FC
03F3FE
03F1FF
03F0FF
03F07F
03F03F
03F01F
ENDCHAR
STARTCHAR E078
ENCODING 57464
SWIDTH 750 0
DWIDTH 27 0
BBX 24 24 2 0
BITMAP
00001F
00003F
00007F
0000FF
0001FF
0003FE
FFFFFC
FFFFF8
FFFFF0
FFFFE0
FFFFC0
FFFFC0
01FFC0
03FFC0
07FFC0
0FFFC0
1FFFC0
3FEFC0
7FCFC0
FF8FC0
FF0FC0
FE0FC0
FC0FC0
F80FC0
ENDCHAR
STARTCHAR E07A
ENCODING 57466
SWIDTH 777 0
DWIDTH 28 0
BBX 24 24 2 0
BITMAP
07FFE0
1FFFF8
3FFFFC
7FFFFE
7FFFFE
FFFFFF
FC7E3F
FC7E3F
FC7E3F
FC7E3F
FC7E3F
FC7E3F
FC7E3F
FC7E3F
FC7E3F
007E00
007E00
007E00
FFFFFF
FFFFFF
FFFFFF
FFFFFF
FFFFFF
FFFFFF
ENDCHAR
STARTCHAR E07B
ENCODING 57467
SWIDTH 777 0
DWIDTH 28 0
BBX 24 24 2 0
BITMAP
FFFFFF
FFFFFF
FFFFFF
FFFFFF
FFFFFF
FFFFFF
007E00
007E00
007E00
FC7E3F
FC7E3F
FC7E3F
FC7E3F
FC7E3F
FC7E3F
FC7E3F
FC7E3F
FC7E3F
FFFFFF
7FFFFE
7FFFFE
3FFFFC
1FFFF8
07FFE0
ENDCHAR
STARTCHAR E07C
ENCODING 57468
SWIDTH 777 0
DWIDTH 28 0
BBX 24 24 2 0
BITMAP
FC7FE0
FC7FF8
FC7FFC
FC7FFE
FC7FFE
FC7FFF
FC003F
FC003F
FC003F
FFFFFF
FFFFFF
FFFFFF
FFFFFF
FFFFFF
FFFFFF
FC003F
FC003F
FC003F
FC7FFF
FC7FFE
FC7FFE
FC7FFC
FC7FF8
FC7FE0
ENDCHAR
STARTCHAR E07D
ENCODING 57469
SWIDTH 777 0
DWIDTH 28 0
BBX 24 24 2 0
BITMAP
07FE3F
1FFE3F
3FFE3F
7FFE3F
7FFE3F
FFFE3F
FC003F
FC003F
FC003F
FFFFFF
FFFFFF
FFFFFF
FFFFFF
FFFFFF
FFFFFF
FC003F
FC003F
FC003F
FFFE3F
7FFE3F
7FFE3F
3FFE3F
1FFE3F
07FE3F
ENDCHAR
STARTCHAR E080
ENCODING 57472
SWIDTH 750 0
DWIDTH 27 0
BBX 24 24 2 0
BITMAP
00001F
00003F
00007F
0000FF
0001FF
0003FE
0007FC
000FF8
001FF0
003FE0
007FC0
00FFC0
01FFC0
03FFC0
07FFC0
0FFFC0
1FFFC0
3FEFC0
7FCFC0
FF8FC0
FF0FC0
FE0FC0
FC0FC0
F80FC0
ENDCHAR
STARTCHAR E081
ENCODING 57473
SWIDTH 750 0
DWIDTH 27 0
BBX 24 24 2 0
BITMAP
00001F
00003F
00007F
0000FF
0001FF
0003FE
FFFFFC
FFFFF8
FFFFF0
FFFFE0
FFFFC0
FFFF80
01FF00
03FE00
07FC00
0FF800
1FF000
3FE000
7FC000
FF8000
FF0000
FE0000
FC0000
F80000
ENDCHAR
STARTCHAR E082
ENCODING 57474
SWIDTH 750 0
DWIDTH 27 0
BBX 24 24 2 0
BITMAP
03F01F
03F03F
03F07F
03F0FF
03F1FF
03F3FE
03F7FC
03FFF8
03FFF0
03FFE0
03FFC0
03FF80
03FF00
03FE00
07FC00
0FF800
1FF000
3FE000
7FC000
FF8000
FF0000
FE0000
FC0000
F80000
ENDCHAR
STARTCHAR E083
ENCODING 57475
SWIDTH 750 0
DWIDTH 27 0
BBX 24 24 2 0
BITMAP
00001F
00003F
00007F
0000FF
0001FF
0003FE
0007FC
000FF8
001FF0
003FE0
007FC0
00FF80
01FFFF
03FFFF
07FFFF
0FFFFF
1FFFFF
3FFFFF
7FC000
FF8000
FF0000
FE0000
FC0000
F80000
ENDCHAR
STARTCHAR E085
ENCODING 57477
SWIDTH 750 0
DWIDTH 27 0
BBX 24 24 2 0
BITMAP
F80000
FC0000
FE0000
FF0000
FF8000
7FC000
3FE000
1FF000
0FF800
07FC00
03FE00
01FF00
FFFF80
FFFFC0
FFFFE0
FFFFF0
FFFFF8
FFFFFC
0003FE
0001FF
0000FF
00007F
00003F
00001F
ENDCHAR
STARTCHAR E086
ENCODING 57478
SWIDTH 750 0
DWIDTH 27 0
BBX 24 24 2 0
BITMAP
F80000
FC0000
FE0000
FF0000
FF8000
7FC000
3FE000
1FF000
0FF800
07FC00
03FE00
03FF00
03FF80
03FFC0
03FFE0
03FFF0
03FFF8
03F7FC
03F3FE
03F1FF
03F0FF
03F07F
03F03F
03F01F
ENDCHAR
STARTCHAR E087
ENCODING 57479
SWIDTH 750 0
DWIDTH 27 0
BBX 24 24 2 0
BITMAP
F80FC0
FC0FC0
FE0FC0
FF0FC0
FF8FC0
7FCFC0
3FEFC0
1FFFC0
0FFFC0
07FFC0
03FFC0
01FFC0
00FFC0
007FC0
003FE0
001FF0
000FF8
0007FC
0003FE
0001FF
0000FF
00007F
00003F
00001F
ENDCHAR
STARTCHAR E088
ENCODING 57480
SWIDTH 750 0
DWIDTH 27 0
BBX 24 24 2 0
BITMAP
F80000
FC0000
FE0000
FF0000
FF8000
7FC000
3FFFFF
1FFFFF
0FFFFF
07FFFF
03FFFF
01FFFF
00FF80
007FC0
003FE0
001FF0
000FF8
0007FC
0003FE
0001FF
0000FF
00007F
00003F
00001F
ENDCHAR
STARTCHAR E08A
ENCODING 57482
SWIDTH 777 0
DWIDTH 28 0
BBX 24 24 2 0
BITMAP
07C000
1FF000
3FF800
7FFC00
7FFC00
FFFE00
FC7E00
FC7FE0
FC7FF8
FC7FFC
FC7FFE
FC7FFE
FC7FFF
FC7E3F
FC7E3F
FC7E3F
FC7E3F
FC7E3F
FC7E3F
FC7E3F
FC7E3F
FC7E3F
FC7E3F
FC7E3F
ENDCHAR
STARTCHAR E08B
ENCODING 57483
SWIDTH 750 0
DWIDTH 27 0
BBX 24 24 2 0
BITMAP
000FFF
003FFF
007FFF
00FFFF
00FFFF
01FFFF
01F800
01F800
01F800
07FFFF
1FFFFF
3FFFFF
7FFFFF
7FFFFF
FFFFFF
FC0000
FC0000
FC0000
FFFFFF
7FFFFF
7FFFFF
3FFFFF
1FFFFF
07FFFF
ENDCHAR
STARTCHAR E08C
ENCODING 57484
SWIDTH 777 0
DWIDTH 28 0
BBX 24 24 2 0
BITMAP
FC7E3F
FC7E3F
FC7E3F
FC7E3F
FC7E3F
FC7E3F
FC7E3F
FC7E3F
FC7E3F
FC7E3F
FFFE3F
7FFE3F
7FFE3F
3FFE3F
1FFE3F
07FE3F
007E3F
007E3F
007FFF
003FFE
003FFE
001FFC
000FF8
0003E0
ENDCHAR
STARTCHAR E08D
ENCODING 57485
SWIDTH 777 0
DWIDTH 28 0
BBX 25 24 1 0
BITMAP
FFFFF000
FFFFFC00
FFFFFE00
FFFFFF00
FFFFFF00
FFFFFF80
00003F80
00001F80
00003F80
FFFFFF80
FFFFFF00
FFFFFF00
FFFFFE00
FFFFFC00
FFFFF000
001F8000
001F8000
001F8000
FFFF8000
FFFF0000
FFFF0000
FFFE0000
FFFC0000
FFF00000
ENDCHAR
STARTCHAR E090
ENCODING 57488
SWIDTH 777 0
DWIDTH 28 0
BBX 24 24 2 0
BITMAP
0003E0
000FF8
001FFC
003FFE
003FFE
007FFF
007E3F
007E3F
007E3F
07FE3F
1FFC3F
3FFC3F
7FF83F
7FF03F
FFC03F
FC003F
FC003F
FC003F
FFFFFF
7FFFFE
7FFFFE
3FFFFC
1FFFF8
07FFE0
ENDCHAR
STARTCHAR E091
ENCODING 57489
SWIDTH 777 0
DWIDTH 28 0
BBX 24 24 2 0
BITMAP
07C000
1FF000
3FF800
7FFC00
7FFC00
FFFE00
FC7E00
FC7E00
FC7E00
FC7FE0
FC3FF8
FC3FFC
FC1FFE
FC0FFE
FC03FF
FC003F
FC003F
FC003F
FFFFFF
7FFFFE
7FFFFE
3FFFFC
1FFFF8
07FFE0
ENDCHAR
STARTCHAR E092
ENCODING 57490
SWIDTH 777 0
DWIDTH 28 0
BBX 24 24 2 0
BITMAP
07FFE0
1FFFF8
3FFFFC
7FFFFE
7FFFFE
FFFFFF
FC003F
FC003F
FC003F
FC03FF
FC0FFE
FC1FFE
FC3FFC
FC3FF8
FC7FE0
FC7E00
FC7E00
FC7E00
FFFE00
7FFC00
7FFC00
3FF800
1FF000
07C000
ENDCHAR
STARTCHAR E093
ENCODING 57491
SWIDTH 777 0
DWIDTH 28 0
BBX 24 24 2 0
BITMAP
07FFE0
1FFFF8
3FFFFC
7FFFFE
7FFFFE
FFFFFF
FC003F
FC003F
FC003F
FFC03F
7FF03F
7FF83F
3FFC3F
1FFC3F
07FE3F
007E3F
007E3F
007E3F
007FFF
003FFE
003FFE
001FFC
000FF8
0003E0
ENDCHAR
STARTCHAR E095
ENCODING 57493
SWIDTH 750 0
DWIDTH 27 0
BBX 24 24 2 0
BITMAP
F80000
FC0000
FE0000
FF0000
FF8000
FFC000
FFE000
FFF000
FFF800
FFFC00
FFFE00
FDFF00
FCFF80
FC7FC0
FC3FE0
FC1FF0
FC0FF8
FC07FC
FFFFFE
FFFFFF
FFFFFF
FFFFFF
FFFFFF
FFFFFF
ENDCHAR
STARTCHAR E096
ENCODING 57494
SWIDTH 777 0
DWIDTH 28 0
BBX 24 24 2 0
BITMAP
00001F
00003F
00007F
0000FF
0001FF
0003FF
0007FF
000FFF
001FFF
003FFF
007FFF
00FFBF
01FF3F
03FE3F
07FC3F
0FF83F
1FF03F
3FE03F
7FFFFF
FFFFFF
FFFFFF
FFFFFF
FFFFFF
FFFFFF
ENDCHAR
STARTCHAR E097
ENCODING 57495
SWIDTH 750 0
DWIDTH 27 0
BBX 24 24 2 0
BITMAP
FFFFFF
FFFFFF
FFFFFF
FFFFFF
FFFFFF
FFFFFE
FC07FC
FC0FF8
FC1FF0
FC3FE0
FC7FC0
FCFF80
FDFF00
FFFE00
FFFC00
FFF800
FFF000
FFE000
FFC000
FF8000
FF0000
FE0000
FC0000
F80000
ENDCHAR
STARTCHAR E098
ENCODING 57496
SWIDTH 777 0
DWIDTH 28 0
BBX 24 24 2 0
BITMAP
FFFFFF
FFFFFF
FFFFFF
FFFFFF
FFFFFF
7FFFFF
3FE03F
1FF03F
0FF83F
07FC3F
03FE3F
01FF3F
00FFBF
007FFF
003FFF
001FFF
000FFF
0007FF
0003FF
0001FF
0000FF
00007F
00003F
00001F
ENDCHAR
STARTCHAR E0A0
ENCODING 57504
SWIDTH 750 0
DWIDTH 27 0
BBX 24 24 2 0
BITMAP
FFFFFF
FFFFFF
FFFFFF
FFFFFF
FFFFFF
FFFFFF
000000
000000
000000
FFFFFF
FFFFFF
FFFFFF
FFFFFF
FFFFFF
FFFFFF
000000
000000
000000
FFFFFF
FFFFFF
FFFFFF
FFFFFF
FFFFFF
FFFFFF
ENDCHAR
STARTCHAR E0A1
ENCODING 57505
SWIDTH 750 0
DWIDTH 27 0
BBX 24 24 2 0
BITMAP
007E00
007E00
007E00
007E00
007E00
007E00
000000
000000
000000
FFFFFF
FFFFFF
FFFFFF
FFFFFF
FFFFFF
FFFFFF
000000
000000
000000
FFFFFF
FFFFFF
FFFFFF
FFFFFF
FFFFFF
FFFFFF
ENDCHAR
STARTCHAR E0A2
ENCODING 57506
SWIDTH 750 0
DWIDTH 27 0
BBX 24 24 2 0
BITMAP
0FC7E0
0FC7E0
0FC7E0
0FC7E0
0FC7E0
0FC7E0
000000
000000
000000
FFFFFF
FFFFFF
FFFFFF
FFFFFF
FFFFFF
FFFFFF
000000
000000
000000
FFFFFF
FFFFFF
FFFFFF
FFFFFF
FFFFFF
FFFFFF
ENDCHAR
STARTCHAR E0A3
ENCODING 57507
SWIDTH 777 0
DWIDTH 28 0
BBX 24 24 2 0
BITMAP
FC7E3F
FC7E3F
FC7E3F
FC7E3F
FC7E3F
FC7E3F
000000
000000
000000
FFFFFF
FFFFFF
FFFFFF
FFFFFF
FFFFFF
FFFFFF
000000
000000
000000
FFFFFF
FFFFFF
FFFFFF
FFFFFF
FFFFFF
FFFFFF
ENDCHAR
STARTCHAR E0A4
ENCODING 57508
SWIDTH 750 0
DWIDTH 27 0
BBX 24 24 2 0
BITMAP
FFFFFF
FFFFFF
FFFFFF
FFFFFF
FFFFFF
FFFFFF
000000
000000
000000
007E00
007E00
007E00
007E00
007E00
007E00
000000
000000
000000
FFFFFF
FFFFFF
FFFFFF
FFFFFF
FFFFFF
FFFFFF
ENDCHAR
STARTCHAR E0A5
ENCODING 57509
SWIDTH 750 0
DWIDTH 27 0
BBX 24 24 2 0
BITMAP
FFFFFF
FFFFFF
FFFFFF
FFFFFF
FFFFFF
FFFFFF
000000
000000
000000
0FC7E0
0FC7E0
0FC7E0
0FC7E0
0FC7E0
0FC7E0
000000
000000
000000
FFFFFF
FFFFFF
FFFFFF
FFFFFF
FFFFFF
FFFFFF
ENDCHAR
STARTCHAR E0A6
ENCODING 57510
SWIDTH 777 0
DWIDTH 28 0
BBX 24 24 2 0
BITMAP
FFFFFF
FFFFFF
FFFFFF
FFFFFF
FFFFFF
FFFFFF
000000
000000
000000
FC7E3F
FC7E3F
FC7E3F
FC7E3F
FC7E3F
FC7E3F
000000
000000
000000
FFFFFF
FFFFFF
FFFFFF
FFFFFF
FFFFFF
FFFFFF
ENDCHAR
STARTCHAR E0A7
ENCODING 57511
SWIDTH 750 0
DWIDTH 27 0
BBX 24 24 2 0
BITMAP
FFFFFF
FFFFFF
FFFFFF
FFFFFF
FFFFFF
FFFFFF
000000
000000
000000
FFFFFF
FFFFFF
FFFFFF
FFFFFF
FFFFFF
FFFFFF
000000
000000
000000
007E00
007E00
007E00
007E00
007E00
007E00
ENDCHAR
STARTCHAR E0A8
ENCODING 57512
SWIDTH 750 0
DWIDTH 27 0
BBX 24 24 2 0
BITMAP
FFFFFF
FFFFFF
FFFFFF
FFFFFF
FFFFFF
FFFFFF
000000
000000
000000
FFFFFF
FFFFFF
FFFFFF
FFFFFF
FFFFFF
FFFFFF
000000
000000
000000
0FC7E0
0FC7E0
0FC7E0
0FC7E0
0FC7E0
0FC7E0
ENDCHAR
STARTCHAR E0A9
ENCODING 57513
SWIDTH 777 0
DWIDTH 28 0
BBX 24 24 2 0
BITMAP
FFFFFF
FFFFFF
FFFFFF
FFFFFF
FFFFFF
FFFFFF
000000
000000
000000
FFFFFF
FFFFFF
FFFFFF
FFFFFF
FFFFFF
FFFFFF
000000
000000
000000
FC7E3F
FC7E3F
FC7E3F
FC7E3F
FC7E3F
FC7E3F
ENDCHAR
STARTCHAR E0AA
ENCODING 57514
SWIDTH 750 0
DWIDTH 27 0
BBX 24 24 2 0
BITMAP
007E00
007E00
007E00
007E00
007E00
007E00
000000
000000
000000
007E00
007E00
007E00
007E00
007E00
007E00
000000
000000
000000
FFFFFF
FFFFFF
FFFFFF
FFFFFF
FFFFFF
FFFFFF
ENDCHAR
STARTCHAR E0AB
ENCODING 57515
SWIDTH 750 0
DWIDTH 27 0
BBX 24 24 2 0
BITMAP
0FC7E0
0FC7E0
0FC7E0
0FC7E0
0FC7E0
0FC7E0
000000
000000
000000
0FC7E0
0FC7E0
0FC7E0
0FC7E0
0FC7E0
0FC7E0
000000
000000
000000
FFFFFF
FFFFFF
FFFFFF
FFFFFF
FFFFFF
FFFFFF
ENDCHAR
STARTCHAR E0AC
ENCODING 57516
SWIDTH 777 0
DWIDTH 28 0
BBX 24 24 2 0
BITMAP
FC7E3F
FC7E3F
FC7E3F
FC7E3F
FC7E3F
FC7E3F
000000
000000
000000
FC7E3F
FC7E3F
FC7E3F
FC7E3F
FC7E3F
FC7E3F
000000
000000
000000
FFFFFF
FFFFFF
FFFFFF
FFFFFF
FFFFFF
FFFFFF
ENDCHAR
STARTCHAR E0AD
ENCODING 57517
SWIDTH 750 0
DWIDTH 27 0
BBX 24 24 2 0
BITMAP
FFFFFF
FFFFFF
FFFFFF
FFFFFF
FFFFFF
FFFFFF
000000
000000
000000
007E00
007E00
007E00
007E00
007E00
007E00
000000
000000
000000
007E00
007E00
007E00
007E00
007E00
007E00
ENDCHAR
STARTCHAR E0AE
ENCODING 57518
SWIDTH 750 0
DWIDTH 27 0
BBX 24 24 2 0
BITMAP
FFFFFF
FFFFFF
FFFFFF
FFFFFF
FFFFFF
FFFFFF
000000
000000
000000
0FC7E0
0FC7E0
0FC7E0
0FC7E0
0FC7E0
0FC7E0
000000
000000
000000
0FC7E0
0FC7E0
0FC7E0
0FC7E0
0FC7E0
0FC7E0
ENDCHAR
STARTCHAR E0AF
ENCODING 57519
SWIDTH 777 0
DWIDTH 28 0
BBX 24 24 2 0
BITMAP
FFFFFF
FFFFFF
FFFFFF
FFFFFF
FFFFFF
FFFFFF
000000
000000
000000
FC7E3F
FC7E3F
FC7E3F
FC7E3F
FC7E3F
FC7E3F
000000
000000
000000
FC7E3F
FC7E3F
FC7E3F
FC7E3F
FC7E3F
FC7E3F
ENDCHAR
STARTCHAR E0B0
ENCODING 57520
SWIDTH 750 0
DWIDTH 27 0
BBX 24 24 2 0
BITMAP
007E00
007E00
007E00
007E00
007E00
007E00
000000
000000
000000
FFFFFF
FFFFFF
FFFFFF
FFFFFF
FFFFFF
FFFFFF
000000
000000
000000
007E00
007E00
007E00
007E00
007E00
007E00
ENDCHAR
STARTCHAR E0B1
ENCODING 57521
SWIDTH 750 0
DWIDTH 27 0
BBX 24 24 2 0
BITMAP
0FC7E0
0FC7E0
0FC7E0
0FC7E0
0FC7E0
0FC7E0
000000
000000
000000
FFFFFF
FFFFFF
FFFFFF
FFFFFF
FFFFFF
FFFFFF
000000
000000
000000
0FC7E0
0FC7E0
0FC7E0
0FC7E0
0FC7E0
0FC7E0
ENDCHAR
STARTCHAR E0B2
ENCODING 57522
SWIDTH 777 0
DWIDTH 28 0
BBX 24 24 2 0
BITMAP
FC7E3F
FC7E3F
FC7E3F
FC7E3F
FC7E3F
FC7E3F
000000
000000
000000
FFFFFF
FFFFFF
FFFFFF
FFFFFF
FFFFFF
FFFFFF
000000
000000
000000
FC7E3F
FC7E3F
FC7E3F
FC7E3F
FC7E3F
FC7E3F
ENDCHAR
STARTCHAR E0B3
ENCODING 57523
SWIDTH 777 0
DWIDTH 28 0
BBX 24 24 2 0
BITMAP
007E00
007E00
007E00
007E00
007E00
007E00
000000
000000
000000
FFFFFF
FFFFFF
FFFFFF
FFFFFF
FFFFFF
FFFFFF
000000
000000
000000
0FC3F0
0FC3F0
0FC3F0
0FC3F0
0FC3F0
0FC3F0
ENDCHAR
STARTCHAR E0B4
ENCODING 57524
SWIDTH 777 0
DWIDTH 28 0
BBX 24 24 2 0
BITMAP
0FC3F0
0FC3F0
0FC3F0
0FC3F0
0FC3F0
0FC3F0
000000
000000
000000
FFFFFF
FFFFFF
FFFFFF
FFFFFF
FFFFFF
FFFFFF
000000
000000
000000
007E00
007E00
007E00
007E00
007E00
007E00
ENDCHAR
STARTCHAR E0B5
ENCODING 57525
SWIDTH 777 0
DWIDTH 28 0
BBX 24 24 2 0
BITMAP
007E00
007E00
007E00
007E00
007E00
007E00
000000
000000
000000
FFFFFF
FFFFFF
FFFFFF
FFFFFF
FFFFFF
FFFFFF
000000
000000
000000
FC7E3F
FC7E3F
FC7E3F
FC7E3F
FC7E3F
FC7E3F
ENDCHAR
STARTCHAR E0B6
ENCODING 57526
SWIDTH 777 0
DWIDTH 28 0
BBX 24 24 2 0
BITMAP
FC7E3F
FC7E3F
FC7E3F
FC7E3F
FC7E3F
FC7E3F
000000
000000
000000
FFFFFF
FFFFFF
FFFFFF
FFFFFF
FFFFFF
FFFFFF
000000
000000
000000
007E00
007E00
007E00
007E00
007E00
007E00
ENDCHAR
STARTCHAR E0B7
ENCODING 57527
SWIDTH 777 0
DWIDTH 28 0
BBX 24 24 2 0
BITMAP
07E3F0
07E3F0
07E3F0
07E3F0
07E3F0
07E3F0
000000
000000
000000
FFFFFF
FFFFFF
FFFFFF
FFFFFF
FFFFFF
FFFFFF
000000
000000
000000
FC7E3F
FC7E3F
FC7E3F
FC7E3F
FC7E3F
FC7E3F
ENDCHAR
STARTCHAR E0B8
ENCODING 57528
SWIDTH 777 0
DWIDTH 28 0
BBX 24 24 2 0
BITMAP
FC7E3F
FC7E3F
FC7E3F
FC7E3F
FC7E3F
FC7E3F
000000
000000
000000
FFFFFF
FFFFFF
FFFFFF
FFFFFF
FFFFFF
FFFFFF
000000
000000
000000
07E3F0
07E3F0
07E3F0
07E3F0
07E3F0
07E3F0
ENDCHAR
STARTCHAR E0B9
ENCODING 57529
SWIDTH 777 0
DWIDTH 28 0
BBX 24 24 2 0
BITMAP
007E00
007E00
007E00
007E00
007E00
007E00
000000
000000
000000
0FC3F0
0FC3F0
0FC3F0
0FC3F0
0FC3F0
0FC3F0
000000
000000
000000
FFFFFF
FFFFFF
FFFFFF
FFFFFF
FFFFFF
FFFFFF
ENDCHAR
STARTCHAR E0BA
ENCODING 57530
SWIDTH 777 0
DWIDTH 28 0
BBX 24 24 2 0
BITMAP
FFFFFF
FFFFFF
FFFFFF
FFFFFF
FFFFFF
FFFFFF
000000
000000
000000
0FC3F0
0FC3F0
0FC3F0
0FC3F0
0FC3F0
0FC3F0
000000
000000
000000
007E00
007E00
007E00
007E00
007E00
007E00
ENDCHAR
STARTCHAR E0BB
ENCODING 57531
SWIDTH 777 0
DWIDTH 28 0
BBX 24 24 2 0
BITMAP
07E3F0
07E3F0
07E3F0
07E3F0
07E3F0
07E3F0
000000
000000
000000
FC7E3F
FC7E3F
FC7E3F
FC7E3F
FC7E3F
FC7E3F
000000
000000
000000
FFFFFF
FFFFFF
FFFFFF
FFFFFF
FFFFFF
FFFFFF
ENDCHAR
STARTCHAR E0BC
ENCODING 57532
SWIDTH 777 0
DWIDTH 28 0
BBX 24 24 2 0
BITMAP
FFFFFF
FFFFFF
FFFFFF
FFFFFF
FFFFFF
FFFFFF
000000
000000
000000
FC7E3F
FC7E3F
FC7E3F
FC7E3F
FC7E3F
FC7E3F
000000
000000
000000
07E3F0
07E3F0
07E3F0
07E3F0
07E3F0
07E3F0
ENDCHAR
STARTCHAR E0BD
ENCODING 57533
SWIDTH 777 0
DWIDTH 28 0
BBX 24 24 2 0
BITMAP
007E00
007E00
007E00
007E00
007E00
007E00
000000
000000
000000
FC7E3F
FC7E3F
FC7E3F
FC7E3F
FC7E3F
FC7E3F
000000
000000
000000
FFFFFF
FFFFFF
FFFFFF
FFFFFF
FFFFFF
FFFFFF
ENDCHAR
STARTCHAR E0BE
ENCODING 57534
SWIDTH 777 0
DWIDTH 28 0
BBX 24 24 2 0
BITMAP
FFFFFF
FFFFFF
FFFFFF
FFFFFF
FFFFFF
FFFFFF
000000
000000
000000
FC7E3F
FC7E3F
FC7E3F
FC7E3F
FC7E3F
FC7E3F
000000
000000
000000
007E00
007E00
007E00
007E00
007E00
007E00
ENDCHAR
STARTCHAR E0BF
ENCODING 57535
SWIDTH 777 0
DWIDTH 28 0
BBX 24 24 2 0
BITMAP
FC7E3F
FC7E3F
FC7E3F
FC7E3F
FC7E3F
FC7E3F
000000
000000
000000
07E3F0
07E3F0
07E3F0
07E3F0
07E3F0
07E3F0
000000
000000
000000
FFFFFF
FFFFFF
FFFFFF
FFFFFF
FFFFFF
FFFFFF
ENDCHAR
STARTCHAR E0C0
ENCODING 57536
SWIDTH 777 0
DWIDTH 28 0
BBX 24 24 2 0
BITMAP
FFFFFF
FFFFFF
FFFFFF
FFFFFF
FFFFFF
FFFFFF
000000
000000
000000
07E3F0
07E3F0
07E3F0
07E3F0
07E3F0
07E3F0
000000
000000
000000
FC7E3F
FC7E3F
FC7E3F
FC7E3F
FC7E3F
FC7E3F
ENDCHAR
STARTCHAR E0C1
ENCODING 57537
SWIDTH 777 0
DWIDTH 28 0
BBX 24 24 2 0
BITMAP
FC7E3F
FC7E3F
FC7E3F
FC7E3F
FC7E3F
FC7E3F
000000
000000
000000
007E00
007E00
007E00
007E00
007E00
007E00
000000
000000
000000
FFFFFF
FFFFFF
FFFFFF
FFFFFF
FFFFFF
FFFFFF
ENDCHAR
STARTCHAR E0C2
ENCODING 57538
SWIDTH 777 0
DWIDTH 28 0
BBX 24 24 2 0
BITMAP
FFFFFF
FFFFFF
FFFFFF
FFFFFF
FFFFFF
FFFFFF
000000
000000
000000
007E00
007E00
007E00
007E00
007E00
007E00
000000
000000
000000
FC7E3F
FC7E3F
FC7E3F
FC7E3F
FC7E3F
FC7E3F
ENDCHAR
STARTCHAR E0C3
ENCODING 57539
SWIDTH 777 0
DWIDTH 28 0
BBX 24 24 2 0
BITMAP
0FC3F0
0FC3F0
0FC3F0
0FC3F0
0FC3F0
0FC3F0
000000
000000
000000
007E00
007E00
007E00
007E00
007E00
007E00
000000
000000
000000
FFFFFF
FFFFFF
FFFFFF
FFFFFF
FFFFFF
FFFFFF
ENDCHAR
STARTCHAR E0C4
ENCODING 57540
SWIDTH 777 0
DWIDTH 28 0
BBX 24 24 2 0
BITMAP
FFFFFF
FFFFFF
FFFFFF
FFFFFF
FFFFFF
FFFFFF
000000
000000
000000
007E00
007E00
007E00
007E00
007E00
007E00
000000
000000
000000
0FC3F0
0FC3F0
0FC3F0
0FC3F0
0FC3F0
0FC3F0
ENDCHAR
STARTCHAR E0D0
ENCODING 57552
SWIDTH 777 0
DWIDTH 28 0
BBX 24 24 2 0
BITMAP
FC7E3F
FC7E3F
FC7E3F
FC7E3F
FC7E3F
FC7E3F
FC7E3F
FC7E3F
FC7E3F
FC7E3F
FC7E3F
FC7E3F
FC7E3F
FC7E3F
FC7E3F
FC7E3F
FC7E3F
FC7E3F
FC7E3F
FC7E3F
FC7E3F
FC7E3F
FC7E3F
FC7E3F
ENDCHAR
STARTCHAR E0D1
ENCODING 57553
SWIDTH 777 0
DWIDTH 28 0
BBX 24 24 2 0
BITMAP
007E3F
007E3F
007E3F
007E3F
007E3F
007E3F
007E3F
007E3F
007E3F
FC7E3F
FC7E3F
FC7E3F
FC7E3F
FC7E3F
FC7E3F
007E3F
007E3F
007E3F
007E3F
007E3F
007E3F
007E3F
007E3F
007E3F
ENDCHAR
STARTCHAR E0D2
ENCODING 57554
SWIDTH 777 0
DWIDTH 28 0
BBX 24 24 2 0
BITMAP
007E3F
007E3F
007E3F
007E3F
FC7E3F
FC7E3F
FC7E3F
FC7E3F
FC7E3F
FC7E3F
007E3F
007E3F
007E3F
FC7E3F
FC7E3F
FC7E3F
FC7E3F
FC7E3F
FC7E3F
007E3F
007E3F
007E3F
007E3F
007E3F
ENDCHAR
STARTCHAR E0D3
ENCODING 57555
SWIDTH 777 0
DWIDTH 28 0
BBX 24 24 2 0
BITMAP
FC7E3F
FC7E3F
FC7E3F
FC7E3F
FC7E3F
FC7E3F
007E3F
007E3F
007E3F
FC7E3F
FC7E3F
FC7E3F
FC7E3F
FC7E3F
FC7E3F
007E3F
007E3F
007E3F
FC7E3F
FC7E3F
FC7E3F
FC7E3F
FC7E3F
FC7E3F
ENDCHAR
STARTCHAR E0D4
ENCODING 57556
SWIDTH 777 0
DWIDTH 28 0
BBX 24 24 2 0
BITMAP
FC003F
FC003F
FC003F
FC003F
FC003F
FC003F
FC003F
FC003F
FC003F
FC7E3F
FC7E3F
FC7E3F
FC7E3F
FC7E3F
FC7E3F
FC003F
FC003F
FC003F
FC003F
FC003F
FC003F
FC003F
FC003F
FC003F
ENDCHAR
STARTCHAR E0D5
ENCODING 57557
SWIDTH 777 0
DWIDTH 28 0
BBX 24 24 2 0
BITMAP
FC003F
FC003F
FC003F
FC003F
FC7E3F
FC7E3F
FC7E3F
FC7E3F
FC7E3F
FC7E3F
FC003F
FC003F
FC003F
FC7E3F
FC7E3F
FC7E3F
FC7E3F
FC7E3F
FC7E3F
FC003F
FC003F
FC003F
FC003F
FC003F
ENDCHAR
STARTCHAR E0D6
ENCODING 57558
SWIDTH 777 0
DWIDTH 28 0
BBX 24 24 2 0
BITMAP
FC7E3F
FC7E3F
FC7E3F
FC7E3F
FC7E3F
FC7E3F
FC003F
FC003F
FC003F
FC7E3F
FC7E3F
FC7E3F
FC7E3F
FC7E3F
FC7E3F
FC003F
FC003F
FC003F
FC7E3F
FC7E3F
FC7E3F
FC7E3F
FC7E3F
FC7E3F
ENDCHAR
STARTCHAR E0D7
ENCODING 57559
SWIDTH 777 0
DWIDTH 28 0
BBX 24 24 2 0
BITMAP
FC7E00
FC7E00
FC7E00
FC7E00
FC7E00
FC7E00
FC7E00
FC7E00
FC7E00
FC7E3F
FC7E3F
FC7E3F
FC7E3F
FC7E3F
FC7E3F
FC7E00
FC7E00
FC7E00
FC7E00
FC7E00
FC7E00
FC7E00
FC7E00
FC7E00
ENDCHAR
STARTCHAR E0D8
ENCODING 57560
SWIDTH 777 0
DWIDTH 28 0
BBX 24 24 2 0
BITMAP
FC7E00
FC7E00
FC7E00
FC7E00
FC7E3F
FC7E3F
FC7E3F
FC7E3F
FC7E3F
FC7E3F
FC7E00
FC7E00
FC7E00
FC7E3F
FC7E3F
FC7E3F
FC7E3F
FC7E3F
FC7E3F
FC7E00
FC7E00
FC7E00
FC7E00
FC7E00
ENDCHAR
STARTCHAR E0D9
ENCODING 57561
SWIDTH 777 0
DWIDTH 28 0
BBX 24 24 2 0
BITMAP
FC7E3F
FC7E3F
FC7E3F
FC7E3F
FC7E3F
FC7E3F
FC7E00
FC7E00
FC7E00
FC7E3F
FC7E3F
FC7E3F
FC7E3F
FC7E3F
FC7E3F
FC7E00
FC7E00
FC7E00
FC7E3F
FC7E3F
FC7E3F
FC7E3F
FC7E3F
FC7E3F
ENDCHAR
STARTCHAR E0DA
ENCODING 57562
SWIDTH 777 0
DWIDTH 28 0
BBX 24 24 2 0
BITMAP
00003F
00003F
00003F
00003F
00003F
00003F
00003F
00003F
00003F
FC7E3F
FC7E3F
FC7E3F
FC7E3F
FC7E3F
FC7E3F
00003F
00003F
00003F
00003F
00003F
00003F
00003F
00003F
00003F
ENDCHAR
STARTCHAR E0DB
ENCODING 57563
SWIDTH 777 0
DWIDTH 28 0
BBX 24 24 2 0
BITMAP
00003F
00003F
00003F
00003F
FC7E3F
FC7E3F
FC7E3F
FC7E3F
FC7E3F
FC7E3F
00003F
00003F
00003F
FC7E3F
FC7E3F
FC7E3F
FC7E3F
FC7E3F
FC7E3F
00003F
00003F
00003F
00003F
00003F
ENDCHAR
STARTCHAR E0DC
ENCODING 57564
SWIDTH 777 0
DWIDTH 28 0
BBX 24 24 2 0
BITMAP
FC7E3F
FC7E3F
FC7E3F
FC7E3F
FC7E3F
FC7E3F
00003F
00003F
00003F
FC7E3F
FC7E3F
FC7E3F
FC7E3F
FC7E3F
FC7E3F
00003F
00003F
00003F
FC7E3F
FC7E3F
FC7E3F
FC7E3F
FC7E3F
FC7E3F
ENDCHAR
STARTCHAR E0DD
ENCODING 57565
SWIDTH 777 0
DWIDTH 28 0
BBX 24 24 2 0
BITMAP
FC0000
FC0000
FC0000
FC0000
FC0000
FC0000
FC0000
FC0000
FC0000
FC7E3F
FC7E3F
FC7E3F
FC7E3F
FC7E3F
FC7E3F
FC0000
FC0000
FC0000
FC0000
FC0000
FC0000
FC0000
FC0000
FC0000
ENDCHAR
STARTCHAR E0DE
ENCODING 57566
SWIDTH 777 0
DWIDTH 28 0
BBX 24 24 2 0
BITMAP
FC0000
FC0000
FC0000
FC0000
FC7E3F
FC7E3F
FC7E3F
FC7E3F
FC7E3F
FC7E3F
FC0000
FC0000
FC0000
FC7E3F
FC7E3F
FC7E3F
FC7E3F
FC7E3F
FC7E3F
FC0000
FC0000
FC0000
FC0000
FC0000
ENDCHAR
STARTCHAR E0DF
ENCODING 57567
SWIDTH 777 0
DWIDTH 28 0
BBX 24 24 2 0
BITMAP
FC7E3F
FC7E3F
FC7E3F
FC7E3F
FC7E3F
FC7E3F
FC0000
FC0000
FC0000
FC7E3F
FC7E3F
FC7E3F
FC7E3F
FC7E3F
FC7E3F
FC0000
FC0000
FC0000
FC7E3F
FC7E3F
FC7E3F
FC7E3F
FC7E3F
FC7E3F
ENDCHAR
STARTCHAR E0E0
ENCODING 57568
SWIDTH 777 0
DWIDTH 28 0
BBX 24 24 2 0
BITMAP
007E00
007E00
007E00
007E00
007E00
007E00
007E00
007E00
007E00
FC7E3F
FC7E3F
FC7E3F
FC7E3F
FC7E3F
FC7E3F
007E00
007E00
007E00
007E00
007E00
007E00
007E00
007E00
007E00
ENDCHAR
STARTCHAR E0E1
ENCODING 57569
SWIDTH 777 0
DWIDTH 28 0
BBX 24 24 2 0
BITMAP
007E00
007E00
007E00
007E00
FC7E3F
FC7E3F
FC7E3F
FC7E3F
FC7E3F
FC7E3F
007E00
007E00
007E00
FC7E3F
FC7E3F
FC7E3F
FC7E3F
FC7E3F
FC7E3F
007E00
007E00
007E00
007E00
007E00
ENDCHAR
STARTCHAR E0E2
ENCODING 57570
SWIDTH 777 0
DWIDTH 28 0
BBX 24 24 2 0
BITMAP
FC7E3F
FC7E3F
FC7E3F
FC7E3F
FC7E3F
FC7E3F
007E00
007E00
007E00
FC7E3F
FC7E3F
FC7E3F
FC7E3F
FC7E3F
FC7E3F
007E00
007E00
007E00
FC7E3F
FC7E3F
FC7E3F
FC7E3F
FC7E3F
FC7E3F
ENDCHAR
STARTCHAR E0E3
ENCODING 57571
SWIDTH 777 0
DWIDTH 28 0
BBX 24 24 2 0
BITMAP
007E00
007E00
007E00
007E00
007E3F
007E3F
007E3F
007E3F
007E3F
FC7E3F
FC7E00
FC7E00
FC7E00
FC7E3F
FC7E3F
007E3F
007E3F
007E3F
007E3F
007E00
007E00
007E00
007E00
007E00
ENDCHAR
STARTCHAR E0E4
ENCODING 57572
SWIDTH 777 0
DWIDTH 28 0
BBX 24 24 2 0
BITMAP
007E00
007E00
007E00
007E00
FC7E00
FC7E00
FC7E00
FC7E00
FC7E00
FC7E3F
007E3F
007E3F
007E3F
FC7E3F
FC7E3F
FC7E00
FC7E00
FC7E00
FC7E00
007E00
007E00
007E00
007E00
007E00
ENDCHAR
STARTCHAR E0E5
ENCODING 57573
SWIDTH 777 0
DWIDTH 28 0
BBX 24 24 2 0
BITMAP
007E3F
007E3F
007E3F
007E3F
007E3F
007E3F
007E00
007E00
007E00
FC7E3F
FC7E3F
FC7E3F
FC7E3F
FC7E3F
FC7E3F
007E00
007E00
007E00
007E3F
007E3F
007E3F
007E3F
007E3F
007E3F
ENDCHAR
STARTCHAR E0E6
ENCODING 57574
SWIDTH 777 0
DWIDTH 28 0
BBX 24 24 2 0
BITMAP
FC7E00
FC7E00
FC7E00
FC7E00
FC7E00
FC7E00
007E00
007E00
007E00
FC7E3F
FC7E3F
FC7E3F
FC7E3F
FC7E3F
FC7E3F
007E00
007E00
007E00
FC7E00
FC7E00
FC7E00
FC7E00
FC7E00
FC7E00
ENDCHAR
STARTCHAR E0E7
ENCODING 57575
SWIDTH 777 0
DWIDTH 28 0
BBX 24 24 2 0
BITMAP
007E3F
007E3F
007E3F
007E3F
FC7E3F
FC7E3F
FC7E00
FC7E00
FC7E00
FC7E3F
007E3F
007E3F
007E3F
FC7E3F
FC7E3F
FC7E00
FC7E00
FC7E00
FC7E3F
007E3F
007E3F
007E3F
007E3F
007E3F
ENDCHAR
STARTCHAR E0E8
ENCODING 57576
SWIDTH 777 0
DWIDTH 28 0
BBX 24 24 2 0
BITMAP
FC7E00
FC7E00
FC7E00
FC7E00
FC7E3F
FC7E3F
007E3F
007E3F
007E3F
FC7E3F
FC7E00
FC7E00
FC7E00
FC7E3F
FC7E3F
007E3F
007E3F
007E3F
FC7E3F
FC7E00
FC7E00
FC7E00
FC7E00
FC7E00
ENDCHAR
STARTCHAR E0E9
ENCODING 57577
SWIDTH 777 0
DWIDTH 28 0
BBX 24 24 2 0
BITMAP
00003F
00003F
00003F
00003F
007E3F
007E3F
007E3F
007E3F
007E3F
FC7E3F
FC003F
FC003F
FC003F
FC7E3F
FC7E3F
007E3F
007E3F
007E3F
007E3F
00003F
00003F
00003F
00003F
00003F
ENDCHAR
STARTCHAR E0EA
ENCODING 57578
SWIDTH 777 0
DWIDTH 28 0
BBX 24 24 2 0
BITMAP
FC0000
FC0000
FC0000
FC0000
FC7E00
FC7E00
FC7E00
FC7E00
FC7E00
FC7E3F
FC003F
FC003F
FC003F
FC7E3F
FC7E3F
FC7E00
FC7E00
FC7E00
FC7E00
FC0000
FC0000
FC0000
FC0000
FC0000
ENDCHAR
STARTCHAR E0EB
ENCODING 57579
SWIDTH 777 0
DWIDTH 28 0
BBX 24 24 2 0
BITMAP
007E3F
007E3F
007E3F
007E3F
FC7E3F
FC7E3F
FC003F
FC003F
FC003F
FC7E3F
007E3F
007E3F
007E3F
FC7E3F
FC7E3F
FC003F
FC003F
FC003F
FC7E3F
007E3F
007E3F
007E3F
007E3F
007E3F
ENDCHAR
STARTCHAR E0EC
ENCODING 57580
SWIDTH 777 0
DWIDTH 28 0
BBX 24 24 2 0
BITMAP
FC7E00
FC7E00
FC7E00
FC7E00
FC7E3F
FC7E3F
FC003F
FC003F
FC003F
FC7E3F
FC7E00
FC7E00
FC7E00
FC7E3F
FC7E3F
FC003F
FC003F
FC003F
FC7E3F
FC7E00
FC7E00
FC7E00
FC7E00
FC7E00
ENDCHAR
STARTCHAR E0ED
ENCODING 57581
SWIDTH 777 0
DWIDTH 28 0
BBX 24 24 2 0
BITMAP
007E3F
007E3F
007E3F
007E3F
007E3F
007E3F
00003F
00003F
00003F
FC7E3F
FC7E3F
FC7E3F
FC7E3F
FC7E3F
FC7E3F
00003F
00003F
00003F
007E3F
007E3F
007E3F
007E3F
007E3F
007E3F
ENDCHAR
STARTCHAR E0EE
ENCODING 57582
SWIDTH 777 0
DWIDTH 28 0
BBX 24 24 2 0
BITMAP
FC7E00
FC7E00
FC7E00
FC7E00
FC7E00
FC7E00
FC0000
FC0000
FC0000
FC7E3F
FC7E3F
FC7E3F
FC7E3F
FC7E3F
FC7E3F
FC0000
FC0000
FC0000
FC7E00
FC7E00
FC7E00
FC7E00
FC7E00
FC7E00
ENDCHAR
STARTCHAR E0EF
ENCODING 57583
SWIDTH 777 0
DWIDTH 28 0
BBX 24 24 2 0
BITMAP
FC003F
FC003F
FC003F
FC003F
FC7E3F
FC7E3F
007E3F
007E3F
007E3F
FC7E3F
FC003F
FC003F
FC003F
FC7E3F
FC7E3F
007E3F
007E3F
007E3F
FC7E3F
FC003F
FC003F
FC003F
FC003F
FC003F
ENDCHAR
STARTCHAR E0F0
ENCODING 57584
SWIDTH 777 0
DWIDTH 28 0
BBX 24 24 2 0
BITMAP
FC003F
FC003F
FC003F
FC003F
FC7E3F
FC7E3F
FC7E00
FC7E00
FC7E00
FC7E3F
FC003F
FC003F
FC003F
FC7E3F
FC7E3F
FC7E00
FC7E00
FC7E00
FC7E3F
FC003F
FC003F
FC003F
FC003F
FC003F
ENDCHAR
STARTCHAR E0F1
ENCODING 57585
SWIDTH 777 0
DWIDTH 28 0
BBX 24 24 2 0
BITMAP
FC003F
FC003F
FC003F
FC003F
FC003F
FC003F
00003F
00003F
00003F
FC7E3F
FC7E3F
FC7E3F
FC7E3F
FC7E3F
FC7E3F
00003F
00003F
00003F
FC003F
FC003F
FC003F
FC003F
FC003F
FC003F
ENDCHAR
STARTCHAR E0F2
ENCODING 57586
SWIDTH 777 0
DWIDTH 28 0
BBX 24 24 2 0
BITMAP
FC003F
FC003F
FC003F
FC003F
FC003F
FC003F
FC0000
FC0000
FC0000
FC7E3F
FC7E3F
FC7E3F
FC7E3F
FC7E3F
FC7E3F
FC0000
FC0000
FC0000
FC003F
FC003F
FC003F
FC003F
FC003F
FC003F
ENDCHAR
STARTCHAR E0F3
ENCODING 57587
SWIDTH 777 0
DWIDTH 28 0
BBX 24 24 2 0
BITMAP
00003F
00003F
00003F
00003F
FC003F
FC003F
FC003F
FC003F
FC003F
FC7E3F
007E3F
007E3F
007E3F
FC7E3F
FC7E3F
FC003F
FC003F
FC003F
FC003F
00003F
00003F
00003F
00003F
00003F
ENDCHAR
STARTCHAR E0F4
ENCODING 57588
SWIDTH 777 0
DWIDTH 28 0
BBX 24 24 2 0
BITMAP
FC0000
FC0000
FC0000
FC0000
FC003F
FC003F
FC003F
FC003F
FC003F
FC7E3F
FC7E00
FC7E00
FC7E00
FC7E3F
FC7E3F
FC003F
FC003F
FC003F
FC003F
FC0000
FC0000
FC0000
FC0000
FC0000
ENDCHAR
ENDFONT
